<svg version="1.2" xmlns="http://www.w3.org/2000/svg" viewBox="0 0 119 113" width="119" height="113">
	<title>elections</title>
	<style>
		.s0 { fill: #808080 } 
		.s1 { fill: none;stroke: #808080;stroke-miterlimit:100;stroke-width: 4 } 
		.s2 { fill: none;stroke: #808080;stroke-miterlimit:100;stroke-width: 4 } 
	</style>
	<path id="Shape 6" fill-rule="evenodd" class="s0" d="m58.1 40l-2.2-2 10.2-11.2 2.3 2.1z"/>
	<path id="Shape 4" fill-rule="evenodd" class="s1" d="m22 73h74c2.2 0 4 1.8 4 4v18c0 2.2-1.8 4-4 4h-74c-2.2 0-4-1.8-4-4v-18c0-2.2 1.8-4 4-4z"/>
	<path id="Shape 5" fill-rule="evenodd" class="s1" d="m50 17h19c2.2 0 4 1.8 4 4v28c0 2.2-1.8 4-4 4h-19c-2.2 0-4-1.8-4-4v-28c0-2.2 1.8-4 4-4z"/>
	<path id="Layer 1" fill-rule="evenodd" class="s0" d="m50.5 34.2l2.3-1.9 5.8 7-2.2 1.9z"/>
	<path id="Layer 2" fill-rule="evenodd" class="s2" d="m30.5 43h9.5v1c0 1 0.4 1.9 1 2.6v5.4h-1.5c-1.9 0-3.5 1.6-3.5 3.5 0 1.9 1.6 3.5 3.5 3.5h38c1.9 0 3.5-1.6 3.5-3.5 0-1.9-1.6-3.5-3.5-3.5h0.5v-5.4c0.6-0.7 1-1.6 1-2.6v-1h7.5c6.9 0 12.5 5.6 12.5 12.5v9.5c0 1.7-1.3 3-3 3h-75c-1.7 0-3-1.3-3-3v-9.5c0-6.9 5.6-12.5 12.5-12.5z"/>
</svg>