<svg version="1.2" xmlns="http://www.w3.org/2000/svg" viewBox="0 0 65 65" width="65" height="65">
	<g>
		<path fill="#54575e" d="m20.4 63.6c-1.9-0.1-2.6-0.45-3.75-1.75l-1.4-1.6v-8.9c0-7.35 0.15-8.95 0.75-9.35 1.15-0.75 1.45-0.6 2.5 1.2l1 1.65 12.6-0.1 12.6-0.15 0.45-1.3c0.3-0.9 0.8-1.3 1.5-1.3 1.25 0.05 3.1 1.25 2.5 1.65-0.25 0.15-0.4 3.85-0.35 8.2 0.05 7-0.05 8.1-0.9 9.55-0.55 0.85-1.55 1.75-2.2 1.9-1.3 0.35-21.2 0.55-25.3 0.3zm23.75-4.05c0.75-0.05 0.85-0.65 0.85-5.05 0-4.4-0.1-5-0.95-5.5-1.5-0.8-24.9-0.7-25.15 0.15-0.2 0.5-0.15 3 0.05 9.45 0.05 0.45 0.55 0.9 1.2 1 1 0.15 21.85 0.1 24-0.05z"/>
		<path fill="#54575e" d="m31.2 56c-0.6-0.25-1.25-0.7-1.45-1-0.55-0.85 0.15-2.9 1.2-3.45 1.25-0.7 3.65 1.1 3.45 2.6-0.2 1.4-1.9 2.35-3.2 1.85z"/>
		<path fill="#54575e" d="m8.85 37.15c-0.65-0.6-0.35-2.5 0.45-3.15 1.6-1.4 1.75-2.35 0.45-3.6-1.35-1.25-1.6-2.85-0.65-3.8 0.9-0.9 1.5-0.75 3.35 0.95l1.7 1.5 1.55-1.5c1.15-1.1 1.85-1.45 2.7-1.25 1.5 0.4 1.45 2.25-0.15 3.75-1.55 1.5-1.55 1.7 0 3.35 1.55 1.65 1.65 3.4 0.25 3.85-1.1 0.35-3.5-0.9-3.5-1.75 0-0.85-1.2-0.55-2.7 0.75-1.4 1.2-2.8 1.6-3.45 0.9z"/>
		<path fill="#54575e" d="m26.85 37.15c-0.65-0.6-0.35-2.5 0.45-3.15 1.65-1.4 1.75-2.35 0.45-3.8-2.85-3.1-0.6-5.45 2.6-2.7l1.75 1.6 1.75-1.65c1.35-1.35 1.85-1.55 2.55-1.15 1.1 0.7 1.35 2.35 0.5 3.25-2.1 2.25-2.15 2.4-0.7 3.9 2.75 2.85 0.4 5.5-2.45 2.85-0.8-0.75-1.5-1.3-1.65-1.3-0.15 0-1 0.55-1.9 1.25q-2.46 1.87-3.35 0.9z"/>
		<path fill="#54575e" d="m44.85 37.15c-0.75-0.7-0.3-2.4 0.95-3.7l1.3-1.35-1.3-1.75c-1.55-2.05-1.65-3.15-0.25-3.9 0.9-0.45 1.25-0.35 2.4 0.75 1.7 1.65 2.4 1.65 4.1 0 0.95-0.9 1.65-1.2 2.4-0.95 1.4 0.45 1.35 1.95-0.2 4l-1.3 1.65 1.3 1.55c1.5 1.7 1.5 3.7 0.1 3.95-0.5 0.1-1.65-0.4-2.6-1.1-2.1-1.6-2.3-1.6-3.75-0.05-1.15 1.2-2.5 1.6-3.15 0.9z"/>
		<path fill="#54575e" d="m15.65 20.65c-0.2-0.5-0.35-3.7-0.35-7.1l0.05-6.25 1.6-1.4 1.55-1.4h13.25c7.25 0 13.75 0.2 14.45 0.5 2.15 0.8 2.7 2.65 2.6 9.25-0.1 6.35-0.3 7.25-1.75 7.25-1.3 0-2.05-1.05-2.05-2.85v-1.65l-12.85 0.1-12.9 0.15-0.15 1.5c-0.1 0.85-0.4 1.8-0.7 2.15-0.75 0.9-2.4 0.75-2.75-0.25zm29.25-9.8c0.15-2.1 0.05-2.35-1-2.55-0.95-0.2-21.2-0.1-24 0.15-0.7 0.05-0.9 0.5-0.9 2.25 0 1.95 0.15 2.25 1.15 2.4 0.6 0.1 6.4 0.15 12.85 0.15l11.75-0.05z"/>
	</g>
	<g>
		<path fill="#54575e" d="m17.15 63c-0.9-0.55-1.75-1.5-1.9-2.1-0.15-0.65-0.2-5.2-0.15-10.15l0.15-9h1.75c1.55 0 1.75 0.15 1.9 1.4l0.15 1.35h13 12.95v-1.25c0-0.9 0.35-1.3 1.25-1.55 2.7-0.65 2.75-0.5 2.75 9.65 0 8.15-0.15 9.55-0.9 10.45-1.65 2.1-2.55 2.2-16.2 2.2-12.2 0-13.25-0.1-14.75-1zm29.95-1.45l1.4-1.55v-8.45c0-6.9-0.15-8.55-0.75-9.05-0.95-0.8-2.25 0.15-2.25 1.55 0 0.9-0.65 0.95-13.5 0.95-12.85 0-13.5-0.05-13.5-0.95 0-1.4-1.3-2.35-2.25-1.55-0.6 0.5-0.75 2.15-0.75 9 0 8.3 0 8.45 1.25 9.95 1.6 1.85 1.45 1.8 17 1.75l11.95-0.1z"/>
		<path fill="#54575e" d="m18.85 59.65c-0.2-0.15-0.35-2.75-0.35-5.7 0-5.2 0.05-5.45 1.15-5.7 0.6-0.15 6.6-0.2 13.35-0.15l12.25 0.15v5.75 5.75l-13.05 0.15c-7.15 0.05-13.15-0.05-13.35-0.25zm25.75-5.45c0.1-2.9 0.1-5.3 0.05-5.35-0.05-0.05-5.8-0.05-12.85 0.05l-12.8 0.15v4.9c0 2.7 0.15 5.05 0.35 5.2 0.15 0.2 5.9 0.35 12.7 0.35h12.4z"/>
		<path fill="#54575e" d="m29.7 55.25c-0.7-1.05-0.75-1.55-0.3-2.55 0.35-0.65 0.95-1.35 1.35-1.5 1.35-0.55 3.25 0.3 3.8 1.65 1.15 3.05-3.05 5.15-4.85 2.4zm3.5-0.05c1.05-1 1-1.85-0.15-2.9-1.15-1.05-2.45-0.55-2.9 1.1-0.2 0.9-0.05 1.45 0.6 1.95 1.2 0.85 1.5 0.8 2.45-0.15z"/>
		<path fill="#54575e" d="m8.9 37.45c-1.35-0.75-1.1-2.6 0.6-4.2l1.5-1.45-1.5-1.45c-0.85-0.8-1.5-1.75-1.5-2.1 0-2.55 2.4-3 4.6-0.9l1.4 1.35 1.4-1.35c1.5-1.45 3-1.75 4-0.75 0.95 0.95 0.7 2.2-0.65 3.45-1.55 1.5-1.55 2 0 3.45 1.5 1.4 1.6 3.25 0.3 4-1.4 0.75-1.65 0.65-3.5-1.05l-1.7-1.5-1.45 1.5c-1.65 1.65-2.15 1.8-3.5 1zm3.1-1.7c1.5-1.6 2.35-1.55 4.05 0.05 1.5 1.45 2.95 1.35 2.95-0.2 0-0.5-0.55-1.45-1.25-2.1-1.55-1.45-1.55-2.05 0-3.5 1.3-1.2 1.5-3 0.45-3.35-0.3-0.1-1.25 0.4-2.1 1.1-0.8 0.7-1.75 1.25-2.1 1.25-0.35 0-1.3-0.55-2.1-1.25-0.85-0.7-1.8-1.2-2.1-1.1-1.05 0.35-0.85 2.15 0.45 3.35 1.55 1.45 1.55 2.05 0 3.5-1.5 1.4-1.7 3.5-0.35 3.5 0.5 0 1.45-0.55 2.1-1.25z"/>
		<path fill="#54575e" d="m26.9 37.45c-1.3-0.7-1.1-2.6 0.35-3.95 1.5-1.4 1.6-2.3 0.25-3-1.25-0.65-1.8-2.75-1-3.75 0.95-1.15 2.55-0.9 4.1 0.6l1.4 1.35 1.4-1.35c1.5-1.45 3-1.75 4-0.75 1 1 0.7 2.3-0.9 3.75l-1.5 1.35 1.5 1.55c1.7 1.75 1.95 3.5 0.55 4.25-1.45 0.75-1.75 0.65-3.5-1.05l-1.65-1.55-1.6 1.55c-1.75 1.7-2.1 1.8-3.4 1zm3.1-1.7c0.65-0.7 1.55-1.25 2-1.25 0.45 0 1.35 0.55 2 1.25 0.65 0.7 1.6 1.25 2.1 1.25 1.35 0 1.15-2.1-0.35-3.5-0.7-0.65-1.25-1.45-1.25-1.75 0-0.3 0.55-1.1 1.25-1.75 0.7-0.65 1.25-1.6 1.25-2.1 0-1.55-1.45-1.65-2.95-0.2-1.7 1.65-2.4 1.65-4.1 0-1.5-1.45-2.95-1.35-2.95 0.2 0 0.5 0.55 1.45 1.25 2.1 0.7 0.65 1.25 1.35 1.25 1.55 0 0.2-0.55 1.05-1.25 1.85-2.45 2.9-0.8 5.1 1.75 2.35z"/>
		<path fill="#54575e" d="m44.9 37.45c-1.3-0.7-1.1-2.6 0.35-3.95 1.55-1.45 1.55-1.95 0-3.45-0.7-0.65-1.25-1.45-1.25-1.8 0-2.55 2.4-3 4.6-0.9l1.4 1.35 1.4-1.35c1.55-1.5 3.15-1.75 4.1-0.6 0.8 1 0.25 3.1-1 3.75-1.35 0.7-1.25 1.6 0.25 3 1.5 1.4 1.6 3.25 0.3 4-1.5 0.8-2 0.65-3.6-1.1l-1.45-1.6-1.45 1.6c-1.6 1.7-2.25 1.9-3.65 1.05zm3.1-1.7c0.65-0.7 1.55-1.25 2-1.25 0.45 0 1.35 0.55 2 1.25 0.65 0.7 1.6 1.25 2.1 1.25 1.35 0 1.15-2.1-0.35-3.5-0.7-0.65-1.25-1.45-1.25-1.75 0-0.3 0.55-1.1 1.25-1.75 0.7-0.65 1.25-1.6 1.25-2.1 0-1.55-1.45-1.65-2.95-0.2-1.7 1.65-2.4 1.65-4.1 0-2.55-2.45-4.05-0.4-1.7 2.4 0.7 0.8 1.25 1.65 1.25 1.85 0 0.2-0.55 0.9-1.25 1.55-1.5 1.4-1.7 3.5-0.35 3.5 0.5 0 1.45-0.55 2.1-1.25z"/>
		<path fill="#54575e" d="m15.6 21.4c-0.8-0.8-0.8-12.85-0.05-14.6 1.15-2.55 2.75-2.8 16.35-2.8 7.6 0 13.05 0.2 14 0.55 2.75 0.95 3.1 2.1 3.1 9.9v7.05l-1.25 0.3c-1.65 0.4-2.65-0.5-2.85-2.6-0.1-0.95-0.3-1.7-0.5-1.7-0.25 0-6 0-12.8 0h-12.45v1.45c0 2.55-2.05 3.95-3.55 2.45zm2.9-2.65l0.25-2h13.25 13.25l0.25 2c0.2 1.75 0.4 2 1.5 2h1.25l0.15-6.3c0.15-6.2 0.1-6.35-1.2-7.9l-1.3-1.55h-13.65-13.7l-1.4 1.2c-1.35 1.15-1.4 1.4-1.55 6.8-0.25 6.8 0.05 8.1 1.55 7.9 0.85-0.1 1.15-0.55 1.35-2.15z"/>
		<path fill="#54575e" d="m18.5 11.05c0-1.4 0.2-2.65 0.5-2.8 0.75-0.45 25.15-0.55 25.9-0.1 0.35 0.25 0.6 1.45 0.6 2.9v2.45h-13.5-13.5zm26.3-0.15l-0.05-2.15h-12.7-12.75l-0.05 2.15-0.05 2.1h12.8 12.8z"/>
	</g>
</svg>