<svg version="1.2" xmlns="http://www.w3.org/2000/svg" viewBox="0 0 800 800" width="100" height="100">
	<style>
		.s0 { fill: none; stroke:#285ff4; stroke-linecap: round;stroke-linejoin: round;stroke-width: 40 } 
		.s1 { fill: #285ff4 } 
	</style>
	<path class="s0" d="m439.2 762.9c89.4-39.8 300.3-162.5 300.3-436.3v-165.4c0-46.6 0-69.9-9.3-87.7-8.1-15.7-21.1-28.4-37.1-36.4-18.2-9.1-41.9-9.1-89.4-9.1h-407.5c-47.6 0-71.4 0-89.5 9.1-16 8-29 20.7-37.1 36.4-9.3 17.8-9.3 41.2-9.3 87.9v165.2c0 273.8 210.9 396.5 300.3 436.3 9.5 4.2 14.2 6.3 25 8.1 6.7 1.1 21.9 1.1 28.7 0 10.7-1.8 15.4-3.9 24.8-8.1z"/>
	<path fill-rule="evenodd" class="s1" d="m456.8 260.6c0-34.6-25.5-62.6-56.9-62.6-22.7 0-42.2 14.6-51.4 35.8-5.4 12.5-18.9 17.8-30.2 11.8-11.3-5.9-16.2-20.8-10.8-33.3 16.4-37.9 51.5-64.3 92.4-64.3 56.5 0 102.3 50.4 102.3 112.6v37.5h11.4c25.1 0 45.5 22.4 45.5 50v150c0 27.6-20.4 50-45.5 50h-227.4c-25.1 0-45.5-22.4-45.5-50v-150c0-27.6 20.4-50 45.5-50h170.6zm-182.8 83.7v154.5c0 11.1 8.9 20 20 20h214.6c11.1 0 20-8.9 20-20v-154.5c0-11-8.9-20-20-20h-214.6c-11.1 0-20 9-20 20z"/>
</svg>