<svg version="1.2" xmlns="http://www.w3.org/2000/svg" viewBox="0 0 800 800" width="800" height="800">
	<title>mandaty</title>
	<style>
		.s0 { fill: none;stroke: #808080;stroke-miterlimit:100;stroke-width: 40 } 
		.s1 { fill: #808080 } 
	</style>
	<g id="card">
		<path id="card" fill-rule="evenodd" class="s0" d="m205.8 72.6l510.3 100c21.7 4.2 35.8 25.2 31.6 46.9l-61.6 314c-4.2 21.7-25.2 35.8-46.9 31.6l-510.3-100c-21.7-4.2-35.8-25.3-31.6-46.9l61.6-314.1c4.2-21.7 25.2-35.8 46.9-31.5z"/>
		<g id="bars">
			<path id="bar copy 2" fill-rule="evenodd" class="s1" d="m203.9 245.5l304.2 59.6c10.8 2.1 17.9 12.6 15.8 23.4-2.2 10.9-12.7 17.9-23.5 15.8l-304.2-59.6c-10.9-2.1-17.9-12.6-15.8-23.5 2.1-10.8 12.6-17.9 23.5-15.7z"/>
			<path id="bar" fill-rule="evenodd" class="s1" d="m215.4 186.6l353.3 69.2c10.8 2.1 17.9 12.6 15.8 23.5-2.2 10.8-12.7 17.9-23.5 15.8l-353.3-69.3c-10.8-2.1-17.9-12.6-15.8-23.4 2.2-10.9 12.7-17.9 23.5-15.8z"/>
			<path id="bar copy" fill-rule="evenodd" class="s1" d="m226.9 127.7l451.5 88.5c10.8 2.1 17.9 12.6 15.7 23.4-2.1 10.9-12.6 17.9-23.4 15.8l-451.4-88.4c-10.9-2.2-17.9-12.7-15.8-23.5 2.1-10.9 12.6-17.9 23.4-15.8z"/>
		</g>
	</g>
	<g id="placeholder">
		<path id="card" fill-rule="evenodd" class="s0" d="m681 645.8c0 22.1-17.9 40-40 40h-520c-22.1 0-40-17.9-40-40v-37.8h1v32c0 24.9 20.1 45 45 45h507c24.9 0 45-20.1 45-45v-32h2zm-599-136.8v63.5h-1v-63.5z"/>
	</g>
</svg>