<svg version="1.2" xmlns="http://www.w3.org/2000/svg" viewBox="0 0 233 233" width="233" height="233">
	<defs>
		<linearGradient id="g1" x2="1" gradientUnits="userSpaceOnUse" gradientTransform="matrix(226.008,131.688,-39.939,68.546,2.231,29.144)">
			<stop offset="0" stop-color="#c3bdc9" stop-opacity="1"/>
			<stop offset="1" stop-color="#c3bdc9" stop-opacity="0"/>
		</linearGradient>
		<linearGradient id="g2" x2="1" gradientUnits="userSpaceOnUse" gradientTransform="matrix(-510.33,-190.424,79.92,-214.184,489.429,402.696)">
			<stop offset="0" stop-color="#c3bdc9" stop-opacity="1"/>
			<stop offset="1" stop-color="#c3bdc9" stop-opacity="0"/>
		</linearGradient>
		<linearGradient id="g3" x2="1" gradientUnits="userSpaceOnUse" gradientTransform="matrix(-308.162,185.318,-67.877,-112.872,283.888,-3.861)">
			<stop offset="0" stop-color="#c3bdc9" stop-opacity="1"/>
			<stop offset="1" stop-color="#c3bdc9" stop-opacity="0"/>
		</linearGradient>
	</defs>
	<style>
		.s0 { fill: #dc143c } 
		.s1 { fill: #f6d155 } 
		.s2 { fill: #ffffff } 
		.s3 { fill: #dfdde2 } 
		.s4 { fill: #f1eef0 } 
		.s5 { fill: #e8e6eb } 
		.s6 { fill: #c3bdc9 } 
		.s7 { fill: url(#g1) } 
		.s8 { fill: url(#g2) } 
		.s9 { fill: url(#g3) } 
		.s10 { fill: #cecad5 } 
		.s11 { fill: #c5bdcb } 
		.s12 { fill: #c3bdca } 
		.s13 { fill: #e0dee2 } 
		.s14 { fill: #dfdde1 } 
		.s15 { fill: #c4bec9 } 
		.s16 { fill: #c3beca } 
		.s17 { fill: #c4c0cd } 
		.s18 { fill: #e1dfe3 } 
		.s19 { fill: #e0dee3 } 
		.s20 { fill: #c4becb } 
		.s21 { fill: #c3bec9 } 
		.s22 { fill: #c4beca } 
		.s23 { fill: #b6b1bf } 
		.s24 { fill: #aaa3b5 } 
		.s25 { fill: #dfdce1 } 
		.s26 { fill: #dfa12f } 
		.s27 { fill: #dea12f } 
		.s28 { fill: #c1c0c8 } 
		.s29 { fill: #dfdde3 } 
		.s30 { fill: #e0dee4 } 
		.s31 { fill: #e1a02f } 
	</style>
	<g>
		<path class="s0" d="m5.1 117c0 111.9 0 111.9 112 111.9 111.9 0 111.9 0 111.9-111.9 0-111.9 0-111.9-111.9-111.9-112 0-112 0-112 111.9z"/>
		<path fill-rule="evenodd" class="s1" d="m106 45c2.4 4.1 3.3 8.1 4.6 11.8 2.2-0.3 4.6 0.3 7.1 0.4 2.8 0.6 5 0.8 7.1 0.5 1.2-5.9 2.3-8.8 4.9-12.9-1.2 0.8-3.5 1.1-4.5 2.5-1.4-1.3-2.5-0.5-3.2 0.8 0.2-1-0.1-1.9-1.5-2 0.9-1.6-0.4-2.3-1.7-1.7-0.1-1.3-1.1-1.3-1.2-2-0.2 0.8-1.1 0.4-1 2.4-1-0.9-2.1-0.3-1.7 1.2-1.3 0-1.6 1.1-1.5 2.4-0.9-2-2.5-1.4-3.1-0.7-1.1-2.1-1.9-0.7-4.3-2.7z"/>
		<path fill-rule="evenodd" class="s2" d="m126.8 55.6c1.3 1.3 1.3 3.3-0.5 4 1.5 1.1 2.9 0.8 3.3-0.2 0.7 0.7 1.4 2.8-0.3 3.1 0.3 1-0.1 1.4-0.5 1.6 0.8 0.6 1.5 2.5 1.4 6.1-0.8 8.4-1.3 11.1 0.2 12.5-0.4 0.4-1 0.5-1.5 0.3-0.7 6.7-1.3 8 2.5 8.9-0.3 0.6-0.6 1.3-2 1.4 1.6 1.4 1.3 4 1.4 5.4 5.8 0.2 8.4-2.3 7.4-6.3-6.2 0.9-7.8-7-5.8-11.7 6.9-16 21.2-22.4 33.4-23.3-0.3 3.1-1.5 5.5-3.6 8.1 3.6-2.4 6-2.1 8.8-2.5-0.8 5.5-2.9 8.1-4.7 10.4 2-1.6 4-3.1 6.1-6.1 2.2 2.8-0.2 6.2-2 8.2 1.8-0.5 6.3-0.6 8.5 0.5 0.3 0.7-3.5 6.7-7.9 8.9 1 0.1 6-1.8 8.9-4.6 0.4 1 3.3 4.2-6 7.6 3.4 0.3 7.1 2 9.1 3.6 0.1 0.3-1.3 3.6-9.1 5.1 3.6 0.6 6.3 0.4 9.3-0.6-0.2 3.1-2.9 5.8-11 4.9 4.1 1.6 7.9 3.8 11.8 9.8-4.5 2.8-11.9 1.7-19.3-1.7v0.2c5.1 2.3 12.7 9.6 18.4 7.6-0.7 2.2-3.4 6.5-15.9-0.1 7 10.6 6.4 18.2 6.3 20.9-3.2-0.6-9.8-4.5-15.5-13.4 3 5.6 6.3 14.6 11.2 16.6-1 0.3-2.5 1.4-3.9 1.4-3.1 0.1-6.8-5.5-10.2-11.6 0.7 5.9-0.4 15.7-2 17.8-3.4-2.4-7.5-10.2-9.2-23.6 0.2 4.6 0.2 9.2 2 13.7-4 0.6-5.7-5.7-6.4-10.4-0.4 0.5-1.1 0.9-1.7 1.2-3.6-2.7-5.2-8.2-5.7-13.3-0.8 0.8-3.4 1.6-6.5 0.1-0.7 1-1.4 2-1.8 3.1 1.3-0.6 1.8-1.2 4.4-1.4 5.9 0 5.1 12.7 10.6 15.2-0.5 0.3-1.1 0.2-1.7 0.2 0.5 0.9 1.1 1.8 2.5 2.4-0.2 0.3-0.8 0.5-1.3 0.5 0.6 1.1 1.1 1.9 3.2 3.3-0.3 0.1-0.6 0.2-1.2 0.2 1.2 2.1 3.6 3 5 3.4-1.7 1.3-4.7 1.5-7.5 1v0.1c2.7 3.5 4 4.3 5.4 5.1q-0.4 0.7-1 1c1 1.2 2.2 2 3.8 2.3-0.3 0.5-0.5 0.8-0.8 1 1.3 2 2.4 2.8 3.4 3.1l-0.3 0.9c1.3 1.4 2.4 1.3 3.5 1.4 0 0.6-0.6 0.9-1.3 1.2 0.8 0.6 1.7 1.6 2.6 1.3 2.8-1.1 5.1-1.4 7.8-1.7 0.2-1.2 3.2-2.8 4.8-0.1 0.6 0 1 0.2 1.2 0.7-0.2 1.2-0.2 2.6-1 3.5-0.3 0.2-1.2 0.4-1.7-0.6-1 0.8-2.1 0.5-3.1-0.2-2.4 0.2-3.4 0.6-3.9 1.1 1.1 0.5 2.3 0.7 3.6 1.9 2.2-1.9 7.3 0.7 4.9 3.9 0.3 0.2 0.6 0.5 0 1.3-1.9-0.1-4.4 1.1-4.9-1.8-1.1-0.8-5-1.9-7.6-2.9 1.3 1.1 2.4 1.8 3.9 3.5 1.5-0.3 4.1 1.9 2.3 4.7 0.1 0.3 0.3 0.5-0.1 1 0.1 0.3 0 0.5-0.4 0.8-0.3-0.2-4 1.2-3.8-1.2-0.9-0.7-1.9-1-1.5-3.6-0.5 0-0.1-0.5-0.3-0.6l-3.9-3.9c-1.3 1.1-2.3 1-3.3 0.8-0.3 0.4-0.6 0.7-1.2 0.7 0 0.5 0 1-0.2 1.3-0.6 0-2.7 0.8-3.7 0.5q-0.2-0.8 0-1.5c-2.1-0.8-1.6-6.2 3.7-4.3 1.6-0.3 1.3-1.2 0.4-2.2-4.1-4.1-8.3-9.5-12.1-14.8-1.3 2.2-3.9 3.8-5.9 3 1.2-1.6 1.6-2.1 1.5-5.7-1 2.2-1.5 2.2-2.1 2.5 0.1-4.8-2.4-9.7-5-13.8 0.3 6 1.2 12.5 4.9 17.2-1.9 0.3-2.9 0-4.1-0.9 0.6 3.6 2.8 9.7 7.4 5.9 1.8 2.8-0.7 7.8-6 5.3 0.9 3.5 3.4 5.1 6.1 5.3 2.8 0.2 5.2-1.7 4.1-4.8 5.7 0.4 5.4 8.4 1.4 10.3 7.8 4.4 1.6 11.3-2.7 11.2-2.6 0.1-6.9-0.4-11.3-7.1 0.1 0.9 2.5 6.8-3.1 15.5-5.6-7.2-3.4-13.8-2.9-15.9-1.8 2.9-4.6 6.9-9.4 7.6-6.2 1.2-13.7-5.1-6.3-10.8-0.1 0-2.4-1.3-2.5-4.6 0.1-5.7 5.4-5.6 5.7-5.4-1.7 4.2 1 5.3 3.6 4.6 2.7-0.7 5-2.5 5.6-5.5-3.4 2.9-8.9 0.4-6.6-4.6 3.7 3 8.4-3.4 8-8.3-0.3 1-2.5 2.8-4.2 2.2 3.3-5.5 4-11.1 4.3-16.6-3.8 4.3-5.7 9-4.4 14.7-0.9-0.2-1.5-0.5-1.9-1.1 0.2 2.5 0.7 3.3 1.2 4.2-2.4 0.2-4.6-1.3-5.6-2.8-1.7 0.9-7.8 9-12.3 14.4-0.4 2.5 1.2 1.4 2.9 1.5 1.5 0.1 2.7 1.4 2.7 3 0.2 1.1-0.4 2-1.3 2.6 0.2 0.7-0.1 1.1-0.6 1.1-1.1-0.2-2.5 0.1-3.3-0.3q0-0.4 0-0.6c-1.1 0.1-1.7-2-0.8-2.8v-0.4c-0.9 0.4-2.8 0.4-3.7 0.2-0.9 1.3-2.3 2.8-4.5 4.7h-0.1c0.3 0.3 0.4 0.8 0.3 1.7 0 1.4-0.5 1.6-1.3 2-0.1 0.2-0.1 0.4-0.1 0.7-0.5 0-1.1 1.3-3.5 0.9-0.7-0.2-0.7-0.8-0.6-1.5-0.6-0.4-1.1-1.2-1.1-2.3 0-1.1 0.5-2.5 2.5-2.5q0.2 0 0.5 0c0.5-1.8 1.5-2.4 2.1-2.7q0-0.2 0-0.4c-1 0.7-2.8 1.2-4.5 1.5 0 1.4-1.3 2.7-2.8 2.8-0.6 0.1-1.6 0.5-3.2-0.1-0.4-0.3-0.6-0.7-0.2-1.2v-0.3q-0.2-0.4-0.2-0.9c0.2-1.8 1.6-3.3 2.9-3.4q0.4 0 0.7 0.1c0.5 0.1 0.8 0.2 1.3 0.2 1-0.7 1.7-1.8 3.6-1.9-0.7-0.3-2-0.5-3.2-0.8-0.7 0.7-1.7 1.1-2.5 1.1-0.6 0-1.1 0-1.5-0.2-2.4-0.9-2.4-1.6-2.8-2.3-0.2-1.3 0.9-1.2 1.2-1 0.1-1.5 1.7-2.5 3.4-2.5 1.3 0 2.5 0.7 3 1.7 1.8-0.6 6.3 1 7.5 0.8 1.2-0.2 1.8-0.5 2.4-1.2 0.8 0.2-0.1-0.6-1.5-1 1.8-0.4 3.7-0.8 4.3-2.1-0.8 0-1.7 0.2-2.1-0.7 2.2-0.5 3.4-1.7 4.4-3-0.9 0.1-1.1-0.2-1.3-0.4 1.3-0.4 2.9-1.6 4.4-3.1-0.5 0.1-1.1 0-1.6-0.5 1.6-0.9 3.2-1.9 4.3-4-1.7 0.2-3.6 0-6.3-1.5 1.4-0.6 2.9-1.7 3.8-2.9-1-0.2-1.2-0.3-1.5-0.7 1.3-0.6 2.6-1.9 3.4-3.2-0.3-0.1-0.6-0.1-0.9-0.3 1-0.9 1.6-1.9 2.2-3-0.6 0.1-1.1-0.1-1.3-0.3 3.6-2.5 5-5.6 5.5-8.2 0.2-6.5 5.3-10.4 10.1-6.5-0.3-0.3-0.4-2.4-1.3-3.7-1.1 0.8-3.1 2.4-7.4 1.2-0.4 3.1-1.9 11.2-6.7 14.7-0.4-0.3-0.5-0.5-0.7-0.7-1.2 4-3.2 10.8-7 10.1 1.9-5 2.6-10.1 3.7-15.1-3.1 10.2-7.5 19.1-13.5 23.1-1.9-2.9-1.3-14.6 0.3-20.1-4 8.8-9.6 17-16.2 14.4 5.8-2.6 8.9-11.3 14.2-22.2-4.6 7.3-13.1 15.7-19 16.4-0.2-6.9 1-11.9 8.3-21.7-5.9 3.3-12.8 7.4-15.7 1.4 2.2 0.5 4.1-0.3 15.9-7.5-4 1.3-11.7 2.9-16 0.9 1-3.8 7.7-8.2 12.2-10.2-12.4 0.7-11.5-3.9-11.5-5.1 2 0.6 7 1.6 11.5 1-3.3 0-10-3.1-12.6-6.6 1.2-1.6 6.3-3 7.8-3.1-4.6-2-5.1-7.1-4.6-7.6 3.6 3.1 7.6 4.8 11.9 5.5-4.5-1.5-10-6.3-11.2-9 2-1.4 8.6-1.5 9.9-1-4.2-2.8-3.8-6.7-3.1-7.6 1.6 2.3 6.1 5.1 11 8-6.8-5.6-8.4-9.1-8.9-12 4.2-0.9 8.2 0.7 11.7 2.4-2.7-2.5-5-5.2-5.7-9 13 0.4 30.9 11.5 34.2 25.4 0.8 3.4-0.7 10.2-6.4 10-1.2 5 2.3 5.9 7.6 6.7 0-2.2 0.5-4.2 1.8-5.8-1.8-1.3-0.8-3.5-0.5-3.8 1.4 2.7 5.3-1.5 7.6-4.8-0.8-0.1-1.3-1.3-1-2.2 8.1-4.2 5.6-11.4 0.6-11.8l-0.9-0.9c-3.3 0.6-3.9 1.1-5.6 1.3-2.6 0.1-5-0.7-4.4-3.3 2.4 2.8 5.9-0.2 8.2-0.5l3.2-2.8c-1.1-3.6-3.6-3.8-5.3-4 0.2-4.7 4.9-3.3 10.1-2.8 6.5 1.1 7.2 0.9 8.7-1.7zm-23.9 93.7q0 0 0 0 0 0 0 0 0 0 0 0zm-0.4-0.6q0.1 0.1 0.1 0.2 0-0.1-0.1-0.2zm0.1 0.2q0.1 0.2 0.3 0.4-0.2-0.2-0.3-0.4zm31.3-3.2c0.1 0.1 0.1 0.1 0.2 0.2-0.1-0.1-0.2-0.2-0.2-0.2zm-35.7 0.1q-0.1 0.5-0.1 0.9 0-0.5 0.1-0.8zm2.9 3.1q0 0-0.1 0 0.1 0 0.1 0zm-0.1 0q-0.1 0-0.1 0.1 0-0.1 0-0.1 0.1 0 0.1 0zm-2.8-2.2q-0.1 0-0.1-0.1c0.1 0.4 0.1 0.8 0.2 1.3zm0.2 2.6c0-0.4-0.1-1-0.2-1.5zm0 0c0.6 0.3 1.5 0.1 2.6-0.3-0.9 0.3-1.9 0.6-2.6 0.3zm-0.6-3.4c0 0-0.2 0.1-0.2 0.1q0.1 0 0.2-0.1zm40.4 1.2c0.1-0.1 0.1-0.2 0.1-0.2 0 0-0.1 0.1-0.1 0.2-0.6 0.1-2.2 0.1-3.5-0.8 1.1 0.8 2.3 1 3.5 0.8zm-14.9 22.2c2.1 4.8 5.1 6.4 7.1 6.8 2.1 0.4 4.7-0.7 4.3-3.8-5.5 1.7-10.2-1.8-11.4-3.1zm-10.7 0.8c-1.2 1.4-5.8 4.7-11.4 2.9-1 3.4 1.5 4.6 4.1 4 2.6-0.7 5.5-3.5 7.3-6.9z"/>
		<path fill-rule="evenodd" class="s3" d="m86.6 108c-1.9-2.2-1.7-3.7-1.6-4.5-2.1-1.6-1.5-2.2-1.9-2.8 0.7 1.3 1.4 2.1 2.2 2.2 1.4 1.3 2.7 1.7 4.1 2.5-8.4-4.6-6.1-10.3-6-11.9q-1.9 0.1-3-0.7c0.3-2.3 1.5-4.2 4-5.4-0.3 0.1-0.6 0.2-0.9 0.3-0.3-0.1-1.1-2-0.2-3.2 0.6-0.3 2-0.5 3.4 0.1 0.9-1.7 2-3.2 4.3-3.8 0.5 0.6 1.5 2.3 0.8 5.3 1 0.4 1.9 0.8 2.6 1.9-0.2 1-0.4 1.3-0.7 1.5 3.8 0.1 4.1-5.1 0-5.7 0.6-4.8-5.6-7.7-8.3-1.7-5.1-1.4-6.4 2.5-4.5 5.6-0.6 0.4-5.6 4.1-0.8 9.3 0 2.6 0.6 5.1 4.1 7.3 1 3 1.6 3 2.4 3.6v0.1z"/>
		<path fill-rule="evenodd" class="s3" d="m148.7 80.7l0.7-1.3c4.5-0.7 7.2 2.3 5.4 5.9 3.7 3.1 1.7 7.2-0.5 8 2.6-2 1.1-2.6 0.7-2.5 0.2-0.1 0.4-0.2 0.5-0.4-0.1-1.7-0.8-3.3-3.4-5.3 1.3-1.4 1.2-2.8 1-3.7-1.4-0.4-2.7-0.3-3.8 0.3l-0.6-1z"/>
		<path fill-rule="evenodd" class="s3" d="m142.4 89.5c0.2-0.7 0.4-1.8 1.7-2.9q-0.6 0.5-1.4 1.1c-1.6-0.7-2.6-2.2-2.9-3.1 1-1.3 3.4-1.1 3.7-1-0.7-2.6 0.2-4.6 0.9-5.3 2.1 0.2 3.3 1.3 4.1 2.3l0.7-1.2c-0.6-1.8-2.4-3.2-4.5-2.8-1.8 0.2-3.9 1.8-3.1 5.4-5.3 2.1-3 7.3 0.8 7.5z"/>
		<path fill-rule="evenodd" class="s4" d="m130.8 98.7c-0.3 2-0.6 3.4-1.1 4.8 7.3-1.1 18.1-3 16.7-11-1.4 0.9-2.7 1.1-4 1.1-0.2-1.1-0.4-2.3 0-3.9-1.2 1.6-2.6 2.2-4.1 2.6 6.6 2.9-2.8 8.2-6.7 6.4h-0.9z"/>
		<path fill-rule="evenodd" class="s5" d="m104.4 101.7c0.2 2.3 0.9 5 1.6 7.6-0.4-0.8-1.9-5.2-1.6-7.6z"/>
		<path fill-rule="evenodd" class="s6" d="m126.1 100.1c-1.7 7 6 6.3 0.6-0.9 5.3 3.3 1.8 8.1 1.6 9.2-0.9-3.7-4.2-4.7-2.2-8.3z"/>
		<path fill-rule="evenodd" class="s2" d="m91 80.9l-2.7 7.8c-0.6-0.3-1.2-0.6-2.1-1.5 0-2.7 2.4-6.1 4.7-6.3z"/>
		<path fill-rule="evenodd" class="s6" d="m93.1 96l-4.8-7.3c0.8 0 1.6 0 2.7-0.2 1.4 1.3 2.9 4.7 2.1 7.5z"/>
		<path fill-rule="evenodd" class="s2" d="m91.7 86.2c1.4 0.4 2.4 1.4 2.6 1.9l-3.4 0.4q0.5-1.1 0.8-2.3z"/>
		<path fill-rule="evenodd" class="s2" d="m83.4 87.7c-0.6-0.9-0.6-2.7 0-3.1l2.8 2.6c-0.7 0.1-2.1 0.2-2.8 0.5z"/>
		<path fill-rule="evenodd" class="s2" d="m80.5 92.7l7.8-4c0 0-1.1-1.3-2.1-1.5-2.1-0.3-5.5 2.3-5.7 5.5z"/>
		<path fill-rule="evenodd" class="s7" d="m87 92.8c-4 11.5 13.4 13.3 18 13.7l-0.6-2.9c-8.4-0.4-16.2-2.3-15.1-8.6-1.5-0.9-1.8-1.4-2.3-2.3z"/>
		<path fill-rule="evenodd" class="s8" d="m87 92.7c-0.9 0.5-2.3 0.7-3.6 0.9-3.3 14 18.4 15.1 22.6 15.7-0.7-1.4-0.8-2-1-2.9-11-0.7-21.2-4.8-18-13.7z"/>
		<path fill-rule="evenodd" class="s6" d="m144.5 78.4c1.2 2.5 2.5 5.4 3.4 8.2 0.5-0.8 1-1.5 2.1-2.4-0.6-2.7-1.9-5.5-5.6-5.9z"/>
		<path fill-rule="evenodd" class="s2" d="m144.5 78.3c1.2 2.6 2.6 5.7 3.4 8.3l-2.9-0.4c-1.8-1.9-2.2-5.7-0.5-7.9z"/>
		<path fill-rule="evenodd" class="s6" d="m139.9 84.6c0.8-0.9 2.4-1.2 3.7-0.9 0.3 0.7 0.8 1.7 1.3 2.5l-5-1.6z"/>
		<path fill-rule="evenodd" class="s6" d="m153 81.5l-3 2.7 2 1c1.6-1.3 1.1-3.7 1-3.7z"/>
		<path fill-rule="evenodd" class="s6" d="m150 84.2c-0.5 0.1-2.2 2.4-2.1 2.4l7.6 3.8c0-1.3-1.2-4.5-5.5-6.2z"/>
		<path fill-rule="evenodd" class="s6" d="m147.9 86.6l-5.4 7c3.4-0.1 4.8-1.7 6-3.6l-0.6-3.4z"/>
		<path fill-rule="evenodd" class="s2" d="m153 81.5c-1.2-0.4-2.7-0.2-3.8 0.4 0.4 0.7 0.6 1.7 0.8 2.3z"/>
		<path fill-rule="evenodd" class="s2" d="m147.9 86.6l7.6 3.8c-1.4 1.2-5.8 0.1-7-0.4z"/>
		<path fill-rule="evenodd" class="s2" d="m147.9 86.6l-3-0.4c-3.3 1.3-2.7 7-2.4 7.4z"/>
		<path fill-rule="evenodd" class="s2" d="m144.9 86.2l-5-1.6c0.3 1.2 1.7 2.6 2.8 3 0.3-0.2 1.4-1.2 2.2-1.4z"/>
		<path fill-rule="evenodd" class="s2" d="m148.7 90c-1 1.4-1.3 1.8-2.3 2.4 1.8 8.2-9.9 10.2-16.6 11.1-0.1 1.2-0.5 2.1-0.8 3 1.2-0.1 25.2-0.6 19.7-16.5z"/>
		<path fill-rule="evenodd" class="s9" d="m148.8 90.1c3.2 11.8-7.3 15.2-19.7 16.3q-0.5 1.1-0.9 2.4c16.8-1.2 25.6-6.6 23.3-18-1-0.2-1.9-0.4-2.7-0.7z"/>
		<path fill-rule="evenodd" class="s1" d="m70.1 172.9c1.3 0.6 3 0.2 3.9-0.1 0.5 0.5-0.2 2.3 1.2 3.6-0.8 0.4-5.3-1-5.2-3.5z"/>
		<path fill-rule="evenodd" class="s1" d="m68.1 163.1c0.6 1.8 2.2 2 2.8 2.4 0 0.7-1.7 0.6-1.8 3.1-1.2-0.1-2.9-2.9-1-5.4z"/>
		<path fill-rule="evenodd" class="s1" d="m77.2 178c2.1 0.3 2.9-0.8 3.4-0.9 0.3 0.7 1.3 1.7 2.2 2.2-0.4 1.6-5.7 1.2-5.6-1.3z"/>
		<path fill-rule="evenodd" class="s1" d="m94.1 172c-0.1-0.3-2.7 0-3.1-0.4-0.3 0.4-0.4 1.7-1.4 2.1 0.6 1.1 4.8 0.8 4.5-1.8z"/>
		<path fill-rule="evenodd" class="s3" d="m98.9 149.6q0.6-0.1 1-0.2c-1.5 1.8-3.9 4.9-6.4 7.5-2.5 2.6-4.7 5.2-3.9 7.5-1.7-1.6-0.2-3.3 2.1-6.1 2.6-3 5.4-6.4 7.2-8.7zm-3.1 19c0 1.2-1.1 2.3-3.5 2.2 2.7-3-2.8-3.2-1.5-4.5 3.7-2.3 5.2 1.3 5 2.3zm-2.7 2.6c0.9 0.2 1.3-0.8 1.5-0.3 0.4 1-1.4 1.2-1.5 0.3zm-17.6-9.6c1 0 5.5 1.4 7.6 1.1-0.7 0.3-2.5 2.1-4.6 2.5-3.3-0.3-3.8-0.9-1.7-2 0.1-0.4-1.6 0.6-1.9 0.8-0.5 0.7-1.4 1.4-2.5 1.4-1.3 0.1-2.6-1.4-2.2-2.2 0.2-0.3 0.5-0.3 0.6-0.3 3.3 0.1 3.1-2.2 3.7-2.2 0.5 0.2 0.8 0.5 1 0.9zm-4.7 10.7q0 0 0 0.1 0-0.1 0-0.1zm-0.1 0.1c0.6 0.4 1.9 0.5 2.1 0.5-0.2 0.1-1.8 0.2-2.4-0.1q0.2-0.2 0.3-0.4zm15.6-9.5q0 0 0 0 0 0 0 0zm0 0c-1.4 1.4-2.7 5.3-10.3 7-0.2 0-0.3 0.2-0.3 0.2 0 1.1-1.2 2.2-2.3 2.3-1.2 0.1-2.9-0.6-2.9-1.7 0-0.9 1.7-1.2 3.1-1.2 0.4-0.2 0.8-0.3 0.9-0.9 7 0.7 9-4.3 11.8-5.7zm1.3 0.1q-0.1 0.2-0.1 0.3 0-0.2 0-0.3zm-0.1 0.2c-0.1 1.8 1 0.7 1.2 1.6-1.3 0.3-1.5 2.1-2.6 2.1-1.3 3-4.4 3.7-4.6 6 0.8 1.3-0.3 3.5-1.7 3.7-1.2 0.3-3.1-0.2-3.1-1.5 0.7 0.5 3-0.4 2.4-3.2 1 0 1.5 0.2 1.8 0.4 0.3-1.8 5.9-7 6.6-9.1zm-17.9-0.2c0.2 1.1 0.7 1.6 1.5 2.2-0.7-0.2-1.3-0.4-2-1 0.6 0.2 0.1-1.4 0.5-1.2zm14.6-3c1.3 0.2 3 0.4 5.3 0.2-3.3 1.2-4.9 0.8-5.3-0.2zm4.3-2.2c1.5 0 2.7-0.4 3.8-0.9-1.1 1.3-2.7 1.7-4.4 1.7 0.3-0.2 0.6-0.6 0.6-0.8zm2.3-3.7c1.5 0 3.2-0.2 4.3-0.7-1.2 1.3-3.8 1.9-5.2 1.7 0.3-0.3 0.8-0.7 0.9-0.9zm3.1-3.6c1.5 0 3.1-0.4 4.2-0.9-1.2 1.3-4.2 2.3-5.5 2.2 0.2-0.3 1-1 1.3-1.3zm4.3-3.9q0 0.1 0 0.2 0-0.1 0-0.2zm-0.1 0.2c0.2 0.8 0.2 1.7 0.3 2.5-0.5 0.2-1 0.3-1.4 0.5 0.5-0.7 1-1.6 1.1-3z"/>
		<path fill-rule="evenodd" class="s1" d="m141.1 170.5c1.4 0.3 3-0.6 3.8-0.6 0.3 0.7 0.5 1.5 1.9 2-0.9 1.1-4.6 1.4-5.7-1.5z"/>
		<path fill-rule="evenodd" class="s1" d="m156 176.5c-0.5 0.5-1 1-2 1.6 1.7 1.5 5.1-0.2 4.9-1.7-0.3-0.6-1.2 0.7-2.9 0.1z"/>
		<path fill-rule="evenodd" class="s1" d="m162.5 171.2c0 2-0.2 2.5-0.4 3.2 0.9 0.6 3.3-0.9 3.6-3.2-0.2-0.6-1.3 0.4-3.2 0z"/>
		<path fill-rule="evenodd" class="s1" d="m167 160.3c-0.7 0.2-0.3 2.6-1.1 3.3 0.7 0.4 1.1 1.2 1.6 2.1 1.6-1.2 1.5-4.6-0.5-5.4z"/>
		<path fill-rule="evenodd" class="s3" d="m142.8 170.2c0.8-0.2 1.6-0.6 1.9-0.4 0.4-1.6-0.6-0.7-1.9 0.4zm-1-1.2q0 0 0.1 0-0.1 0-0.1 0zm4-1.8c2.3 1.1 4.6-0.9 4.1-2.9 0 0-0.8 3.3-5.4 1.2-1-0.1-2.2 0.5-2.2 1.1 0.1 0.8 1.6 1.5-0.5 2.3 1.5 0 3.5 0.2 4-1.7zm8.3 0.1q0.1 0.1 0.2 0.2-0.1-0.1-0.1-0.2zm1.7 3.2c0.7-1 0.8-0.4 1 0 0.8 0.7 1.5 2.8-0.7 4.1 1 0.3 1.1 1.2 0 1.5 0 1 2.6-0.2 2.8 0.2 0.3-0.1 0.3-0.4 0.4-0.7 0.2-0.3 0.2-0.6 0-1.1 1.6-2.8-0.4-4.3-2.2-4.6-1.1-1.1-2-1.7-2.9-2.4 1.2 1.1 1.8 2.2 1.6 3zm-1.6-6.2c1.7 1.1 4.2 2 6.5 3.5 2.3-2.3 4 1.5 0.7 1.7 0.8 1.6 4.3 1.5 4.2 0.3 2.2-4.2-3.7-5.2-4.9-3.7-1.8-1-3.4-2.2-6-2.6 5.1 2.2 6 2.8 5.1 3-0.8 0.1-3.7-1.6-5.6-2.2zm1.5-3.2q0.1 0 0.3-0.1-0.1 0-0.2 0.1zm0.2-0.1c1.2-0.1 4 0.5 4.7 0.3 2.2-3 4.6 0.2 1.9 1.3q0 0.4-0.3 0.5c0.7 0.2 1.2 0.4 2.1-0.7 0 0.3 0 1 0.7 0.4 0.1 0.2 0.2 0.4 0 0.6 1.4 0.7 1.1-2.1 1.6-3.3 0-0.4-0.5-0.5-1-0.5-0.8-1.6-3.3-2.3-4.7 0.2-0.7 0.7-3.5 0.7-5 1.2zm-22.3-15.4q0 0 0.1 0zm-0.1 0.3c1.1 1 10.9 11.8 13.8 16.4-0.4-1-0.2-1.4-2-3.4 4.5 2.4 6.7 0.2 6.4-0.2-0.4 0-0.6 0.1-0.8 0-4.1 2-7.1-1.4-9-3.7 2.3 1.8 3.8 2.1 6.2 2.3 0.3-0.5 0.3-0.7 0.4-0.9-0.3 0-0.5-0.1-0.6-0.2-2.8 1.1-6.1-1-8.7-4.6 2.4 1.8 4.2 1.6 5.9 1.6 0.3-0.3 0.7-0.5 0.7-0.9-0.2 0-0.4-0.1-0.6-0.2-1.8 0.6-6.1 0.4-8.1-3.1 1.4 0.9 3 1.5 5 1 0.4-0.3 0.8-0.6 0.9-1-2.5 0.7-4.9 0.7-7.2-1.3 0.7 0 1.3-0.2 2-0.5-1.3 0.1-2.7 0-4.2-1.6z"/>
		<path fill-rule="evenodd" class="s6" d="m103.5 68.9c4.8 2.6 10.4-3.3 14.4-0.1 0.4 0 0.4-0.3 0.4-0.6-4.6-4.1-9.5 2-14.8 0.7z"/>
		<path fill-rule="evenodd" class="s6" d="m101.7 143.6l-0.4 0.4c-0.5 2.1-1.6 3.9-2.9 5.5 1.2 0.2 2.7-0.5 4-1.1-0.8-1.6-1-2.7-0.7-4.8z"/>
		<path fill-rule="evenodd" class="s3" d="m103.1 140.8c0.6 1.3 2-0.9 2.6-1.5-0.9 2.9-2.5 5.8 1.1 8.6-1.9 0.1-2.3 0.9-0.7 2.7-3.3-1.6-5.1-4.3-3-9.8z"/>
		<path fill-rule="evenodd" class="s10" d="m105.8 139.2c-1.1 5.7 0.7 8 2.6 8.5-0.7-6.2 1.8-10.7 5.2-14-0.2-5.8-1-8.4-1.7-12.5 0.1 1.9 1.5 7.2 0.5 10.9-0.9 3.8-3.7 7.5-6.6 7.1z"/>
		<path fill-rule="evenodd" class="s6" d="m94.4 145.1c3.2 0.2 5.9-0.8 8-3-1.1 2.9-3.8 4.2-7.8 3.8 1.4-0.2 1.5-0.5-0.2-0.8z"/>
		<path fill-rule="evenodd" class="s6" d="m94 141.8c-0.3 0.5-0.6 0.7-0.8 0.9 5.1 0.7 8-1.7 9.9-3.9 2.8 0.2 4.8-1.7 6.5-3.6-1.9 1.6-3.9 2.8-6.1 2.5-2.2 3.2-5.3 4.7-9.5 4z"/>
		<path fill-rule="evenodd" class="s6" d="m96 137.9c-0.4 0.8-0.5 0.8-0.7 1.1 1.7 0.3 4.1-0.4 8.2-3.8 4-0.1 5.7-2.7 6.9-3.8-2.2 1.8-4.4 2.8-6.5 2.8-2.2 2.2-4.5 4-7.9 3.7z"/>
		<path fill-rule="evenodd" class="s6" d="m97.3 134.7l-0.7 1.1c1.4-0.1 3.2 0 7.1-3.6 3-0.7 5.8-2.9 8.1-6.9-1.9 2.4-3.7 5-7.7 5.4-1 2.3-3.7 3.3-6.8 3.9z"/>
		<path fill-rule="evenodd" class="s6" d="m130.4 139.5c-0.3 2-0.7 3.9-1.7 5.4 0.2 0.6 0.1 1.3 0.1 2 1.4-1.4 2.4-5.5 1.6-7.4z"/>
		<path fill-rule="evenodd" class="s6" d="m132.5 140.4c1.5 4 0.1 9.2-4.7 10.1 1.5 0.7 6-1.4 6.6-7.5l3.7 4.2c0.2-1 0.3-2-0.4-3.4-2.9-0.6-3.8-1.7-5.2-3.4z"/>
		<path fill-rule="evenodd" class="s11" d="m134.8 141.7c2 0.9 5.5 2.2 8.9 0.7 0.6 0.2 1.1 0.3 1.6 0.4-1.2 1.2-4.5 1.5-7.5 1.1 4.1-0.5-2.2-1-3-2.2z"/>
		<path fill-rule="evenodd" class="s12" d="m127.9 134.7c1.5 1 3.1 1.6 4.9 1.6 1.4 2.6 5.4 3.4 7.6 3.2 0.1 0.4 0.3 0.7 0.6 1-1.9 0-4.3-0.6-7.9-3-1-0.3-4.5-1.9-5.2-2.8z"/>
		<path fill-rule="evenodd" class="s6" d="m127.2 130.8c1.4 1.2 3 1.8 4.7 2 1.7 1.9 3.8 2.8 6.5 3.2l0.5 1c-0.8 0-4.9-1.8-6.4-3.1-2.5-0.7-4.4-1.9-5.3-3z"/>
		<path fill-rule="evenodd" class="s6" d="m127.5 127.7c1.7 1.6 3.5 2.3 5.1 2.3 1.1 1.2 2.2 2.4 4.6 3.1q0.1 0.5 0.4 0.8c-1.8 0-4.3-2.5-4.6-2.9-2.5-0.4-5.2-1.6-5.5-3.3z"/>
		<path fill-rule="evenodd" class="s3" d="m113.1 120.4c0.5-0.3 0.7-0.5 1-0.8 0.4 0.6 1 0.7 1.6 0.9-1.1-0.1-1.3 0.5-0.7 1.4 0.2 0.4 0.6 6.2 0.7 9.7 0 3.2 0.5 5.3 1.1 6.7-2.5-2.2-1.1-15.1-3.7-17.9z"/>
		<path fill-rule="evenodd" class="s10" d="m117.3 120.6c1.4-0.1 2.8-0.2 4.5-1.2l0.6 0.7c-1.2 2.6-1.9 8.8-2.6 14.4 0.2-3.5 0.2-6.7 0.1-7.6-0.4-2-0.3-3.2-0.3-3.6 0.8-2.8-1.4-2.1-2.3-2.7z"/>
		<path fill-rule="evenodd" class="s6" d="m123 120.4l0.2 0.2c-2.4 5.2 0 17.2-5.2 23.2l-0.1-2.3c3.9-2.6 2.9-15.8 5.1-21.1z"/>
		<path fill-rule="evenodd" class="s6" d="m114.3 133.3c0 8.6 1.4 10.2-4.4 17.3 2.7-2.2 5.7-9.2 5.3-5.2 0.7-1.3 1.4-2.6 1.6-3.7-2.3-3.8-2.2-6-2.5-8.4z"/>
		<path fill-rule="evenodd" class="s6" d="m119.1 142.7l-1.1 1.3 0.3 11.4c0.1-4.7 0.4-9.1 0.8-12.7z"/>
		<path fill-rule="evenodd" class="s3" d="m121.6 134.5c-0.2 1.8-0.5 3.9-0.9 5 0.8 9.1 3.2 10 5.3 10.8-3.4-4.9-4.1-11.4-4.4-15.8z"/>
		<path fill-rule="evenodd" class="s13" d="m115.1 146.4c-1.1 2.4-0.7 7-3.7 10 2.5-1.3 3.4-4.4 3.5-6.8l0.2 2.5c-0.8 5.2-3.2 6.7-4.8 6.9 0.3 0 2.9 0.5 5.3-4.7 0 1.9-1.3 4-3 4.7 1.5 0 3-1.3 3.8-2.4-1.3-3.7-1.3-7-1.3-10.3z"/>
		<path fill-rule="evenodd" class="s6" d="m116.2 154.2c0.3 1.2 0.7 3 2 4.8l0.1 2.2c0.7-0.9 3.2-7.9 3.2-10.2 0.1-0.7 0.1-1.6 0.7-1q0.1 0 0.2 0c-0.8-0.5-1.6-3.1-2.1-3.9 0.4 2.7 0.7 6.6-2.1 12.4-0.8-1-1.4-2.6-2-4.3z"/>
		<path fill-rule="evenodd" class="s3" d="m128.2 158.6c-3 1.6-5.6-2.2-6.9-4.5l0.6-3.1c0 0 0.2-0.2 0.3-0.1 0.5 3.5 2.7 7.6 5.9 7.8z"/>
		<path fill-rule="evenodd" class="s14" d="m120.8 155.3l-0.3 1c1.1 2.6 2.5 3.4 4.3 4.1-3.5-1.7-3.8-3.4-4-5.1z"/>
		<path fill-rule="evenodd" class="s3" d="m117.4 159.7l0.9 1.6 0.8-1.5c-0.2 4.2-0.4 9.2-0.6 13.9-0.4-4.7-0.9-9.6-1.1-14z"/>
		<path fill-rule="evenodd" class="s6" d="m120.2 157.1c-0.1 0.3-0.2 0.5-0.3 0.6 3.1 11.6-0.6 17.7-1.4 18.6-2.1-3.8-2.1-7.6-2.6-10.8 0.3 2.9 0 6.7 2.5 11.3v1.9c3.1-3.7 4.9-9.1 2.6-20.5-0.4-0.3-0.6-0.7-0.8-1z"/>
		<path fill-rule="evenodd" class="s3" d="m117.4 177.7c0.2 0.4 0.5 0.8 1 1.2 0.7-0.7 0.8-1.1 1.1-1.5-0.6 3-0.8 6-1.2 9-0.3-3-0.5-6.2-0.9-8.8z"/>
		<path fill-rule="evenodd" class="s6" d="m122.8 178.2c-0.6-1.5-1.4-2.8-0.9-4.4-0.1-0.5-0.3-0.5-0.5-0.7-0.2 0.9-0.5 1.5-0.7 2.1 1.1 7-0.5 10.8-2.5 14-3.1-4.3-2.5-8.8-2.6-12.8-0.9 8 1 11.5 2.6 13.3v1.9c4.5-6.6 4.1-12.7 3.1-15.6 0.5 0.7 0.9 1.5 1.6 2.2z"/>
		<path fill-rule="evenodd" class="s15" d="m105.8 158.1c0.6 5.7 8 4 10.9-0.4l-0.3-0.7c-2.7 3.5-8.6 6.7-10.6 1.1z"/>
		<path fill-rule="evenodd" class="s3" d="m116.1 160.2c-2.7 5.6-6 9.6-10.4 9.9 3 0.3 6.2-2.2 7.3-3.2 0.7-1.3 1.6-1.8 0.7 0-0.3 0.6-0.7 1-1.3 1.5 0.8-0.2 2.2-2.5 2.6-2.7 0.1-2.5 0.6-3.8 1.1-5.5z"/>
		<path fill-rule="evenodd" class="s16" d="m115 165.8c-0.1 0.6-0.2 1.3-0.2 1.8-4.2 4.3-7.8 5.7-11.7 4.8 3.2 0.1 6.9 0.4 11.9-6.6z"/>
		<path fill-rule="evenodd" class="s3" d="m101.2 168.3q-1.3-3.5 1.1-5.6c-3.3-0.1-6.9 6.1-0.8 9.2-3.1-1.8-3.2-5.5-2.2-6.7 0.7-1.1 1.7-1.4 0.9-0.2-0.4 1.9 0.4 2.9 1 3.3z"/>
		<path fill-rule="evenodd" class="s3" d="m121.1 158.5c0.7 1 1.5 1.9 2.4 2.5-0.2 5.7 6 9.4 10.2 7.8-2.4 1.8-10.4 1.3-12.6-10.3z"/>
		<path fill-rule="evenodd" class="s17" d="m122.1 165.7v0.6c2.9 4.9 7.8 5 9.3 4.9-4.6-0.1-7.5-2.2-9.3-5.5z"/>
		<path fill-rule="evenodd" class="s18" d="m134.8 162.1c3.8 2.7 2.8 6.9-1.4 8.6 3.2-2.1 4.8-4.8 1.4-8.6z"/>
		<path fill-rule="evenodd" class="s6" d="m130.2 171.9c3.7 0.6 9.9-2.3 6.6-8.7 3.3 4-0.4 11-6.6 8.7z"/>
		<path fill-rule="evenodd" class="s19" d="m122.1 169.5c0 0.4-0.1 0.6-0.2 1.2 3.2 6.3 4.9 6.7 7 8.3-3.9-2.8-5.8-6.1-6.8-9.5z"/>
		<path fill-rule="evenodd" class="s20" d="m127.2 181.3c0.7 0.3 1.2 0.1 1.8 0.3 4.8 1.6 10.7-1.2 8.9-7 3.2 3-2.6 11.8-10.6 6.7z"/>
		<path fill-rule="evenodd" class="s16" d="m135.7 172.9c3.6 3.6-0.1 8.6-5 6.9 5.2 0.7 7.1-3.6 5-6.9z"/>
		<path fill-rule="evenodd" class="s3" d="m100.3 172.8c-5 3.3-2.2 7.3 0.1 8.3-0.9-0.6-1.8-2.9 0.9-1.7 0.9 0.4 1.7 0.5 2.5 0.4-5.1-1.7-4-4.4-3.5-7z"/>
		<path fill-rule="evenodd" class="s3" d="m114.9 168.3c0.1 1.7 0.3 3 0.5 4.1-1.5 3.2-3.5 5.3-5.5 6.9 2.4-2.3 4.2-4.6 4.9-6.9-4 6.3-6.8 7.3-9.7 7.4 3.6-0.8 8.9-3.9 9.8-11.5z"/>
		<path fill-rule="evenodd" class="s21" d="m115.5 172.7c0.1 0.4 0.2 1 0.5 1.4-5.1 9.8-11.9 9.6-14.3 8.7 4.4 0.5 2.9-0.3 1.5-0.6 5.2 0.2 9.8-3.4 12.3-9.5z"/>
		<path fill-rule="evenodd" class="s22" d="m111.3 118.4c0.6-0.4 1-1 1.3-1.5 0.2 0.3 0.4 0.5 0.8 0.7-1 0.4-1.3 1.8-1.9 1.8 0-0.4-0.1-0.7-0.2-1z"/>
		<path fill-rule="evenodd" class="s6" d="m113.4 117.7c1.5 0.5 3 0.4 4.8-0.8q0.2 0.2 0.6 0.5c-1.8 1.3-4.6 0.9-5.4 0.3z"/>
		<path fill-rule="evenodd" class="s6" d="m119.6 117.6c1 0.2 2.1 0.5 3.4-0.3 0.2 0.3 0.4 0.5 0.5 0.7-0.4 0.4-2.6 0.3-3.9-0.4z"/>
		<path fill-rule="evenodd" class="s6" d="m123.9 114.9c0.3 0.2 0.9 0.8 1.5 1.1q-0.7 0.9-1.3 2.1c-1.9-1.7-0.6-3.4-0.2-3.2z"/>
		<path fill-rule="evenodd" class="s6" d="m110 115.4c0.3 0.4 0.4 0.6 0.6 0.9 1.2-0.8 1.6-1.7 2-2.6-0.2-0.1-0.4-0.2-0.5-0.5-0.9 1.7-1.5 1.9-2.1 2.2z"/>
		<path fill-rule="evenodd" class="s6" d="m112.6 113.8l-0.1 0.2c2.3 1.3 6 2.3 10.8-0.1l-0.5-0.9c-3.1 2.4-6.5 2.8-10.2 0.8z"/>
		<path fill-rule="evenodd" class="s6" d="m123.7 113.7c1.3-0.2 0.8-1.9 2.1-2.4 2.1 3.1 5.6 2.3 7-0.1l0.2 1.8c-1.3 0.8-3.1 2.3-6.1 0.9-0.3 0.5-0.3 1.3-0.3 2.2-1.4-0.4-2.4-1.2-2.9-2.4z"/>
		<path fill-rule="evenodd" class="s6" d="m127.8 108c0.6 1 0 3.3 0.1 4.1-1-0.2-1.6-1-2.1-1.6q0.2 0 0.2-0.2c0.1-0.6 1.3-0.9 1.8-2.3z"/>
		<path fill-rule="evenodd" class="s16" d="m118.8 110.8l-0.1 0.2c1.6 0.6 4.8 0.8 7.2-0.7l-0.4-0.8c-1.7 1.4-3.8 2.1-6.7 1.3z"/>
		<path fill-rule="evenodd" class="s6" d="m117.9 110.3c0.3 0.2 0.6 0.4 0.8 0.5-2.2 2-5.3 1.5-8.4-0.2 0-0.1 0-0.2 0-0.3 3.6 2 6.1 1.4 7.6 0z"/>
		<path fill-rule="evenodd" class="s21" d="m110.1 110.3c0.7 1.2-1.2 1.6-1.2 3.4l-0.8-0.9c0-1.2 1.5-1 1.9-2.5z"/>
		<path fill-rule="evenodd" class="s21" d="m108 112.4l-1.5-2.3c-1.6-2 3.6-2.4 3-6.3 0.3 0.3 0.7 0.6 1 0.8-0.2 3.1-2.9 3-2.9 5.1-0.4-0.1-0.6-0.4-0.6-0.9-0.2 0.1-0.2 0.1-0.4 0.3-0.6 0.8 0.4 1.3 1.3 3.2z"/>
		<path fill-rule="evenodd" class="s6" d="m109.4 108.2c1.5 0.2 3 0 4.4-1.3 0.2 0.2 0.4 0.5 0.8 0.7-1.8 1.1-4.3 1.2-5.2 0.6z"/>
		<path fill-rule="evenodd" class="s22" d="m114.6 107.6l-0.1 0.2c2.5 1.4 6 1.4 7.8 0.1-0.2-0.1-0.4-0.3-0.7-0.5-2.2 1.6-5.6 1.1-7 0.3z"/>
		<path fill-rule="evenodd" class="s15" d="m122.4 107.9l-0.1 0.2c1.7 0.7 4 0.6 5.5-0.2-0.1-0.3-0.2-0.6-0.4-0.8-1.7 1.3-3.4 1.2-5 0.8z"/>
		<path fill-rule="evenodd" class="s15" d="m110.8 104.8c2.6 1.3 5.5 0.5 7-0.9 0.3 0.3 0.6 0.5 0.8 0.7-1.9 1.7-6.9 1.5-7.8 0.2z"/>
		<path fill-rule="evenodd" class="s6" d="m118.7 104.6l-0.1 0.1c2.3 1.7 5.9 0.7 6.9 0-0.1-0.4-0.3-0.7-0.4-1-1.6 1.5-4.1 1.9-6.4 0.9z"/>
		<path fill-rule="evenodd" class="s6" d="m104.1 101.3l0.4 0.2c0.3-0.6 0.7-0.7 0.8-0.4 0.1 0.2-0.1 0.5 0.3 0.9 1.2-1 4-1.7 4.3-3.1 0.5 1.5 2.3 1.5 3.7 4-0.3-1.9-2.3-2.4-3.1-3.7-0.8-1.3-0.3-2.8 0.3-4.9-1.3 1.8-0.3 4.3-2.4 5.4-1.4 0.8-4 0.6-4.3 1.6z"/>
		<path fill-rule="evenodd" class="s6" d="m115.5 92.3v1.7c-2.2 0.9-0.5 6.5-1.4 7.7-0.3-4.7-2.3-6.5 1.4-9.3z"/>
		<path fill-rule="evenodd" class="s6" d="m117.3 96.4h0.2c0.3 3.1 3.6 3.4 4.2 6.5-0.7-2.1-2.6-2.8-3.6-3.9-0.6 2.4-3.5 3.1-4.2 4.5-0.2-1.1 4-2.7 3.4-7.1z"/>
		<path fill-rule="evenodd" class="s6" d="m122.2 93.4c-1.7 2.7 1.7 4.4-0.1 9 0.9-5.9-3.2-5.5-0.6-9.8 0.9 0.9 4.1 1.8 4.3 3.3-1-1.5-2.6-1.6-3.6-2.6v0.1z"/>
		<path fill-rule="evenodd" class="s6" d="m125.8 96.3c0.3 1.1 0.6 1.5 0.9 2.2-1 3-4.7 4.1-4.9 5.2-0.6-1.4 4-2.2 4-7.4z"/>
		<path fill-rule="evenodd" class="s6" d="m129.4 93.2c-0.7-0.2-1.2 0-1.9-0.7 0.2 1 0 1.6-0.1 2.2 1.2 0.7 2 7.2 2.5 7.5-0.3-2.8-0.2-6.5-1.9-8.5l0.1-0.4c0.5 0.2 0.9 0.2 1.3-0.1z"/>
		<path fill-rule="evenodd" class="s6" d="m106.5 98.3c1.2-1.8 2.2-3.8 3.7-4.9 1.5-1 2.5-0.6 5.5-3.1l1.1-3c-2.6 3.7-5.6 6.3-9.9 5.4 0.3 0.2 0.4 0.5 2.2 0.6-0.9 0.9-1.7 2.9-2.6 5z"/>
		<path fill-rule="evenodd" class="s3" d="m105.9 90c2.3 1.2 5.1 1.8 9.8-5.1 1.1-0.3 2-0.8 3-1.8-3.1 7.4-11.8 11.9-12.8 6.9z"/>
		<path fill-rule="evenodd" class="s4" d="m116.1 94.3c3.6-13.8 14.6-22 5.1-29.2 6.9 11.9-4.1 17-5.1 29.2z"/>
		<path fill-rule="evenodd" class="s3" d="m113.4 82.4c0.2 3.6 4.8 0.9 5.9-1.4-1.9 1.2-3.7 2.4-5.9 1.4z"/>
		<path fill-rule="evenodd" class="s3" d="m120.3 76.8c0.4-0.6 0.5 0 1.2 0.1-1.7 3.5-4.5 4.5-6 4.5 2-1.1 3.9-2.3 4.8-4.6z"/>
		<path fill-rule="evenodd" class="s6" d="m119.2 71l0.3 0.4c0.5 0 1 0 1.5-0.5 0 0.4-0.1 0.6-0.4 0.7 0.3 2.5 0 4-0.3 5.1 0.4-0.4 0.8 0.2 1.2 0.2 0.6-1 1.7-4.5 0-7.4 0 0.8-0.9 1.7-2.3 1.5z"/>
		<path fill-rule="evenodd" class="s6" d="m113.2 69.9c2.8-1.1 4.4 0.9 5.6 1 2 2.9-0.1 5.4-1.4 7 0.9-1.5 2.2-7.5-4.1-8z"/>
		<path fill-rule="evenodd" class="s10" d="m115.7 95.9c3 1.4 4.4-2 5.8-3.3-0.7-1.7-0.5-3-0.5-4.4-2.6 1.4-2.6 6.6-5.3 7.7z"/>
		<path fill-rule="evenodd" class="s10" d="m126 71.7c-0.3 0.1-0.3 1.1-0.7 1-0.2 7-6.5 10.8-7.9 20.8 0.9-1.1 1.5-5.3 3.9-9.2 2.5-4 4.9-6.3 4.6-12.6z"/>
		<path fill-rule="evenodd" class="s3" d="m122.7 84.8c-2.5 6.7 2.5 6.8 2.9 9-5.1-1.8-5.5-5.5-2.9-9z"/>
		<path fill-rule="evenodd" class="s3" d="m123.7 65.4c8.3 5.4 1.1 16.3-2 19.3 1.2-2.8 8.7-10.4 2-19.3z"/>
		<path fill-rule="evenodd" class="s10" d="m126.5 62.4c0.8 1.5 2.2 4 0.2 3.5 3.5 7.9-0.4 11.9-2.3 16.3-4.1 10.7 2.7 6.5 1.9 13.9 2.3-2.7-0.7-6.6-0.6-8-0.1-1.9 1.1-6.1 1.5-8.7 0.5 1.4 1.3 2.2 2.2 2.8-1.6-5.6 3.4-16.5-2.9-19.8z"/>
		<path fill-rule="evenodd" class="s10" d="m127.3 80.8c0.4 0.6 0.7 1.2 1.3 1.6 0.4 2.2-2.7 9.1 1.9 9.6-3.7 1.9-5.8-3.5-3.2-11.1z"/>
		<path fill-rule="evenodd" class="s6" d="m125.3 60.2c0.8 0.1 2.6 1.4 4.4 0 1.2 1.6-1 3-3.4 1.8-0.6-0.4 1.4-0.5-1-1.8z"/>
		<path fill-rule="evenodd" class="s3" d="m111.4 60.8c0.7 0.8 1.4 1.2 2 3.1q0.8 0 1.5 0.2c-0.8-1.3-1.8-2.5-3.5-3.3z"/>
		<path fill-rule="evenodd" class="s6" d="m119 58.6c7.2 1.9 6.5-1.5 7.8-2 1.3 2.1-2.2 4.8-7.8 2z"/>
		<path fill-rule="evenodd" class="s21" d="m110.1 60c-0.4-0.2-0.8-0.1-1-0.1 0.6-5.2 6.3-1.9 9.5 0-4-1.8-8.9-4.2-8.5 0z"/>
		<path fill-rule="evenodd" class="s4" d="m110.1 60c-0.3-5.9 8.2 0.8 12.1 1-2.7 0.3-11.7-5.7-11.7-1l-0.4-0.1z"/>
		<path fill-rule="evenodd" class="s6" d="m110.6 60.1l0.8 0.3c0-0.5 0.2-1.1 0.5-1.1 1.6-0.4 0.1 0.5 0.4 0.8 0.3 0.2 0.6 0.4 1 0.6q0-0.3 0-0.8c0-1.4 3.9 0.8 6.6 1.7 0.3 0.8-1.5 1.8-2.9 1.5 1.3 1 4 0.5 5.2-1.2 2.1 0.2 2.6-0.1 3-0.7-1.6-0.3-2.3 0.5-6.3-0.6-3.7-1.1-8.2-4.2-8.3-0.5z"/>
		<path fill-rule="evenodd" class="s23" d="m114 59.5c0.4-0.1 0.8 0.1 1.2 0.3-0.8 1.2 0.4 2.4 1.1 2.2 0.2 0.2 0.5 0.4 1.2 0.6-1.1 0.2-4.7-0.9-3.5-3.2z"/>
		<path fill-rule="evenodd" class="s1" d="m104.5 66.8c-4.1-7.8 7.6-9.2 8.8-2.7 0 0 2.9 0.1 5.4 1.5 5 3.6 1.9 5.6 1 5.5-2.3 0-2.8-2.2-6.2-1.4-0.8 0.3-0.8 0.7-1.2 0.7-2-0.5 1.7-4.5 5.7-1.6 0.3 0.3 1.1-0.2 0.5-1-2.7-2.7-7.3-1.2-8.3-1-1.3-2.1-4.2-1.6-5.7 0z"/>
		<path fill-rule="evenodd" class="s24" d="m116 60.4c0.5 0.4 3.1 0.8 3.2 1.1-0.8 1.9-3.5 1.3-3.2-1.1z"/>
		<path fill-rule="evenodd" class="s6" d="m133.2 112.9c0 0-0.1 0.1 0 0.1 0.6 0.4 1.4 0.5 2.3 0.6l2.1 12.4c-0.2-3.2-0.4-6.6-0.5-9.6-0.2-0.6-0.4-1.7-0.5-2.8 0.2 0 0.5-0.1 0.8-0.2 1.3 7.9 4.6 9.4 5.2 10.1-1.7-1.8-4.1-4.4-4.8-10.3 1.2-0.6 1.7-1.4 2-1.5 0.2-0.3 0.1-1.1-0.1-1.5-1.1 1.1-2.2 2.4-4.5 2.2-0.2 0 0 0.2 0 0.2 0.9 1.2-0.9 0.5-1.9 0.3h-0.1z"/>
		<path fill-rule="evenodd" class="s10" d="m137.7 127.3l0.1 1.9c1.2-0.7 2.3-1 3.8-4.6 0.7 6.4 0.7 12.6 4.4 13.9-1.9-4.4-1.9-9.2-2-13.8-0.2 0.3-0.5 0.5-0.7 0.7-1.5-0.9-2-1.6-2.8-2.4-0.5 1.6-0.8 3.2-2.8 4.3z"/>
		<path fill-rule="evenodd" class="s3" d="m140.4 111.9c0.5 0.2 1.1 0.3 1.7 0.3l0.7 9.2z"/>
		<path fill-rule="evenodd" class="s6" d="m144.9 111.3l0.3-0.2c0.7 1.7 1.8 3.1 3.2 4.3l4 26.8-5.7-26.9c0 4.7-1.3 7.7-3.4 9.8l-0.2-1.7c2.2-3 3.5-6.6 1.8-12.1z"/>
		<path fill-rule="evenodd" class="s15" d="m150.9 117.5c0.7 0.3 1.4 0.6 2.1 0.8 2.4 8.1 3.4 24.1 0.2 29.9l-0.3-2.2c-5.6-4.3-7-16.1-8.1-22.8l0.2-0.3c1.1 6 2.3 17.7 7.8 22.5 1-3.2 3.1-12.1-0.7-27-0.3-0.3-0.8-0.6-1.2-0.9z"/>
		<path fill-rule="evenodd" class="s3" d="m147.6 108.8c0.4 0 0.7 0 1.5-0.2l5.3 7.9z"/>
		<path fill-rule="evenodd" class="s3" d="m153.2 118.4c0.8 0.3 1.8 0.5 2.8 0.7 0 0.3 7.7 20.1 13.1 21.7-6.9 1.3-10.3-10.8-14.8-17.9q-0.5-2.3-1.1-4.5z"/>
		<path fill-rule="evenodd" class="s6" d="m152.3 106.5c0 0-0.1 0.2-0.2 0.2 3.1 4.9 3.2 7.9 2.8 10.5l1.2 1.7c0.7-3.7 0-6.5-0.9-9.1l15.7 22.8-13.9-22.2 3 0.4c-2.5-0.8-4.9-1-7.7-4.3z"/>
		<path fill-rule="evenodd" class="s6" d="m161.8 110.9c0.6 0 1.1 0 1.5-0.2 3.1 5.1 11.1 14.3 10.2 26.8l-1-1.9c-7.4-1.7-12.6-11.1-15.2-14.9 4.3 5.8 9.2 13.2 15 14.4 0.5-9.3-6.5-18.5-10.5-24.2z"/>
		<path fill-rule="evenodd" class="s3" d="m163.4 110.7l0.3 0.5c6.8 3.6 14.5 10.9 19.3 5.5-4.9 2-12.9-5-18.2-7.6l0.3 1.1c-0.6 0.3-1.1 0.4-1.7 0.5z"/>
		<path fill-rule="evenodd" class="s3" d="m153.7 102.1c0 0.3 0 0.4-0.1 0.5l8.6 5.3-7.8-6.2c-0.2 0.2-0.5 0.3-0.7 0.4z"/>
		<path fill-rule="evenodd" class="s6" d="m164.3 107.1c0.2 0.6 0.3 1.2 0.4 1.8 10.3 4.7 16.4 3.5 19.3 1.7l-1.5-0.6c-4.5 3-15.4-1-18.2-2.9z"/>
		<path fill-rule="evenodd" class="s6" d="m156.2 99.1c0 0-0.1 0.3-0.1 0.4 4.3 2.3 7.3 6.5 7.2 9.5l1.5 1.2c-0.6-4.9-2.3-6.7-4.1-8.5l20.8 8.1-20.2-9.5c2.7-0.6 5.5-0.7 7.8-3.5l4.8-0.2c4-0.6 8.6-3 9.1-5.2l-1.5 0.2c-2 4.3-9.7 4.2-13.6 4.3-1.9 3.5-7.8 3.7-11.8 3.2z"/>
		<path fill-rule="evenodd" class="s3" d="m167.8 98.1c-0.6 0.4-1.1 0.7-1.6 1q3.2 0.7 6 1.7c5.4 0.6 10.7-0.2 10.9-4.8-2.2 3.7-8.7 3-15.3 2.1z"/>
		<path fill-rule="evenodd" class="s3" d="m156.1 94.9c0.2 0.5 0.2 0.9 0.3 1.3l11-0.3c-3.8-0.3-7.6-0.6-11.3-1z"/>
		<path fill-rule="evenodd" class="s6" d="m161.4 90.5c2.2 1 4.3 2.2 5.9 3.5l-1.4-1.4c4.7-0.4 9.4-0.7 14.8-1l-16.8-0.1z"/>
		<path fill-rule="evenodd" class="s6" d="m157.9 90.9c-0.1 0.3-0.2 0.5-0.3 0.7l3.7-1.1c5.5-3.9 5.7-5.9 6.4-8l8.4-5.2-9.5 4.7c-5.2 0-6.5 0.8-8.1 1.2 4.4-1 7.3-1.1 8.9-0.6l-1 0.6c-1.3 4.4-6.3 7-8.6 7.7z"/>
		<path fill-rule="evenodd" class="s3" d="m157.8 87.3c0.2 0.3 0.2 0.6 0.3 1 2.6-1.5 5.1-3 7.5-4.6-2.6 1.3-5.2 2.6-7.8 3.6z"/>
		<path fill-rule="evenodd" class="s3" d="m164.9 87.9c3-0.3 6-0.4 9.1-0.1 0.7-0.4 8.2-2.6 6.4-6.5-2.2 4.3-10.2 5.8-10.8 6.1-1.3 0.2-4.4 0.3-4.7 0.5z"/>
		<path fill-rule="evenodd" class="s25" d="m177.3 76.7l1.6-0.7c0.2 0.3-1 2.6-3.1 4.9-2.8 3.1-4.4 4.5-9.7 5.4q0.2-0.2 0.3-0.4c4.1-1.1 9.7-5.1 10.9-9.2z"/>
		<path fill-rule="evenodd" class="s3" d="m159.7 81l-0.5 0.8c4.7-3.4 8.4-5.5 11.3-6.4 2.8-3 3.4-5.9 2.3-7.6 0.1 5.5-8.6 9.6-13.2 13.2z"/>
		<path fill-rule="evenodd" class="s21" d="m156.6 83.2l-0.1 1.4c3.5-2.6 5.3-7.2 4.8-11.1l-1.2 1.3-5.4 4.4c0.2 0.2 0.6 0.5 0.8 0.8l4.6-5.1c0.3 4.2-2.5 7.4-3.5 8.3z"/>
		<path fill-rule="evenodd" class="s3" d="m161.4 76.6l-0.3 1.2c2.2-1.4 3.8-2.9 5.2-4.4 3.9-4.6 4.4-8.5 4.7-10.4l-1.6 1.3c0.3 5.8-6.2 11.3-7.9 12.3z"/>
		<path fill-rule="evenodd" class="s6" d="m159.5 73.4c0.6 0 1.3-0.1 1.9 0l7.7-8.8z"/>
		<path fill-rule="evenodd" class="s6" d="m153.9 68.4l-1 1.1c0.4 2.2 0.4 5.1-2.8 8.6l0.1 0.2 0.2-0.1c2.6-3.1 5.2-4 7.9-4.7-1.6 0.4-3.1 0.6-4.9 1.5 1.2-3.6 0.7-5.4 0.5-6.5z"/>
		<path fill-rule="evenodd" class="s3" d="m154.2 71.3v0.7c2.7-1.7 5.5-3.7 8-6.5 1.4-1.9 3.3-4.5 3.6-8.1l-1.5 1.1c-0.3 6-8 11.1-10.1 12.8z"/>
		<path fill-rule="evenodd" class="s3" d="m148 70.5c2.2-1 4.4-1.9 5.9-2.2l9.6-8.9c-2.6 1.9-8 6.5-10.5 8.5-0.9 0.6-1.8 0.6-5 2.6z"/>
		<path fill-rule="evenodd" class="s4" d="m164 58.6c-24.3 4.2-37.8 33.6-21.5 30.9l-1-0.2c-3.2 0.3-4.1-2.5-3.7-4.3 0.2-2 2.1-3.1 2.6-3.3-0.1-1.7-0.2-3.4 1.5-4.8 0.7-1.7 1.5-2.5 2.3-3.4 2.5-9.2 15.4-13.9 19.8-14.9z"/>
		<path fill-rule="evenodd" class="s6" d="m152.7 69.4c-3.1 0.5-7.2 3.9-7.9 5.3 0 0.1 0 0.3-1 0.9v0.2c1.1-0.5 3.9 0 1.2 0.6 1.8 0 3.3 0.6 4.3 3 5.6-0.9 7.1 3.2 5.6 6 3.8 3.2 1.4 7.3-0.6 8.1 1.2 2.7 1.8 6.4-1.9 7.8 0 2.4-0.4 6.3-6.2 6.2-0.7 1.7-2.7 4.5-6.2 3 0 0 0 0.1 0 0.2-0.1 0.2 1.4 0.6 1.4 0.5 1.2 0.1 1.4 0.9-0.1 0.6q-0.8-0.2-1.3-0.5c0 0 0 0.3-0.1 0.4 3.8 1.3 6-1 7.1-2.9 4.6-0.3 6.4-2.8 6.6-6.7 3.7-2.3 3.2-5.8 2.1-8.2 3.3-2.4 3-6.7 0.6-8.8 1.7-5.7-3.4-7.2-6.1-6.8-0.9-1.5-1.5-1.7-2.1-2.1l4.8-6.5-5.8 6c-0.6-0.2-1.4-0.3-2.3-0.3 1.2-3.1 6-5.4 8-6z"/>
		<path fill-rule="evenodd" class="s26" d="m108.3 62.7c0.8 1 2-0.4 4 1.8l0.3-0.1c-0.5-1.9-1.7-3-3.6-3.2 0.8 0.7 0.2 0.7 0.2 1.2 0 0.4 0 0.9-0.9 0.3z"/>
		<path fill-rule="evenodd" class="s26" d="m105.1 66c1.1-0.6 3.5-1.5 5.1 0.6 4.8-1.4 8.2-0.1 8.6 1.8 0.3-0.5-1-3.4-6.5-2.9-4.7-3.3-7.3-0.3-7.2 0.5z"/>
		<path fill-rule="evenodd" class="s27" d="m112.4 70.1c-0.8 0 1.8-3.1 6.1-0.2 1.5 0.6 2.2-0.1 1.9-1.4-0.1-0.9-0.6-1.5-0.9-2.2 2.2 1.6 2.4 3.6 1 4.4-2.3 1.1-3.9-2.8-8.1-0.6z"/>
		<path fill-rule="evenodd" class="s6" d="m108.9 113.9l1 1.3-0.3-0.1c-2.7 1.2-4.1 0.7-5.4 0.1l-0.1-0.1c-2.8 0.6-4.5-0.2-6-1.2 0.1 0.8 0.7 1.4 1.4 2l-2.9 12.6 1.4-11.9c-1.6 4.7-3.8 6.8-6.8 8.1l0.2-1.3c2.8-1.3 5.1-4 6.2-9.7-1.1 0.1-2.2 0.3-3.3 0l-2.7 9.3 1.3-9.6c-1.2-0.8-2.2-1.8-3.2-2.8v-0.2c0.3 0.4 0.6-0.8 0.6-1.2 2.1 3.3 4.9 3.9 7.8 3 0 0.3 0 0.6-0.2 1h0.2c0 0 0.1-0.3 0.2-0.6q-0.1-0.1-0.1-0.2v-0.1c1.5 2.8 5.4 1.4 5.9 1.7-0.1 0.1 0 0.6 0.1 0.9l0.1 0.1c0 0 0-0.4 0-0.7l-0.2-0.2 0.1 0.1c1.3 1 3.2 0.9 4.7-0.4z"/>
		<path fill-rule="evenodd" class="s28" d="m100 116.1c0.8 0.4 1.8 0.8 2.8 1-0.5 5.9-3.5 12.7-6.7 14.7l0.1-1.7c-0.8-1.3-1.4-3.3-1.5-7.6l0.2-0.2c0.1 2.9 0.4 5.6 1.4 7.7 1.5-1.1 4.8-4.9 5.3-12.2 0-0.4-0.1-0.7-0.4-0.8-0.6-0.3-0.9-0.6-1.3-0.8z"/>
		<path fill-rule="evenodd" class="s6" d="m88.5 141.2c3.4 0.9 5.7-5.7 7-10.1-0.6-1.2-1.5-2.5-1.5-7.8l-0.3 0.2c-0.4 7-0.5 14.6-5.2 17.7z"/>
		<path fill-rule="evenodd" class="s29" d="m90.1 111.1l0.2 0.2c-0.2 1.3-2 6 0.2 10.6-1.2-1.8-2.2-4.6-0.3-10.8z"/>
		<path fill-rule="evenodd" class="s6" d="m88.3 114l-0.7 1-7.2 29.5 7.7-24.5c0.4 1.4 0.8 2.9 2.9 5.2-2.9 10-7.4 19-11.2 21.3l0.4-1.2c-1.7-4.9-0.4-15.4 2.4-25.9-1.8 5.8-5.4 18.4-3.1 27.5l-0.7 2.3c7.6-5.2 12-18.3 13.7-24.9-0.4 0.3-0.8 0.5-1.3 0.7-2.4-2.2-3.5-5.6-2.9-11z"/>
		<path fill-rule="evenodd" class="s6" d="m83.7 105.7c0.2 0.9 1.3 2 1.8 2.9 0.3 0.5 0.6 0.7 1 0.1l0.3-0.5c0.8 0.9 1.9 1.4 3.5 1.1l-1.9 4.4c-2.3 4.3-5.2 5.2-8.1 6.3l0.9-1.7c3.8-0.4 6.5-4.2 7.9-7.6-0.9-0.2-1.8-0.6-2.9-1.3l-4.5 7.8 3-7.9c0.6-1.2-1-2.2-1-3.6z"/>
		<path fill-rule="evenodd" class="s10" d="m81.9 119.4c-0.5 0.3-1.1 0.5-1.7 0.6-4.9 11-7.6 20.8-16.4 23.9 7.9 1.5 13.2-11.2 15.2-15.1 1.4-3.4 2.3-6.6 2.9-9.4z"/>
		<path fill-rule="evenodd" class="s30" d="m83 106c-0.9 1.1-3.9 5.3-2 12.4l0.2-0.2c-1.4-4.7 0-9.9 1.8-12.2z"/>
		<path fill-rule="evenodd" class="s6" d="m79.7 112.3c-0.2 1.8-0.1 3.3 0 4.7-6 10.6-15.9 20.3-21.6 20.7 7.3-9.8 14.6-19.9 21.9-29.9 0.4-0.2 0.9-0.5 1.4-0.8-0.8 1.1-1.1 2-1.3 2.9l-20.1 25.7c6.8-0.5 17.8-16.4 19.4-20.7 0-1.3 0.2-2 0.4-2.6z"/>
		<path fill-rule="evenodd" class="s25" d="m59.3 136l0.4-0.6c-0.5-9.9 10.7-21.7 13.7-25.4-0.5 1-14.8 13.6-14.1 26z"/>
		<path fill-rule="evenodd" class="s3" d="m51.1 118.2c1.7 2.7 4.5 4.3 15.2-2.2 2.1-2.3 4.2-4.7 6.3-6.7h-0.5c-3.6 1.4-12.8 11.1-21 8.9z"/>
		<path fill-rule="evenodd" class="s6" d="m78.7 99.5c-1.3 0.6-6.6 2.5-7.1 8.4l-1.1 0.6c7.1 2.4 12.6-3 13.7-4-1.2-0.7-2.3-1.3-3.3-3l-0.9 0.5c-2.3 1.9-5.1 3.8-7.8 5.6l8.3-4.3c0.5 0.5 1.1 1.1 2.2 1.8-5 3.5-9 3.3-10.9 2.8 0.3-3.4 2.3-6.3 6.9-8.4z"/>
		<path fill-rule="evenodd" class="s10" d="m70.7 106.6c-0.2 0.7-0.4 1.5-0.3 2-2.3 0.9-4.8 1.6-7.7 2.1-0.1 0-0.9 0.3-1.2-0.2-0.3-0.3-0.7-0.3-1-0.3-0.1-0.1-0.5-0.1-0.5-0.2 6.9-1.2 10.1-2.9 10.7-3.4z"/>
		<path fill-rule="evenodd" class="s14" d="m62.9 101.5c-1.8 0.9-9.4 4.9-10.7 8.8 3.7 1.1 6.5 0.1 8.2 0-0.1-0.1-0.4-0.1-0.5-0.3-2.7 0.4-6 0.6-7 0.1l0.7-0.4c0.2-3.3 8.1-7.4 9.3-8.2z"/>
		<path fill-rule="evenodd" class="s6" d="m54.1 109.6c12.3-4.6 18.4-8.3 25-10.5v0.2c-0.6 0.3-4.9 1.3-6.6 3.8z"/>
		<path fill-rule="evenodd" class="s6" d="m76.9 99.7c-0.8 0.4-1.6 0.7-2.5 1.2-4.1-0.6-4.7-1.6-6.5-2.5l0.4-0.1c0.6 0.5 1.4 0.8 2.2 1.2 1.2 0.4 1.5-0.1 0.3-0.5-1.5-0.5-2.3-1.1-3.1-1.7 1.4-2.6 4.7-4 5.1-4.2-1.8 1.2-4 2.3-4.5 4.1 2.8-0.5 5.9-1 9.5-1.8 0.3 0.5 0.6 1 1.1 1.7l-0.1 0.1-0.6-0.7-9.8 0.8c2.7 1.8 5.6 2 8.5 2.3z"/>
		<path fill-rule="evenodd" class="s3" d="m51.6 96c1.1 3.8 10.7 2.8 16.3 2.4l0.3-0.1c-0.4-0.3-0.8-0.6-1.1-1-2.3-0.5-13 1.8-15.5-1.3z"/>
		<path fill-rule="evenodd" class="s3" d="m69.6 93.9l0.1 0.1c-0.7 0.5-1.3 1-2 1.9-8.9 0-14.4-3.5-16-5.6 2.2-1.8 4.9-2.4 7.8-2.7-2.5 0.8-5.4 1.2-6.7 2.8h-0.7c4.1 4.6 15.1 6.6 17.5 3.5z"/>
		<path fill-rule="evenodd" class="s6" d="m53.3 90.5c5.9 0.8 11.7 1.6 17.7 2.5 0.8-0.7 2.3-1.2 4.6-1.3-0.8 0-1.5-0.1-2.7 0.1-6.7 0.1-13.1-0.8-19.6-1.3z"/>
		<path fill-rule="evenodd" class="s6" d="m78.5 89.6c-0.5 0.6-0.8 1.4-1 2.3-6.5-2.1-7.6-6.1-7.8-6.5 3.9-2.7 6.3-1.7 9.5-1.8-6.9-0.3-8.7 1.5-9 1.8 2.6 0.7 4.4 1.4 9.9 2.3-0.5 0.4-0.8 0.7-1.1 1-2.1-0.8-6-2-8.8-3.1 0.4 1.8 3.3 4.6 5.7 5.4 0.7 0.2 1.4 0.5 1.7-0.4 0.1-0.3 0.7-0.9 0.9-1z"/>
		<path fill-rule="evenodd" class="s3" d="m53.9 81.1c1.3 1.2 6 5.4 14.6 4.3 0.3 0.9 0.7 1.2 1 1.5-2.3-0.3-4.6-0.6-6.9-0.4-3.8-1.1-7.3-2.5-8.7-5.4z"/>
		<path fill-rule="evenodd" class="s3" d="m71.5 82.9c0 0 0.3 0.2 0.5 0.2-1.5 0.6-2.6 1.2-3.4 1.8-4.3-1.4-10.5-4.6-12.7-8.6 2.7-1.2 7.2-0.6 9.9 0-3 0-6.5-0.6-8.2 0.5l-1.4-0.4c0.6 1.7 9.8 9.8 15.3 6.5z"/>
		<path fill-rule="evenodd" class="s6" d="m58 77.1c5.5 1.9 10.8 3.8 15.2 5.7 1.4-0.3 2.7-0.3 4.1 0-0.4-0.3-0.7-0.6-0.9-1h-0.1l0.5 0.8c-7.5-2.6-13-4-18.7-5.5z"/>
		<path fill-rule="evenodd" class="s3" d="m75.4 79.3c-0.4-0.8-0.8-1.7-0.8-2.8-2.1 1-11.6-3.2-13.8-8.3 0.1 4.5 8.2 8.1 14.6 11z"/>
		<path fill-rule="evenodd" class="s6" d="m80.9 82.1c-0.3 0.3-0.5 0.7-0.9 0.9q-0.2 0.1-0.5 0c-3.4-2.2-4-5.9-3.9-6.6 2.5-0.5 6.1-0.4 11.1 2.7-1.1-0.3-4.8-3-10.6-2.5-0.1 2 1.4 5.9 4.8 5.5z"/>
		<path fill-rule="evenodd" class="s6" d="m76.5 77l6 4.3c0.7 0 1.5 0 2.3 0.4q0-0.2 0.2-0.7c-3.2-1.3-5.6-2.7-8.5-4z"/>
		<path fill-rule="evenodd" class="s3" d="m63.2 63.1l1.5 1c-0.2 3.6 6.2 10.6 13.3 11.1-1.2 0.1-2.5 0.1-3.4 0.5-3.3-2.1-5.6-4.3-7.4-6.2-0.4 0-0.8-0.9-1.4-0.6-1.8-2.4-2.5-4.2-2.6-5.7z"/>
		<path fill-rule="evenodd" class="s22" d="m73.5 65.9c-2.4-0.9-4.5-1.9-8.6-1.8 6.4 4.7 9.8 7.6 14.5 11.2 2.2 0.3 4.2 1.3 6.3 2.1q-0.4-0.8-0.6-1.7c0 0.5 0 0.9 0.3 1.4-2.8-0.8-14.2-8.9-19.8-12.6 2.1-0.6 5.1 0.6 7.9 1.4z"/>
		<path fill-rule="evenodd" class="s3" d="m76.7 66.2c-2.5-2.3-5.4-4.8-6-8.4 3 0.4 8.8 2.4 13.4 5.7-4.3-2.5-8.3-4.3-11.5-4.2-0.3 2.9 2.4 4.9 4.2 6.9z"/>
		<path fill-rule="evenodd" class="s6" d="m72.8 59.4l-0.2 0.1c4.4 3.2 7.5 6.2 11 9.3 0.9 0.9 0.8 1.7 0.9 2.6 0.4-0.4-0.1-1.8 0.6-2 0.8-0.1 3.5 1.3 3.7 1.1-6.4-2.8-10.7-7.4-16-11.1z"/>
		<path fill-rule="evenodd" class="s30" d="m86.4 76.5c-0.6-1-1.5-4-0.9-6.1 8.2 1.8 9.6 8.3 9.8 9.6-1.2-4.7-5.7-9-8.8-8.4 1.8 1.7 4.2 5.3 5.6 6.8-0.7 0-1.4 0.1-1.8 0.3-1.2-0.2-1.7 0.1-2.3 0.3-0.7-0.8-0.9-1.4-1.3-2 0.9 1.2 2.1 1 3.3 0.7-1.3-2.3-2.6-4-3.8-6-0.7 0.5 0 3 0.2 4.8z"/>
		<path fill-rule="evenodd" class="s3" d="m89.7 67.7c14.1 9.4 15.1 24.7 5.2 22.2 11.9-1.4-2-19.2-5.2-22.2z"/>
		<path fill-rule="evenodd" class="s6" d="m90.4 78.7c1.2-0.5 4.3-0.4 4.4 4.4l-1 0.7c0-1.3 0.2-4.2-3.4-5.1z"/>
		<path fill-rule="evenodd" class="s6" d="m93.8 83.9l1-0.8c5.2 2 2.6 7.5-0.9 6.6 4.2-0.4 3.3-5.9-0.1-5.8z"/>
		<path fill-rule="evenodd" class="s26" d="m110.3 48.1c0.7 1.2-1.3 4.8 2 4.3 1.2 0.7 2.2 0.3 2.7 0.3 2.2-0.8 2.1-2.3 2.3-2.7-2-2.7 0.2-3.2 0.4-3.3 1.2 0.1 1.8 2.3 0.2 3 0.2 0.1 0.3 0 0.6-0.1 0 3.5 2.5 3.8 4.2 3.2 3.4 0.9 1.7-3 3.3-5.9-1.8 3.2-0.6 6.1-3.3 5.7 0.7-1.6-1.1-2.9-0.2-4.7-1.4 1.2 0.9 3.4 0 4.5-0.9 0.8-1.8 0.1-1.8-0.2-0.4-1.2 2.3-2.6 0.7-4.8 0.5 1.1 0.3 1.7 0 2.5-0.3 0.7-1.4 1.4-0.9 2.9-1.2-0.3-1.8-1.6-1.5-2.8 0.3-1.1 0.9-2.9-1.2-3.5-2.6 0.8-1.3 2.9-0.9 3.2 0.6 0.7-0.6 2.8-2 2.8 0.6-1-0.2-1.2-1.2-2.9 0 0.9 2 2.1 0.8 2.8-0.6 0.5-1.4 0.2-1.8-0.2-0.6-0.7 1-1.6 0.7-3.1-0.5 2.1-1.1 2-1 3-0.8 0.2-1.6 0.5-1.8-1 0-2 0-3.2-0.3-3z"/>
		<path fill-rule="evenodd" class="s26" d="m123.9 56.3v0.2c-4.1 0.3-8.2-0.5-12.2-0.6v-0.1c4.1 0.1 7.2 0.8 12.2 0.5z"/>
		<path fill-rule="evenodd" class="s26" d="m117.6 57v0.2c2.3 0.3 4.7 0.7 6.6 0.5v-0.2c-2.3 0.3-4.4-0.2-6.6-0.5z"/>
		<path fill-rule="evenodd" class="s31" d="m111.9 53.5c1.3-0.2 2.5 0 3.1 0.1 0.6 0.1 0.6 1.2 0 1.4-0.6 0.1-2.1 0-3.1-0.1-0.6-0.5-0.3-1.2 0-1.4zm0.2 0.2c-0.7 0.2-0.4 1.1 0 1.1 0.7 0 1.4 0.1 2.2 0 0.4-0.2 0.6-1 0.1-1.2-0.8-0.1-1.6-0.1-2.3 0z"/>
		<path fill-rule="evenodd" class="s31" d="m119.2 53.7c0.4 1.4-1 1.2-2.7 1-1-1.7 2.3-1 2.7-1zm0.3 1.4c0.7-0.3 0.8-1.1-0.1-1.5-1-0.1-1.9-0.2-2.9-0.1-0.6 0.6-0.2 1.1 0 1.4 0.6 0.1 1.4 0.2 3 0.2z"/>
		<path fill-rule="evenodd" class="s31" d="m123.8 54.2c0.3 1.4-1.1 1.1-2.8 0.7-0.8-1.7 2.4-0.7 2.8-0.7zm-2.8 0.9c0.5 0.2 0.9 0.5 2.9 0.4 0.8-0.2 0.9-1 0.1-1.4-0.9-0.3-0.5-0.3-2.9-0.4-0.6 0.6-0.3 1.1-0.1 1.4z"/>
		<path fill-rule="evenodd" class="s6" d="m90.9 80.9l-2.6 7.8c0.8 0 1.4 0 2.6-0.2 1.2-2.5 1.5-5.9 0-7.6z"/>
		<path fill-rule="evenodd" class="s2" d="m93.1 96l-4.8-7.3c0 0-1.2 3-1.3 4 0.6 1.6 3.4 3.3 6.1 3.3z"/>
		<path fill-rule="evenodd" class="s6" d="m92.3 90.4c1.7-0.6 2-1.6 2-2.2l-3.4 0.3c0.5 0.6 1 1.2 1.4 1.9z"/>
		<path fill-rule="evenodd" class="s6" d="m86.7 84.8c-0.6-0.5-2.8-0.6-3.3-0.2l2.8 2.6c0.1-0.8 0.3-1.7 0.5-2.4z"/>
		<path fill-rule="evenodd" class="s6" d="m80.4 92.7l7.9-4c0.1-0.1-1 3.1-1.3 4-1 0.5-4.9 1.5-6.6 0z"/>
	</g>
</svg>