<svg version="1.2" xmlns="http://www.w3.org/2000/svg" viewBox="0 0 64 64" width="64" height="64">
	<style>
		.s0 { fill: #696978 } 
	</style>
	<path class="s0" d="m13.18 6.77q-0.06 0-0.11-0.02-0.05-0.02-0.09-0.06-0.04-0.04-0.06-0.09-0.02-0.05-0.02-0.11v-0.17q0-0.67 0.27-1.28 0.27-0.62 0.76-1.09 0.5-0.47 1.14-0.72 0.65-0.26 1.35-0.26h29.12q0.7 0 1.35 0.26 0.64 0.25 1.14 0.72 0.49 0.47 0.76 1.09 0.27 0.61 0.27 1.28v0.17q0 0.06-0.02 0.11-0.02 0.05-0.06 0.09-0.04 0.04-0.09 0.06-0.05 0.02-0.11 0.02z"/>
	<path class="s0" d="m7.31 14.27q-0.08 0-0.16-0.03-0.07-0.03-0.13-0.09-0.06-0.06-0.09-0.13-0.03-0.08-0.03-0.16v-0.13q0-0.65 0.28-1.25 0.28-0.6 0.79-1.06 0.51-0.45 1.18-0.7 0.67-0.25 1.4-0.25h40.82q0.73 0 1.4 0.25 0.67 0.25 1.18 0.7 0.51 0.46 0.79 1.06 0.28 0.6 0.28 1.25v0.13q0 0.08-0.03 0.16-0.03 0.07-0.09 0.13-0.06 0.06-0.13 0.09-0.08 0.03-0.16 0.03z"/>
	<path class="s0" d="m60.99 52.45q0 1.5-0.57 2.89-0.58 1.39-1.64 2.45-1.06 1.06-2.45 1.64-1.39 0.57-2.89 0.57h-44.88q-1.5 0-2.89-0.57-1.39-0.58-2.45-1.64-1.06-1.06-1.64-2.45-0.57-1.39-0.57-2.89v-26.9q0-1.5 0.57-2.89 0.58-1.39 1.64-2.45 1.06-1.06 2.45-1.64 1.39-0.57 2.89-0.57h44.88q1.5 0 2.89 0.57 1.39 0.58 2.45 1.64 1.06 1.06 1.64 2.45 0.57 1.39 0.57 2.89zm-3.76-26.87q0-0.76-0.29-1.46-0.29-0.7-0.83-1.23-0.53-0.54-1.23-0.83-0.7-0.29-1.46-0.29h-44.84q-0.76 0-1.46 0.29-0.7 0.29-1.23 0.83-0.54 0.53-0.83 1.23-0.29 0.7-0.29 1.46v26.84q0 0.76 0.29 1.46 0.29 0.7 0.83 1.23 0.53 0.54 1.23 0.83 0.7 0.29 1.46 0.29h44.84q0.76 0 1.46-0.29 0.7-0.29 1.23-0.83 0.54-0.53 0.83-1.23 0.29-0.7 0.29-1.46z"/>
</svg>