<svg version="1.2" xmlns="http://www.w3.org/2000/svg" viewBox="0 0 64 64" width="64" height="64">
	<style>
		.s0 { fill: #285ff4 } 
	</style>
	<path class="s0" d="m13.41 6.79q-0.09 0-0.17-0.03-0.08-0.04-0.15-0.1-0.06-0.07-0.1-0.15-0.03-0.08-0.03-0.17v-0.15q0-0.65 0.28-1.26 0.27-0.6 0.78-1.06 0.51-0.46 1.18-0.71 0.67-0.25 1.39-0.25l28.86 0.06q0.72 0 1.39 0.25 0.67 0.25 1.18 0.71 0.51 0.46 0.78 1.07 0.28 0.6 0.28 1.25v0.15q0 0.09-0.03 0.17-0.04 0.08-0.1 0.15-0.07 0.06-0.15 0.1-0.08 0.03-0.17 0.03z"/>
	<path class="s0" d="m7.35 14.27q-0.06 0-0.11-0.02-0.05-0.02-0.1-0.06-0.04-0.05-0.06-0.1-0.02-0.05-0.02-0.11v-0.18q0-0.67 0.28-1.28 0.27-0.62 0.78-1.09 0.51-0.47 1.17-0.72 0.67-0.26 1.39-0.26h40.74q0.72 0 1.39 0.26 0.66 0.25 1.17 0.72 0.51 0.47 0.78 1.09 0.28 0.61 0.28 1.28v0.18q0 0.06-0.02 0.11-0.02 0.05-0.06 0.1-0.05 0.04-0.1 0.06-0.05 0.02-0.11 0.02z"/>
	<path fill-rule="evenodd" class="s0" d="m8.56 17.98h44.88c4.17 0 7.55 3.38 7.55 7.55v26.9c0 4.17-3.38 7.55-7.55 7.55h-44.88c-4.17 0-7.55-3.38-7.55-7.55v-26.9c0-4.17 3.38-7.55 7.55-7.55z"/>
</svg>