<svg version="1.2" xmlns="http://www.w3.org/2000/svg" viewBox="0 0 64 64" width="64" height="64">
	<style>
		.s0 { fill: #696978 } 
	</style>
	<path class="s0" d="m61.98 14.49c0 1.77-0.35 3.53-1.03 5.16-0.67 1.64-1.67 3.13-2.92 4.38-1.25 1.25-2.74 2.25-4.38 2.92-1.63 0.68-3.39 1.03-5.16 1.03-1.77 0-3.53-0.35-5.16-1.03-1.64-0.67-3.13-1.67-4.38-2.92-1.25-1.25-2.25-2.74-2.92-4.38-0.68-1.63-1.03-3.39-1.03-5.16 0-1.77 0.35-3.53 1.03-5.16 0.67-1.64 1.67-3.13 2.92-4.38 1.25-1.25 2.74-2.25 4.38-2.92 1.63-0.68 3.39-1.03 5.16-1.03 1.77 0 3.53 0.35 5.16 1.03 1.64 0.67 3.13 1.67 4.38 2.92 1.25 1.25 2.25 2.74 2.92 4.38 0.68 1.63 1.03 3.39 1.03 5.16zm-3.77 0.03c0-1.27-0.25-2.54-0.74-3.71-0.49-1.18-1.2-2.25-2.1-3.15-0.9-0.9-1.97-1.61-3.15-2.1-1.17-0.49-2.44-0.74-3.71-0.74-1.27 0-2.54 0.25-3.71 0.74-1.18 0.49-2.25 1.2-3.15 2.1-0.9 0.9-1.61 1.97-2.1 3.15-0.49 1.17-0.74 2.44-0.74 3.71 0 1.27 0.25 2.54 0.74 3.71 0.49 1.18 1.2 2.25 2.1 3.15 0.9 0.9 1.97 1.61 3.15 2.1 1.17 0.49 2.44 0.74 3.71 0.74 1.27 0 2.54-0.25 3.71-0.74 1.18-0.49 2.25-1.2 3.15-2.1 0.9-0.9 1.61-1.97 2.1-3.15 0.49-1.17 0.74-2.44 0.74-3.71z"/>
	<path class="s0" d="m15.52 3.12q0.26 0 0.82-0.28 5.32-2.65 9.41 0.18c4.15 2.88 4.58 9.02 2.31 13.02-1.73 3.03-8.63 11.91-12.57 11.91-3.94-0.01-10.82-8.91-12.54-11.94-2.26-4-1.82-10.14 2.34-13.01q4.09-2.82 9.4-0.16 0.56 0.28 0.83 0.28zm-0.02 20.94q0.19 0 0.28-0.06c4.01-3.01 13.1-11.17 8.82-16.88-2.34-3.13-6.56-1.71-8.66 0.88q-0.12 0.15-0.43 0.15-0.31 0-0.44-0.16c-2.1-2.58-6.32-4-8.66-0.87-4.28 5.71 4.81 13.87 8.82 16.88q0.09 0.06 0.27 0.06z"/>
	<path class="s0" d="m29.02 46.78c0.02 1.69-0.32 3.38-0.98 4.95-0.66 1.57-1.64 3.01-2.88 4.22-1.25 1.21-2.73 2.18-4.36 2.84-1.63 0.67-3.39 1.02-5.16 1.04-1.78 0.02-3.54-0.3-5.19-0.93-1.65-0.63-3.15-1.57-4.41-2.75-1.27-1.19-2.28-2.6-2.98-4.16-0.69-1.56-1.06-3.23-1.08-4.93-0.02-1.69 0.32-3.38 0.98-4.95 0.66-1.57 1.64-3.01 2.88-4.22 1.25-1.21 2.73-2.18 4.36-2.84 1.63-0.67 3.39-1.02 5.16-1.04 1.78-0.02 3.54 0.3 5.19 0.93 1.65 0.63 3.15 1.57 4.41 2.75 1.27 1.19 2.28 2.6 2.98 4.16 0.69 1.56 1.06 3.23 1.08 4.93zm-23.28-0.07c-0.01 1.22 0.22 2.43 0.7 3.57 0.48 1.13 1.18 2.17 2.08 3.04 0.89 0.88 1.96 1.57 3.13 2.06 1.18 0.48 2.45 0.73 3.73 0.75 1.28 0.01 2.55-0.21 3.74-0.66 1.18-0.46 2.27-1.13 3.18-1.98 0.92-0.85 1.65-1.87 2.15-2.99 0.51-1.12 0.77-2.33 0.79-3.55 0.01-1.22-0.22-2.43-0.7-3.57-0.48-1.13-1.18-2.17-2.08-3.04-0.89-0.88-1.96-1.57-3.13-2.06-1.18-0.48-2.45-0.73-3.73-0.75-1.28-0.01-2.55 0.21-3.74 0.66-1.18 0.46-2.27 1.13-3.18 1.98-0.92 0.85-1.65 1.87-2.15 2.99-0.51 1.12-0.77 2.33-0.79 3.55z"/>
	<path class="s0" d="m61.98 50.99c0 1.15-0.23 2.3-0.67 3.37-0.44 1.07-1.09 2.05-1.91 2.87-0.81 0.82-1.78 1.47-2.85 1.91-1.07 0.45-2.22 0.68-3.38 0.68l-9.32 0.02c-1.16 0-2.3-0.23-3.37-0.67-1.07-0.44-2.05-1.09-2.87-1.9-0.82-0.82-1.47-1.79-1.92-2.86-0.44-1.07-0.67-2.22-0.67-3.38l-0.02-8.16c0-1.15 0.23-2.3 0.67-3.37 0.44-1.07 1.09-2.05 1.91-2.87 0.81-0.82 1.78-1.47 2.85-1.91 1.07-0.45 2.22-0.68 3.38-0.68l9.32-0.02c1.16 0 2.3 0.23 3.37 0.67 1.07 0.44 2.05 1.09 2.87 1.9 0.82 0.82 1.47 1.79 1.92 2.86 0.44 1.07 0.67 2.22 0.67 3.38zm-3.72-8.48q-0.01-0.95-0.37-1.83-0.36-0.88-1.04-1.56-0.67-0.67-1.55-1.04-0.88-0.36-1.83-0.36h-9.88q-0.96 0-1.84 0.36-0.88 0.37-1.55 1.04-0.67 0.68-1.04 1.56-0.36 0.88-0.36 1.83v8.86q0 0.95 0.36 1.83 0.37 0.88 1.04 1.56 0.67 0.67 1.55 1.04 0.88 0.36 1.84 0.36h9.88q0.95 0 1.83-0.36 0.88-0.37 1.55-1.04 0.68-0.68 1.04-1.56 0.36-0.88 0.37-1.83z"/>
</svg>