<svg version="1.2" xmlns="http://www.w3.org/2000/svg" viewBox="0 0 64 64" width="64" height="64">
	<style>
		.s0 { fill: #285ff4 } 
	</style>
	<path fill-rule="evenodd" class="s0" d="m48.52 28.02c-7.45-0.01-13.46-6.04-13.44-13.5 0.01-7.45 6.03-13.46 13.48-13.45 7.44 0.01 13.45 6.04 13.44 13.5-0.02 7.45-6.04 13.46-13.48 13.45z"/>
	<path class="s0" d="m15.52 2.94q0.52 0 0.66-0.06 5.15-2.61 9.33 0c4.24 2.66 4.82 8.71 2.74 12.68q-3.72 7.15-11.02 11.9-0.7 0.45-1.74 0.45-1.03 0-1.73-0.45-7.3-4.78-11-11.94c-2.06-3.98-1.46-10.02 2.8-12.67q4.18-2.6 9.33 0.03 0.12 0.06 0.63 0.06z"/>
	<path fill-rule="evenodd" class="s0" d="m15.46 61.02c-7.45-0.01-13.46-6.05-13.45-13.51 0.02-7.46 6.05-13.47 13.5-13.46 7.44 0.01 13.46 6.05 13.44 13.51-0.01 7.45-6.04 13.47-13.49 13.46z"/>
	<path fill-rule="evenodd" class="s0" d="m44 34.12l8.94-0.02c4.96-0.01 9 4.01 9.01 8.99l0.01 8.95c0.01 4.97-4.01 9.01-8.97 9.02l-8.94 0.01c-4.97 0.01-9-4.01-9.01-8.98l-0.01-8.95c-0.01-4.97 4-9.01 8.97-9.02z"/>
</svg>