<svg version="1.2" xmlns="http://www.w3.org/2000/svg" viewBox="0 0 64 64" width="64" height="64">
	<style>
		.s0 { fill: #696978 } 
	</style>
	<path class="s0" d="m7.18 7.18c-2.86 2.85-2.5 6.21-2.46 10.66q0 0.35-0.13 0.68-0.13 0.33-0.37 0.58-0.25 0.26-0.57 0.4-0.32 0.15-0.67 0.16l-0.14 0.01q-0.34 0.01-0.65-0.1-0.32-0.12-0.57-0.34-0.25-0.23-0.39-0.54-0.14-0.3-0.16-0.64c-0.22-5.29-0.28-9.75 3.48-13.51 3.76-3.75 8.22-3.69 13.5-3.46q0.34 0.01 0.65 0.16 0.3 0.14 0.53 0.39 0.23 0.25 0.35 0.56 0.11 0.32 0.1 0.66l-0.01 0.14q-0.02 0.35-0.16 0.67-0.15 0.32-0.4 0.57-0.26 0.24-0.59 0.37-0.33 0.12-0.68 0.12c-4.45-0.03-7.8-0.4-10.66 2.46z"/>
	<path class="s0" d="m57.45 4.54c3.76 3.75 3.7 8.2 3.47 13.47q-0.01 0.34-0.16 0.65-0.14 0.3-0.38 0.53-0.25 0.23-0.57 0.35-0.31 0.11-0.65 0.1l-0.14-0.01q-0.35-0.02-0.67-0.16-0.32-0.15-0.56-0.4-0.24-0.26-0.37-0.58-0.13-0.33-0.13-0.68c0.03-4.44 0.39-7.79-2.46-10.64-2.85-2.85-6.2-2.48-10.64-2.44q-0.35 0-0.68-0.13-0.32-0.13-0.58-0.37-0.25-0.24-0.4-0.56-0.14-0.32-0.16-0.67l-0.01-0.14q-0.02-0.33 0.1-0.65 0.11-0.32 0.34-0.57 0.22-0.24 0.53-0.39 0.3-0.14 0.64-0.16c5.27-0.23 9.73-0.3 13.48 3.45z"/>
	<path fill-rule="evenodd" class="s0" d="m30.96 17.13h0.08c1.03 0 1.87 0.84 1.87 1.87v23.98c0 1.03-0.84 1.87-1.87 1.87h-0.08c-1.03 0-1.87-0.84-1.87-1.87v-23.98c0-1.03 0.84-1.87 1.87-1.87z"/>
	<path fill-rule="evenodd" class="s0" d="m20.45 23.11h0.12c1.04 0 1.87 0.84 1.87 1.87l-0.02 12.04c0 1.04-0.84 1.87-1.87 1.87h-0.12c-1.04 0-1.87-0.84-1.87-1.87l0.02-12.04c0-1.04 0.84-1.87 1.87-1.87z"/>
	<path fill-rule="evenodd" class="s0" d="m41.44 23.14h0.14c1.04 0 1.87 0.85 1.87 1.89l-0.04 11.98c0 1.04-0.85 1.87-1.89 1.87h-0.14c-1.04 0-1.87-0.85-1.87-1.89l0.04-11.98c0-1.04 0.85-1.87 1.89-1.87z"/>
	<path class="s0" d="m4.54 57.45c-3.76-3.76-3.7-8.23-3.47-13.51q0.01-0.34 0.16-0.65 0.14-0.3 0.39-0.53 0.25-0.23 0.56-0.35 0.32-0.11 0.66-0.1l0.14 0.01q0.35 0.01 0.68 0.16 0.32 0.15 0.56 0.4 0.25 0.26 0.37 0.59 0.13 0.33 0.13 0.68c-0.04 4.45-0.41 7.81 2.45 10.67 2.86 2.86 6.22 2.5 10.67 2.46q0.35 0 0.68 0.13 0.33 0.12 0.59 0.37 0.25 0.24 0.4 0.56 0.15 0.33 0.16 0.68l0.01 0.14q0.01 0.34-0.1 0.66-0.12 0.31-0.35 0.56-0.23 0.25-0.53 0.39-0.31 0.15-0.65 0.16c-5.29 0.23-9.75 0.29-13.51-3.48z"/>
	<path class="s0" d="m57.43 57.48c-3.76 3.75-8.23 3.68-13.51 3.44q-0.34-0.02-0.64-0.16-0.31-0.14-0.54-0.39-0.22-0.25-0.34-0.57-0.11-0.31-0.1-0.65l0.01-0.14q0.02-0.35 0.16-0.67 0.15-0.32 0.4-0.57 0.26-0.24 0.59-0.37 0.33-0.12 0.68-0.12c4.45 0.04 7.8 0.41 10.66-2.44 2.86-2.85 2.51-6.21 2.48-10.65q0-0.35 0.13-0.68 0.13-0.33 0.37-0.58 0.25-0.26 0.57-0.4 0.32-0.15 0.67-0.16l0.14-0.01q0.34-0.01 0.65 0.1 0.32 0.12 0.56 0.35 0.25 0.23 0.39 0.53 0.14 0.3 0.16 0.64c0.22 5.28 0.27 9.75-3.49 13.5z"/>
</svg>