<svg version="1.2" xmlns="http://www.w3.org/2000/svg" viewBox="0 0 62 63" width="64" height="64">
	<style>
		.s0 { fill: #285ff4 } 
	</style>
	<path class="s0" d="m7.19 8.22c-2.76 2.78-2.45 6.18-2.5 10.68q0 0.13-0.02 0.25-0.02 0.13-0.06 0.25-0.04 0.13-0.09 0.24-0.06 0.12-0.13 0.22-0.85 1.23-2.35 0.65-0.13-0.05-0.24-0.12-0.11-0.08-0.21-0.17-0.1-0.09-0.17-0.21-0.08-0.11-0.13-0.23-0.15-0.37-0.31-3.03-0.41-7.23 3.54-11.2 3.95-3.96 11.18-3.57 2.66 0.15 3.03 0.3 0.13 0.05 0.24 0.13 0.11 0.07 0.21 0.17 0.09 0.1 0.17 0.21 0.07 0.11 0.12 0.24 0.58 1.49-0.65 2.35-0.1 0.07-0.22 0.13-0.11 0.05-0.23 0.09-0.12 0.04-0.25 0.06-0.12 0.02-0.25 0.02c-4.5 0.06-7.91-0.23-10.68 2.54z"/>
	<path class="s0" d="m57.49 5.54q3.97 3.98 3.55 11.24-0.16 2.67-0.31 3.04-0.05 0.12-0.13 0.24-0.07 0.11-0.17 0.2-0.1 0.1-0.21 0.17-0.11 0.08-0.24 0.13-1.51 0.58-2.36-0.65-0.07-0.11-0.13-0.22-0.05-0.11-0.09-0.24-0.04-0.12-0.06-0.25-0.02-0.12-0.02-0.25c-0.05-4.52 0.26-7.94-2.52-10.73-2.78-2.78-6.2-2.48-10.72-2.54q-0.13 0-0.26-0.02-0.12-0.02-0.24-0.06-0.13-0.04-0.24-0.1-0.12-0.06-0.22-0.13-1.23-0.85-0.64-2.36 0.05-0.13 0.12-0.24 0.08-0.11 0.17-0.21 0.1-0.1 0.21-0.17 0.11-0.08 0.23-0.13 0.37-0.15 3.04-0.3 7.26-0.4 11.24 3.58z"/>
	<path class="s0" d="m51.99 46.19q0 1.19-0.46 2.3-0.46 1.1-1.3 1.94-0.85 0.85-1.96 1.3-1.1 0.46-2.3 0.46l-30-0.06q-1.19 0-2.3-0.46-1.1-0.46-1.94-1.3-0.84-0.85-1.3-1.96-0.46-1.1-0.46-2.3l0.06-29.12q0-1.19 0.46-2.3 0.46-1.1 1.3-1.94 0.85-0.85 1.96-1.3 1.1-0.46 2.3-0.46l30 0.06q1.19 0 2.3 0.46 1.1 0.46 1.94 1.3 0.84 0.85 1.3 1.96 0.46 1.1 0.46 2.3zm-19.1-26.19q0-0.36-0.14-0.7-0.14-0.34-0.4-0.6-0.25-0.26-0.59-0.4-0.34-0.14-0.71-0.14h-0.08q-0.36 0-0.7 0.14-0.34 0.14-0.6 0.4-0.26 0.26-0.4 0.59-0.14 0.34-0.14 0.71l-0.04 23.34q0 0.36 0.14 0.7 0.14 0.34 0.4 0.6 0.26 0.26 0.59 0.4 0.34 0.14 0.71 0.14h0.08q0.36 0 0.7-0.14 0.34-0.14 0.6-0.4 0.26-0.26 0.4-0.59 0.14-0.34 0.14-0.71zm-10.49 5.87q0-0.32-0.12-0.63-0.13-0.3-0.36-0.53-0.23-0.24-0.54-0.36-0.3-0.13-0.63-0.13h-0.5q-0.32 0-0.63 0.12-0.3 0.13-0.53 0.36-0.24 0.23-0.36 0.54-0.13 0.3-0.13 0.63l-0.02 11.94q0 0.32 0.12 0.63 0.13 0.3 0.36 0.53 0.23 0.24 0.54 0.36 0.3 0.13 0.63 0.13h0.5q0.32 0 0.63-0.12 0.3-0.13 0.53-0.36 0.24-0.23 0.36-0.54 0.13-0.3 0.13-0.63zm20.97-0.07q0-0.3-0.11-0.57-0.12-0.28-0.33-0.5-0.21-0.21-0.49-0.32-0.28-0.12-0.58-0.12h-0.74q-0.3 0-0.58 0.11-0.27 0.12-0.49 0.33-0.21 0.21-0.32 0.49-0.12 0.28-0.12 0.58l-0.02 12.1q0 0.3 0.11 0.57 0.12 0.28 0.33 0.5 0.21 0.21 0.49 0.32 0.28 0.12 0.58 0.12h0.74q0.3 0 0.57-0.11 0.28-0.12 0.49-0.33 0.22-0.21 0.33-0.49 0.12-0.28 0.12-0.58z"/>
	<path class="s0" d="m4.64 57.63q-3.99-3.87-3.69-11.06 0.12-2.65 0.26-3.02 0.05-0.12 0.12-0.23 0.08-0.11 0.17-0.21 0.1-0.09 0.21-0.17 0.11-0.07 0.23-0.12 1.48-0.6 2.35 0.6 0.07 0.1 0.13 0.22 0.06 0.11 0.1 0.23 0.04 0.12 0.06 0.25 0.02 0.12 0.02 0.25c0.12 4.47-0.13 7.86 2.66 10.57 2.79 2.71 6.17 2.36 10.64 2.35q0.13 0 0.25 0.02 0.13 0.01 0.25 0.05 0.12 0.04 0.24 0.09 0.11 0.06 0.22 0.13 1.23 0.83 0.67 2.32-0.05 0.13-0.12 0.24-0.07 0.11-0.16 0.21-0.09 0.1-0.2 0.18-0.11 0.08-0.23 0.13-0.37 0.15-3.01 0.34-7.18 0.51-11.17-3.37z"/>
	<path class="s0" d="m57.35 57.63q-3.99 3.88-11.17 3.37-2.64-0.19-3-0.34-0.12-0.05-0.23-0.13-0.11-0.08-0.21-0.18-0.09-0.09-0.16-0.21-0.07-0.11-0.12-0.24-0.56-1.49 0.68-2.32 0.1-0.07 0.22-0.13 0.11-0.05 0.23-0.09 0.12-0.03 0.25-0.05 0.12-0.02 0.25-0.02c4.47 0.01 7.85 0.36 10.64-2.35 2.79-2.71 2.54-6.1 2.66-10.57q0-0.13 0.02-0.25 0.02-0.13 0.06-0.25 0.04-0.12 0.1-0.23 0.06-0.12 0.13-0.22 0.87-1.21 2.35-0.61 0.12 0.05 0.23 0.13 0.12 0.07 0.21 0.17 0.09 0.09 0.17 0.2 0.07 0.12 0.12 0.24 0.14 0.37 0.26 3.01 0.3 7.19-3.69 11.07z"/>
</svg>