<svg version="1.2" xmlns="http://www.w3.org/2000/svg" viewBox="0 0 64 64" width="64" height="64">
	<style>
		.s0 { fill: #696978 } 
	</style>
	<path class="s0" d="m5.47 21.61c0.94-0.18 2.27-0.6 3.29-0.6q29.46-0.04 41.31-0.05c7.41 0 11 1.71 10.93 9.27q-0.06 7.04 0.02 21.64c0.03 5.79-0.88 11.04-7.53 11.07q-26.14 0.12-42.31 0.03c-7.18-0.04-10.13-2.16-10.15-9.16q-0.12-32.89 0.04-40.28 0.08-3.96 3.2-6.23c2.62-1.9 11.53-1.53 14.45-1.03 5.21 0.9 7.13 7.2 12.65 7.2q11.73 0.01 20.59-0.02 0.45 0 0.87 0.12 0.43 0.13 0.8 0.37 0.37 0.25 0.66 0.59 0.28 0.34 0.46 0.75l0.12 0.3q0.12 0.29 0.1 0.6-0.03 0.32-0.2 0.58-0.18 0.26-0.45 0.41-0.28 0.15-0.59 0.15-17.33 0.01-23.87-0.14c-3.22-0.08-6.46-3.08-8.73-5.59-2.23-2.47-7.39-1.86-12.15-1.79q-4.05 0.05-4.15 3.94-0.13 4.65-0.11 7.25 0 0.14 0.06 0.27 0.06 0.13 0.17 0.22 0.11 0.09 0.24 0.12 0.14 0.04 0.28 0.01zm51.74 6.93q-0.01-0.76-0.3-1.46-0.29-0.7-0.83-1.24-0.54-0.54-1.24-0.83-0.71-0.29-1.47-0.29l-44.8 0.08q-0.76 0-1.47 0.29-0.7 0.3-1.24 0.84-0.53 0.54-0.82 1.24-0.29 0.7-0.29 1.47l0.04 26.82q0.01 0.76 0.3 1.46 0.29 0.7 0.83 1.24 0.54 0.54 1.24 0.83 0.71 0.29 1.47 0.29l44.8-0.08q0.76 0 1.47-0.29 0.7-0.3 1.24-0.84 0.53-0.54 0.82-1.24 0.29-0.7 0.29-1.47z"/>
</svg>