<svg version="1.2" xmlns="http://www.w3.org/2000/svg" viewBox="0 0 63 63" width="63" height="63">
	<style>
		.s0 { fill: #285ff4 } 
	</style>
	<path class="s0" d="m5.41 21.6q1.57-0.53 7.09-0.55 36.59-0.1 40.44 0 7.86 0.2 7.97 8.28 0.11 8.9 0.08 21.34-0.02 5.82-1.13 7.79-1.91 3.38-6.86 3.4-4.14 0.01-39.87 0.07c-7.24 0.01-12.06-0.48-12.07-8.68q-0.06-34.8-0.06-34.92c-0.13-7.11 0.56-12.1 8.25-12.34 4.94-0.16 10.52-0.55 13.78 2.4 3.35 3.05 4.82 5.11 8.47 5.12q3.31 0 20.55 0.06 0.43 0 0.84 0.13 0.4 0.12 0.76 0.35 0.36 0.24 0.64 0.56 0.28 0.33 0.45 0.72l0.11 0.25q0.12 0.27 0.09 0.56-0.02 0.29-0.18 0.54-0.16 0.24-0.41 0.38-0.26 0.14-0.55 0.14-19.44 0.11-24.03-0.13c-3.42-0.18-5.77-2.68-8.77-5.53-2.81-2.68-9.64-1.99-13.86-1.55q-0.15 0.01-0.3 0.05-0.14 0.05-0.28 0.11-0.14 0.07-0.26 0.15-0.12 0.09-0.23 0.2-1.17 1.19-1.26 3.25-0.28 6.61-0.08 7.47 0.03 0.11 0.09 0.2 0.07 0.08 0.17 0.14 0.09 0.05 0.2 0.06 0.11 0.01 0.22-0.02z"/>
</svg>