<?xml version="1.0" encoding="UTF-8" standalone="no"?>
<svg xmlns="http://www.w3.org/2000/svg" version="1.2" baseProfile="tiny" viewBox="0.00 0.00 70.00 70.00">
<path fill="#000000" d="
  M 0.00 36.25
  L 0.00 32.11
  Q 2.31 20.41 8.17 12.93
  Q 12.54 7.35 21.58 3.00
  Q 25.89 0.92 30.76 0.76
  C 38.00 0.53 44.10 0.47 50.75 4.34
  Q 56.70 7.81 59.95 11.33
  C 65.59 17.45 67.04 23.76 68.88 31.60
  Q 69.54 34.38 69.00 36.50
  C 67.76 41.45 66.75 47.11 64.38 51.10
  C 55.88 65.40 39.00 71.97 23.11 66.15
  C 9.97 61.34 2.77 50.00 0.00 36.25
  Z
  M 64.22 34.27
  A 29.40 29.40 0.0 0 0 34.82 4.87
  A 29.40 29.40 0.0 0 0 5.42 34.27
  A 29.40 29.40 0.0 0 0 34.82 63.67
  A 29.40 29.40 0.0 0 0 64.22 34.27
  Z"
/>
<circle fill="#000000" cx="34.88" cy="24.01" r="2.81"/>
<path fill="#000000" d="
  M 36.19 31.37
  A 0.92 0.92 0.0 0 1 37.11 32.30
  L 37.06 44.69
  A 3.29 2.01 -89.8 0 1 35.04 47.97
  L 34.64 47.97
  A 3.29 2.01 -89.8 0 1 32.64 44.67
  L 32.69 32.28
  A 0.92 0.92 0.0 0 1 33.61 31.37
  L 36.19 31.37
  Z"
/>
</svg>
