<?xml version="1.0" encoding="UTF-8" standalone="no"?>
<svg xmlns="http://www.w3.org/2000/svg" version="1.2" baseProfile="tiny" viewBox="0.00 0.00 70.00 70.00">
<path fill="#000000" d="
  M 37.53 70.00
  L 32.51 70.00
  Q 29.75 69.31 27.00 68.63
  Q 12.30 65.00 5.20 52.33
  C -1.06 41.15 -0.74 27.71 6.33 16.88
  Q 15.58 2.71 34.28 1.28
  Q 37.82 1.01 43.81 2.64
  C 57.33 6.32 66.53 16.71 68.82 30.36
  C 71.81 48.20 59.40 65.70 41.52 69.11
  Q 39.51 69.50 37.53 70.00
  Z
  M 64.52 35.58
  A 29.58 29.58 0.0 0 0 34.94 6.00
  A 29.58 29.58 0.0 0 0 5.36 35.58
  A 29.58 29.58 0.0 0 0 34.94 65.16
  A 29.58 29.58 0.0 0 0 64.52 35.58
  Z"
/>
<path fill="#000000" d="
  M 33.46 37.42
  L 18.78 22.75
  A 1.06 1.06 0.0 0 1 18.78 21.25
  L 20.60 19.43
  A 1.06 1.06 0.0 0 1 22.10 19.43
  L 35.60 32.93
  A 1.06 1.06 0.0 0 0 36.35 33.24
  L 49.49 33.24
  A 1.06 1.06 0.0 0 1 50.55 34.30
  L 50.55 36.67
  A 1.06 1.06 0.0 0 1 49.49 37.73
  L 34.21 37.73
  A 1.06 1.06 0.0 0 1 33.46 37.42
  Z"
/>
</svg>
