<?xml version="1.0" encoding="UTF-8" standalone="no"?>
<svg xmlns="http://www.w3.org/2000/svg" version="1.2" baseProfile="tiny" viewBox="0.00 0.00 70.00 70.00">
<path fill="#000000" d="
  M 56.74 18.10
  C 52.94 18.15 49.91 17.65 46.54 14.58
  Q 45.48 13.61 36.38 6.48
  A 0.85 0.84 -45.9 0 0 35.31 6.50
  L 13.55 25.15
  A 1.68 1.67 69.8 0 0 12.97 26.42
  Q 12.97 34.23 12.91 59.51
  C 12.90 62.30 15.06 61.85 17.49 61.87
  Q 19.09 61.89 39.89 61.90
  A 2.01 2.00 69.4 0 1 41.40 62.59
  L 43.40 64.92
  A 0.72 0.72 0.0 0 1 42.84 66.11
  Q 29.57 66.02 17.01 66.05
  C 12.92 66.06 9.36 65.34 9.24 60.46
  Q 9.10 54.39 9.14 29.12
  A 0.34 0.33 -30.3 0 0 8.51 28.96
  Q 7.54 30.66 3.72 32.89
  A 1.78 1.77 -31.5 0 1 1.33 32.32
  L 1.29 32.26
  A 1.95 1.95 0.0 0 1 1.68 29.72
  Q 10.96 21.89 34.02 2.54
  Q 34.74 1.93 37.01 2.06
  A 1.43 1.39 -23.2 0 1 37.79 2.36
  L 56.87 17.71
  A 0.22 0.22 0.0 0 1 56.74 18.10
  Z"
/>
<path fill="#000000" d="
  M 52.70 67.17
  C 51.29 68.58 49.19 67.23 47.94 65.90
  Q 39.60 56.95 35.11 46.71
  Q 31.86 39.29 33.95 32.90
  C 37.02 23.49 46.42 18.29 55.87 20.94
  C 63.06 22.96 67.76 29.37 69.29 36.36
  Q 69.80 38.69 68.63 42.10
  Q 63.83 56.02 52.70 67.17
  Z
  M 50.98 63.06
  Q 51.19 63.06 51.28 62.96
  C 56.43 57.16 60.95 51.03 63.64 43.87
  Q 65.60 38.68 64.34 34.57
  C 63.00 30.18 60.20 26.71 55.73 25.25
  C 54.19 24.74 52.42 24.08 50.98 24.08
  C 49.53 24.08 47.77 24.74 46.23 25.25
  C 41.76 26.71 38.96 30.18 37.62 34.57
  Q 36.36 38.68 38.32 43.87
  C 41.01 51.03 45.53 57.16 50.68 62.96
  Q 50.76 63.06 50.98 63.06
  Z"
/>
<path fill="#000000" d="
  M 56.6034 44.5504
  A 7.88 7.88 0.0 0 1 45.4600 44.6671
  L 44.4598 43.6876
  A 7.88 7.88 0.0 0 1 44.3431 32.5442
  L 45.3366 31.5296
  A 7.88 7.88 0.0 0 1 56.4800 31.4129
  L 57.4802 32.3924
  A 7.88 7.88 0.0 0 1 57.5969 43.5358
  L 56.6034 44.5504
  Z
  M 50.9697 33.1803
  A 4.80 4.63 -90.6 0 0 46.3903 38.0285
  A 4.80 4.63 -90.6 0 0 51.0703 42.7797
  A 4.80 4.63 -90.6 0 0 55.6497 37.9315
  A 4.80 4.63 -90.6 0 0 50.9697 33.1803
  Z"
/>
</svg>
