<?xml version="1.0" encoding="UTF-8" standalone="no"?>
<svg xmlns="http://www.w3.org/2000/svg" version="1.2" baseProfile="tiny" viewBox="0.00 0.00 70.00 70.00">
<path fill="#000000" d="
  M 70.00 34.50
  L 70.00 36.85
  C 68.30 42.99 66.34 49.28 59.42 50.75
  A 3.81 3.38 -48.4 0 1 58.58 50.85
  L 41.14 50.88
  A 2.75 2.75 0.0 0 0 38.40 53.75
  L 38.56 57.60
  A 1.39 1.35 -71.9 0 0 39.04 58.58
  Q 39.11 58.63 39.28 58.82
  A 1.39 1.35 -66.9 0 1 39.64 59.75
  L 39.64 64.92
  A 1.18 1.17 71.8 0 1 39.17 65.86
  C 35.80 68.36 34.57 67.99 30.37 68.02
  A 9.94 9.91 -37.2 0 1 27.72 67.66
  Q 13.83 63.82 6.18 52.30
  Q 3.23 47.85 1.75 41.03
  Q 0.50 35.26 1.92 29.03
  Q 6.32 9.80 25.84 3.49
  A 3.93 3.70 31.5 0 1 26.75 3.30
  C 29.80 2.99 32.85 1.82 35.67 2.11
  Q 40.80 2.65 43.63 3.40
  Q 60.88 8.02 67.28 24.74
  Q 68.51 27.94 70.00 34.50
  Z
  M 35.19 62.91
  Q 35.44 60.48 34.51 59.47
  A 1.82 1.80 -68.3 0 1 34.04 58.36
  Q 33.69 52.12 34.12 51.13
  Q 35.25 48.57 38.06 47.13
  Q 39.74 46.28 43.61 46.35
  Q 49.05 46.45 57.67 46.38
  A 3.04 2.86 -51.5 0 0 58.50 46.26
  C 63.86 44.68 65.00 38.48 64.50 33.89
  C 62.87 19.04 52.36 8.25 37.48 6.87
  Q 31.67 6.33 26.10 8.26
  Q 10.17 13.81 6.34 29.97
  Q 5.14 35.05 6.10 39.73
  C 8.19 49.83 14.49 57.09 23.86 61.53
  C 25.35 62.24 26.96 62.30 28.20 63.09
  A 2.40 2.38 60.7 0 0 29.46 63.45
  L 34.59 63.45
  A 0.60 0.59 2.6 0 0 35.19 62.91
  Z"
/>
<circle fill="#000000" cx="26.61" cy="19.90" r="3.99"/>
<circle fill="#000000" cx="43.64" cy="19.90" r="3.99"/>
<circle fill="#000000" cx="15.48" cy="33.53" r="3.97"/>
<circle fill="#000000" cx="54.85" cy="33.54" r="3.95"/>
</svg>
