<?xml version="1.0" encoding="UTF-8" standalone="no"?>
<svg xmlns="http://www.w3.org/2000/svg" version="1.2" baseProfile="tiny" viewBox="0.00 0.00 70.00 70.00">
<path fill="#000000" d="
  M 7.27 7.26
  Q 5.83 8.70 5.81 9.77
  Q 5.71 14.85 5.74 20.40
  A 2.11 2.11 0.0 0 1 3.43 22.51
  L 3.30 22.50
  A 2.52 2.50 2.5 0 1 0.99 20.00
  L 1.03 9.34
  A 3.37 3.37 0.0 0 1 1.45 7.71
  C 2.26 6.24 2.66 4.80 3.74 3.72
  C 4.82 2.64 6.27 2.25 7.74 1.44
  A 3.37 3.37 0.0 0 1 9.37 1.02
  L 20.03 1.01
  A 2.52 2.50 87.7 0 1 22.52 3.33
  L 22.53 3.46
  A 2.11 2.11 0.0 0 1 20.42 5.77
  Q 14.87 5.72 9.79 5.80
  Q 8.71 5.82 7.27 7.26
  Z"
/>
<path fill="#000000" d="
  M 65.27 3.68
  C 66.36 4.76 66.75 6.20 67.56 7.67
  A 3.37 3.37 0.0 0 1 67.99 9.30
  L 68.03 19.94
  A 2.51 2.49 -2.5 0 1 65.73 22.44
  L 65.60 22.45
  A 2.11 2.11 0.0 0 1 63.29 20.35
  Q 63.31 14.80 63.22 9.73
  Q 63.20 8.66 61.75 7.22
  Q 60.31 5.78 59.24 5.77
  Q 54.16 5.69 48.62 5.74
  A 2.11 2.11 0.0 0 1 46.50 3.44
  L 46.51 3.31
  A 2.51 2.49 -87.7 0 1 49.00 0.99
  L 59.65 1.00
  A 3.37 3.37 0.0 0 1 61.28 1.41
  C 62.75 2.21 64.20 2.61 65.27 3.68
  Z"
/>
<rect fill="#000000" x="-2.39" y="-5.34" transform="translate(20.13,25.49) rotate(0.2)" width="4.78" height="10.68" rx="2.28"/>
<path fill="#000000" d="
  M 36.28 20.16
  A 2.31 2.31 0.0 0 1 38.65 22.31
  Q 38.97 27.11 38.81 33.76
  C 38.72 37.47 37.75 40.62 33.67 41.46
  C 31.41 41.93 29.87 39.99 30.63 37.90
  A 0.89 0.87 -5.1 0 1 31.02 37.44
  L 32.93 36.34
  A 1.66 1.65 75.5 0 0 33.76 34.92
  L 33.93 22.42
  A 2.29 2.28 -90.0 0 1 36.18 20.16
  L 36.28 20.16
  Z"
/>
<rect fill="#000000" x="-2.38" y="-5.33" transform="translate(48.88,25.49) rotate(-0.2)" width="4.76" height="10.66" rx="2.27"/>
<path fill="#000000" d="
  M 35.03 54.81
  C 29.72 54.95 24.88 53.06 21.36 49.42
  A 2.63 2.45 -45.1 0 1 21.48 45.88
  Q 22.64 44.68 23.86 45.49
  C 27.24 47.73 30.16 50.23 34.91 50.11
  C 39.65 49.98 42.43 47.33 45.69 44.91
  Q 46.87 44.03 48.09 45.17
  A 2.63 2.45 42.0 0 1 48.40 48.70
  C 45.07 52.52 40.34 54.67 35.03 54.81
  Z"
/>
<path fill="#000000" d="
  M 3.71 65.30
  C 2.64 64.22 2.24 62.77 1.44 61.30
  A 3.37 3.37 0.0 0 1 1.02 59.67
  L 1.00 49.02
  A 2.51 2.49 -2.4 0 1 3.31 46.52
  L 3.44 46.51
  A 2.11 2.11 0.0 0 1 5.75 48.63
  Q 5.71 54.17 5.79 59.25
  Q 5.81 60.33 7.25 61.77
  Q 8.69 63.21 9.76 63.23
  Q 14.84 63.32 20.39 63.28
  A 2.11 2.11 0.0 0 1 22.50 65.59
  L 22.49 65.72
  A 2.51 2.49 -87.6 0 1 19.99 68.03
  L 9.34 68.00
  A 3.37 3.37 0.0 0 1 7.71 67.58
  C 6.24 66.77 4.79 66.38 3.71 65.30
  Z"
/>
<path fill="#000000" d="
  M 65.28 65.29
  C 64.20 66.36 62.76 66.76 61.29 67.56
  A 3.37 3.37 0.0 0 1 59.66 67.98
  L 49.02 68.00
  A 2.51 2.49 87.6 0 1 46.53 65.69
  L 46.52 65.56
  A 2.11 2.11 0.0 0 1 48.63 63.26
  Q 54.17 63.30 59.24 63.21
  Q 60.31 63.20 61.75 61.76
  Q 63.19 60.32 63.21 59.25
  Q 63.30 54.18 63.26 48.64
  A 2.11 2.11 0.0 0 1 65.57 46.53
  L 65.70 46.54
  A 2.51 2.49 2.4 0 1 68.00 49.03
  L 67.98 59.67
  A 3.37 3.37 0.0 0 1 67.56 61.30
  C 66.75 62.77 66.36 64.21 65.28 65.29
  Z"
/>
</svg>
