<?xml version="1.0" encoding="UTF-8" standalone="no"?>
<svg xmlns="http://www.w3.org/2000/svg" version="1.2" baseProfile="tiny" viewBox="0.00 0.00 70.00 70.00">
<path fill="#000000" d="
  M 7.96 5.26
  L 8.06 5.51
  A 0.13 0.13 0.0 0 0 8.31 5.50
  Q 9.01 2.72 12.12 1.24
  A 2.06 2.04 -57.2 0 1 12.98 1.05
  Q 30.73 0.88 37.08 1.12
  Q 39.04 1.20 42.08 3.95
  Q 47.86 9.17 58.89 19.84
  Q 61.56 22.43 61.30 23.93
  A 0.47 0.47 0.0 0 0 61.87 24.47
  Q 61.97 24.44 62.01 24.30
  A 0.36 0.35 50.5 0 1 62.71 24.37
  L 63.15 33.16
  A 1.42 1.41 -7.7 0 1 62.04 34.61
  L 59.12 35.23
  A 1.22 1.22 0.0 0 1 57.64 34.04
  L 57.64 27.20
  A 1.27 1.26 90.0 0 0 56.38 25.93
  L 40.05 25.93
  A 1.55 1.45 56.9 0 1 39.36 25.76
  Q 36.29 24.19 36.25 21.90
  Q 36.09 13.38 36.19 6.19
  A 0.63 0.63 0.0 0 0 35.56 5.55
  L 13.99 5.55
  A 1.63 1.63 0.0 0 0 12.36 7.18
  L 12.36 63.20
  A 1.24 1.24 0.0 0 0 13.60 64.44
  L 21.01 64.44
  A 1.70 1.70 0.0 0 1 22.67 66.48
  L 22.65 66.61
  A 2.83 2.83 0.0 0 1 19.98 68.88
  C 15.65 69.02 10.73 69.93 8.37 65.04
  A 0.35 0.34 52.6 0 0 7.80 64.96
  Q 7.75 65.02 7.71 65.19
  A 0.20 0.20 0.0 0 1 7.39 65.30
  Q 7.01 64.98 7.01 64.24
  Q 6.99 38.00 7.01 6.27
  Q 7.02 5.63 7.31 5.19
  A 0.37 0.37 0.0 0 1 7.96 5.26
  Z
  M 40.65 20.88
  A 0.64 0.64 0.0 0 0 41.29 21.52
  L 52.16 21.52
  A 0.64 0.64 0.0 0 0 52.62 20.43
  L 41.74 9.55
  A 0.64 0.64 0.0 0 0 40.65 10.01
  L 40.65 20.88
  Z"
/>
<path fill="#000000" d="
  M 58.58 48.28
  L 61.04 50.88
  A 4.76 4.76 0.0 0 1 61.05 57.41
  L 58.60 60.02
  A 4.76 4.76 0.0 0 0 57.51 61.92
  L 56.49 65.35
  A 4.76 4.76 0.0 0 1 50.83 68.63
  L 47.35 67.81
  A 4.76 4.76 0.0 0 0 45.16 67.81
  L 41.68 68.64
  A 4.76 4.76 0.0 0 1 36.01 65.39
  L 34.98 61.96
  A 4.76 4.76 0.0 0 0 33.88 60.06
  L 31.42 57.46
  A 4.76 4.76 0.0 0 1 31.41 50.93
  L 33.86 48.32
  A 4.76 4.76 0.0 0 0 34.95 46.42
  L 35.97 42.99
  A 4.76 4.76 0.0 0 1 41.63 39.71
  L 45.11 40.53
  A 4.76 4.76 0.0 0 0 47.30 40.53
  L 50.78 39.70
  A 4.76 4.76 0.0 0 1 56.45 42.95
  L 57.48 46.38
  A 4.76 4.76 0.0 0 0 58.58 48.28
  Z
  M 53.57 50.26
  A 1.09 1.09 0.0 0 1 53.22 49.65
  L 52.31 45.05
  A 1.09 1.09 0.0 0 0 50.89 44.23
  L 46.46 45.76
  A 1.09 1.09 0.0 0 1 45.75 45.76
  L 41.32 44.24
  A 1.09 1.09 0.0 0 0 39.89 45.07
  L 39.00 49.67
  A 1.09 1.09 0.0 0 1 38.65 50.28
  L 35.12 53.37
  A 1.09 1.09 0.0 0 0 35.13 55.01
  L 38.67 58.08
  A 1.09 1.09 0.0 0 1 39.02 58.69
  L 39.93 63.29
  A 1.09 1.09 0.0 0 0 41.35 64.11
  L 45.78 62.58
  A 1.09 1.09 0.0 0 1 46.49 62.58
  L 50.92 64.10
  A 1.09 1.09 0.0 0 0 52.35 63.27
  L 53.24 58.67
  A 1.09 1.09 0.0 0 1 53.59 58.06
  L 57.12 54.97
  A 1.09 1.09 0.0 0 0 57.11 53.33
  L 53.57 50.26
  Z"
/>
</svg>
