<?xml version="1.0" encoding="UTF-8" standalone="no"?>
<svg xmlns="http://www.w3.org/2000/svg" version="1.2" baseProfile="tiny" viewBox="0.00 0.00 70.00 70.00">
<path fill="#000000" d="
  M 50.6698 16.0367
  A 15.91 15.68 -0.3 0 1 34.8421 31.7998
  A 15.91 15.68 -0.3 0 1 18.8502 16.2033
  A 15.91 15.68 -0.3 0 1 34.6779 0.4402
  A 15.91 15.68 -0.3 0 1 50.6698 16.0367
  Z
  M 45.91 16.10
  A 11.19 11.19 0.0 0 0 34.72 4.91
  A 11.19 11.19 0.0 0 0 23.53 16.10
  A 11.19 11.19 0.0 0 0 34.72 27.29
  A 11.19 11.19 0.0 0 0 45.91 16.10
  Z"
/>
<path fill="#000000" d="
  M 9.68 69.09
  A 7.86 7.86 0.0 0 1 1.82 61.23
  L 1.82 60.87
  A 23.68 22.81 -90.0 0 1 24.63 37.19
  L 45.03 37.19
  A 23.68 22.81 90.0 0 1 67.84 60.87
  L 67.84 61.23
  A 7.86 7.86 0.0 0 1 59.98 69.09
  L 9.68 69.09
  Z
  M 10.13 64.91
  L 59.37 64.83
  A 3.37 3.37 0.0 0 0 62.73 61.45
  L 62.73 60.22
  A 19.16 19.15 89.9 0 0 43.55 41.09
  L 25.87 41.13
  A 19.16 19.15 89.9 0 0 6.75 60.32
  L 6.75 61.55
  A 3.37 3.37 0.0 0 0 10.13 64.91
  Z"
/>
</svg>
