<svg version="1.2" xmlns="http://www.w3.org/2000/svg" viewBox="0 0 256 256" width="256" height="256">
	<g>
		<g>
			<path fill-rule="evenodd" fill="#285ff4" d="m192 13.33c16.2 0 29.33 13.13 29.33 29.34v170.54c0 16.19-13.13 29.33-29.33 29.33h-117.33c-16.21 0-29.34-13.14-29.34-29.33v-23.88h-2.66c-4.42 0-8-3.58-8-8 0-4.41 3.58-8 8-8h2.66v-37.33h-2.66c-4.42 0-8-3.58-8-8 0-4.42 3.58-8 8-8h2.66v-37.33h-2.66c-4.42 0-8-3.59-8-8 0-4.42 3.58-8 8-8h2.66v-24c0-16.21 13.13-29.34 29.34-29.34zm-130.67 29.34v24h2.67c4.41 0 8 3.58 8 8 0 4.41-3.59 8-8 8h-2.67v37.33h2.67c4.41 0 8 3.58 8 8 0 4.42-3.59 8-8 8h-2.67v37.33h2.67c4.41 0 8 3.59 8 8 0 4.42-3.59 8-8 8h-2.67v23.88c0 7.36 5.97 13.33 13.33 13.33h117.34c7.36 0 13.33-5.97 13.33-13.33v-170.54c0-7.36-5.97-13.34-13.33-13.34h-117.34c-7.36 0-13.33 5.98-13.33 13.34zm106.67 64c0 16.19-13.14 29.33-29.34 29.33-16.19 0-29.33-13.14-29.33-29.33 0-16.2 13.14-29.34 29.33-29.34 16.2 0 29.34 13.14 29.34 29.34zm-42.67 0c0 7.36 5.97 13.33 13.33 13.33 7.36 0 13.34-5.97 13.34-13.33 0-7.36-5.98-13.34-13.34-13.34-7.36 0-13.33 5.98-13.33 13.34zm31.17 34.66c7.77 0 15.22 3.09 20.73 8.59 4.49 4.49 9.75 9.77 9.75 9.77 3.12 3.11 3.12 8.17 0 11.29-3.12 3.12-8.18 3.12-11.3 0 0 0-5.28-5.26-9.77-9.75-2.49-2.5-5.88-3.9-9.41-3.9h-35.67c-3.53 0-6.92 1.4-9.42 3.9-4.49 4.49-9.77 9.75-9.77 9.75-3.11 3.12-8.17 3.12-11.29 0-3.12-3.12-3.12-8.18 0-11.29 0 0 5.26-5.28 9.75-9.77 5.5-5.5 12.95-8.59 20.73-8.59z"/>
		</g>
	</g>
</svg>