<?xml version="1.0" encoding="UTF-8" standalone="no"?>
<svg xmlns="http://www.w3.org/2000/svg" version="1.2" baseProfile="tiny" viewBox="0.00 0.00 70.00 70.00">
<path fill="#000000" d="
  M 28.95 5.93
  Q 25.07 6.34 21.78 6.04
  A 1.82 1.82 0.0 0 0 19.80 7.85
  L 19.80 9.72
  A 1.39 1.39 0.0 0 0 21.19 11.11
  L 39.22 11.11
  A 2.58 2.57 88.2 0 1 41.79 13.53
  L 41.81 13.88
  A 2.19 2.18 88.3 0 1 39.63 16.20
  L 21.30 16.20
  A 0.71 0.71 0.0 0 0 20.59 16.91
  L 20.59 35.34
  A 2.23 2.23 0.0 0 1 18.36 37.57
  L 17.57 37.57
  A 1.40 1.39 -0.0 0 1 16.17 36.18
  L 16.17 5.61
  A 2.30 2.25 60.6 0 1 16.48 4.46
  C 17.93 1.95 20.03 1.00 23.28 1.00
  Q 38.64 0.98 47.63 1.03
  A 2.82 2.81 85.1 0 1 50.39 3.36
  L 50.40 3.48
  A 2.49 2.48 87.9 0 1 47.89 6.19
  L 29.04 5.93
  Q 28.99 5.93 28.95 5.93
  Z"
/>
<path fill="#000000" d="
  M 4.68 61.13
  Q 32.37 32.99 57.24 7.91
  C 59.88 5.25 60.65 3.64 64.37 4.68
  A 0.77 0.76 8.1 0 1 64.93 5.41
  L 64.93 7.27
  A 0.44 0.43 3.5 0 1 64.44 7.70
  Q 64.17 7.66 64.10 7.67
  A 1.37 1.35 -68.2 0 0 63.19 8.07
  L 54.68 16.61
  A 4.27 4.26 -22.7 0 0 53.43 19.65
  Q 53.46 50.29 53.38 62.59
  Q 53.36 65.82 50.14 67.72
  A 1.86 1.84 29.7 0 1 49.21 67.97
  Q 32.85 68.05 20.03 67.97
  Q 18.73 67.96 16.55 65.66
  A 1.92 1.92 0.0 0 1 16.05 64.60
  L 15.21 58.19
  A 0.72 0.72 0.0 0 0 13.98 57.77
  L 7.30 64.45
  A 0.69 0.67 -66.1 0 1 6.83 64.64
  L 3.63 64.64
  A 0.59 0.59 0.0 0 1 3.04 64.05
  L 3.04 61.83
  A 0.52 0.51 3.5 0 1 3.62 61.32
  Q 3.80 61.34 3.93 61.37
  A 0.88 0.86 26.7 0 0 4.68 61.13
  Z
  M 48.31 46.82
  A 0.62 0.62 0.0 0 0 48.93 46.20
  L 48.93 24.42
  A 0.62 0.62 0.0 0 0 47.87 23.98
  L 26.10 45.76
  A 0.62 0.62 0.0 0 0 26.54 46.82
  L 48.31 46.82
  Z
  M 48.9106 52.0153
  A 0.79 0.79 0.0 0 0 48.1192 51.2267
  L 21.3593 51.2734
  A 0.79 0.79 0.0 0 0 20.5707 52.0647
  L 20.5894 62.7847
  A 0.79 0.79 0.0 0 0 21.3808 63.5733
  L 48.1407 63.5266
  A 0.79 0.79 0.0 0 0 48.9293 62.7353
  L 48.9106 52.0153
  Z"
/>
<ellipse fill="#000000" cx="0.00" cy="0.00" transform="translate(34.75,56.56) rotate(-105.2)" rx="3.05" ry="2.86"/>
</svg>
