<?xml version="1.0" encoding="UTF-8" standalone="no"?>
<svg xmlns="http://www.w3.org/2000/svg" version="1.2" baseProfile="tiny" viewBox="0.00 0.00 70.00 70.00">
<path fill="#000000" d="
  M 68.34 34.95
  A 33.35 33.35 0.0 0 1 34.99 68.30
  A 33.35 33.35 0.0 0 1 1.64 34.95
  A 33.35 33.35 0.0 0 1 34.99 1.60
  A 33.35 33.35 0.0 0 1 68.34 34.95
  Z
  M 34.94 19.17
  Q 39.91 19.18 44.65 19.17
  A 0.82 0.82 0.0 0 0 45.35 17.93
  Q 41.46 11.41 35.28 6.62
  Q 35.16 6.52 35.15 6.52
  Q 35.05 6.50 34.96 6.50
  Q 34.87 6.50 34.77 6.52
  Q 34.76 6.52 34.64 6.62
  Q 28.44 11.39 24.53 17.90
  A 0.82 0.82 0.0 0 0 25.23 19.14
  Q 29.97 19.16 34.94 19.17
  Z
  M 11.66 19.21
  L 18.27 19.21
  A 0.93 0.93 0.0 0 0 19.10 18.69
  Q 21.68 13.36 25.71 8.66
  A 0.48 0.48 0.0 0 0 25.49 7.89
  Q 25.19 7.80 24.96 7.89
  Q 17.20 10.83 11.26 18.39
  A 0.51 0.50 18.8 0 0 11.66 19.21
  Z
  M 58.27 19.25
  A 0.51 0.50 -18.0 0 0 58.68 18.45
  Q 52.84 10.80 45.12 7.74
  Q 44.89 7.65 44.59 7.74
  A 0.48 0.48 0.0 0 0 44.35 8.51
  Q 48.32 13.26 50.84 18.63
  A 0.93 0.93 0.0 0 0 51.66 19.16
  L 58.27 19.25
  Z
  M 5.65 35.09
  C 5.70 38.60 7.08 42.99 8.34 46.14
  A 0.32 0.32 0.0 0 0 8.63 46.33
  L 17.18 46.33
  A 0.24 0.24 0.0 0 0 17.42 46.03
  Q 15.56 37.24 15.71 34.95
  Q 15.49 32.66 17.10 23.82
  A 0.24 0.24 0.0 0 0 16.86 23.53
  L 8.31 23.77
  A 0.32 0.32 0.0 0 0 8.02 23.97
  C 6.85 27.15 5.60 31.58 5.65 35.09
  Z
  M 20.55 27.61
  L 20.53 42.31
  A 4.04 4.04 0.0 0 0 24.56 46.36
  L 46.18 46.40
  A 11.25 3.46 -89.9 0 0 49.66 35.16
  L 49.66 34.88
  A 11.25 3.46 -89.9 0 0 46.22 23.62
  L 24.60 23.58
  A 4.04 4.04 0.0 0 0 20.55 27.61
  Z
  M 53.39 46.36
  L 60.35 46.36
  A 1.46 1.46 0.0 0 0 61.62 45.62
  C 64.05 41.34 63.93 34.61 63.19 29.64
  A 5.42 5.35 29.7 0 0 62.84 28.40
  Q 62.29 27.13 62.18 25.62
  A 2.18 2.17 -2.1 0 0 60.01 23.61
  L 54.53 23.61
  A 1.50 1.50 0.0 0 0 53.03 25.20
  Q 53.14 27.06 54.01 29.33
  A 3.23 2.87 -61.5 0 1 54.20 30.15
  Q 54.71 35.91 53.50 40.24
  Q 53.39 40.63 52.81 45.72
  A 0.58 0.58 0.0 0 0 53.39 46.36
  Z
  M 11.64 50.86
  A 0.51 0.51 0.0 0 0 11.24 51.69
  Q 17.34 59.32 25.25 62.24
  Q 25.49 62.33 25.79 62.24
  A 0.49 0.49 0.0 0 0 26.01 61.45
  Q 21.87 56.71 19.20 51.32
  A 0.94 0.94 0.0 0 0 18.35 50.80
  L 11.64 50.86
  Z
  M 45.02 53.32
  A 1.47 1.47 0.0 0 0 43.94 50.86
  L 26.17 50.80
  A 1.47 1.47 0.0 0 0 25.07 53.26
  L 33.93 63.04
  A 1.47 1.47 0.0 0 0 36.10 63.05
  L 45.02 53.32
  Z
  M 58.45 50.84
  L 51.70 50.84
  A 0.95 0.95 0.0 0 0 50.85 51.37
  Q 48.21 56.82 44.09 61.62
  A 0.49 0.49 0.0 0 0 44.32 62.41
  Q 44.62 62.50 44.86 62.41
  Q 52.79 59.40 58.86 51.67
  A 0.52 0.52 0.0 0 0 58.45 50.84
  Z"
/>
</svg>
