<?xml version="1.0" encoding="UTF-8" standalone="no"?>
<svg xmlns="http://www.w3.org/2000/svg" version="1.2" baseProfile="tiny" viewBox="0.00 0.00 70.00 70.00">
<path fill="#000000" d="
  M 34.99 0.95
  Q 35.97 0.95 36.92 2.28
  A 1.27 1.23 27.9 0 1 37.16 3.01
  L 37.16 5.87
  A 0.95 0.95 0.0 0 0 37.93 6.80
  Q 53.29 9.77 56.90 24.46
  C 58.00 28.90 57.62 34.03 57.64 38.83
  A 3.43 3.42 25.0 0 0 58.43 40.99
  L 64.85 48.65
  A 0.93 0.93 0.0 0 1 65.03 49.01
  Q 66.53 54.50 62.30 57.07
  C 59.21 58.95 52.55 58.08 48.28 58.18
  A 0.37 0.36 -88.3 0 0 47.92 58.53
  Q 47.60 65.67 42.04 68.44
  A 3.51 3.47 29.5 0 1 40.75 68.79
  Q 39.51 68.88 35.01 68.88
  Q 30.50 68.88 29.26 68.79
  A 3.51 3.47 -29.6 0 1 27.97 68.44
  Q 22.41 65.68 22.09 58.54
  A 0.37 0.36 88.3 0 0 21.73 58.19
  C 17.46 58.09 10.80 58.96 7.71 57.08
  Q 3.48 54.51 4.97 49.02
  A 0.93 0.93 0.0 0 1 5.15 48.66
  L 11.57 41.00
  A 3.43 3.42 -25.0 0 0 12.36 38.84
  C 12.38 34.04 11.99 28.91 13.09 24.47
  Q 16.70 9.78 32.05 6.80
  A 0.95 0.95 0.0 0 0 32.82 5.87
  L 32.82 3.01
  A 1.27 1.23 -27.9 0 1 33.06 2.28
  Q 34.02 0.95 34.99 0.95
  Z
  M 34.99 53.82
  Q 58.06 53.84 59.32 53.79
  A 1.67 1.67 0.0 0 0 60.90 52.39
  C 61.34 49.73 57.58 46.60 55.53 44.53
  A 3.84 3.71 -82.2 0 1 54.85 43.60
  L 53.53 41.04
  A 1.61 1.61 0.0 0 1 53.36 40.32
  Q 53.33 33.91 53.35 32.29
  C 53.46 20.47 47.64 12.28 35.24 10.71
  Q 35.07 10.69 35.02 10.69
  Q 34.97 10.69 34.80 10.71
  C 22.40 12.26 16.56 20.44 16.65 32.26
  Q 16.67 33.88 16.63 40.29
  A 1.61 1.61 0.0 0 1 16.46 41.01
  L 15.14 43.57
  A 3.84 3.71 82.3 0 1 14.46 44.50
  C 12.40 46.57 8.64 49.69 9.07 52.35
  A 1.67 1.67 0.0 0 0 10.66 53.75
  Q 11.91 53.80 34.99 53.82
  Z
  M 43.12 58.16
  L 26.88 58.16
  A 0.50 0.50 0.0 0 0 26.38 58.66
  L 26.38 59.10
  A 5.54 4.65 90.0 0 0 31.03 64.64
  L 38.97 64.64
  A 5.54 4.65 -90.0 0 0 43.62 59.10
  L 43.62 58.66
  A 0.50 0.50 0.0 0 0 43.12 58.16
  Z"
/>
</svg>
