<?xml version="1.0" encoding="UTF-8" standalone="no"?>
<svg xmlns="http://www.w3.org/2000/svg" version="1.2" baseProfile="tiny" viewBox="0.00 0.00 70.00 70.00">
<path fill="#000000" d="
  M 9.61 44.48
  A 0.65 0.64 83.4 0 0 10.14 43.81
  C 9.97 40.75 9.70 36.79 13.81 36.31
  Q 16.05 36.05 18.98 36.12
  A 1.82 1.81 23.1 0 0 20.31 35.59
  L 27.20 28.70
  A 1.07 1.06 -31.2 0 0 27.46 27.65
  Q 26.50 24.43 26.85 20.82
  C 27.82 11.03 34.31 3.94 43.98 1.67
  C 49.48 0.37 55.40 2.05 59.73 4.80
  C 67.77 9.91 71.27 20.18 68.07 29.38
  Q 64.38 39.95 52.35 43.19
  A 1.10 0.99 34.1 0 1 52.06 43.23
  L 42.59 43.23
  A 2.90 2.86 22.2 0 0 40.55 44.07
  Q 21.37 63.32 17.57 67.07
  Q 16.68 67.94 14.69 68.83
  A 1.90 1.83 32.0 0 1 13.93 68.99
  L 8.83 68.99
  A 1.64 1.54 -29.2 0 1 8.07 68.80
  Q 4.64 66.94 2.70 63.78
  A 2.34 2.33 -64.1 0 1 2.38 62.85
  L 0.97 49.35
  A 1.13 1.07 -43.4 0 1 0.99 48.99
  C 2.11 44.01 6.06 45.11 9.61 44.48
  Z
  M 14.88 41.56
  L 14.88 48.72
  A 0.81 0.80 90.0 0 1 14.08 49.53
  L 7.74 49.53
  A 1.88 1.87 -3.0 0 0 5.87 51.60
  Q 6.73 59.72 6.88 60.90
  A 4.02 3.60 -86.3 0 0 9.40 64.11
  Q 12.02 64.96 14.10 63.79
  Q 14.49 63.57 17.66 60.43
  Q 34.76 43.47 40.37 37.76
  A 1.13 1.11 -63.5 0 1 41.33 37.43
  C 41.80 37.49 42.38 38.03 43.07 38.19
  Q 53.30 40.49 59.62 34.28
  Q 63.05 30.90 64.08 26.54
  C 66.33 17.04 60.97 9.09 51.70 6.30
  C 46.01 4.59 38.88 7.62 35.37 12.02
  Q 29.20 19.76 32.74 28.75
  A 1.18 1.16 -33.4 0 1 32.48 29.99
  L 22.00 40.47
  A 1.24 1.23 -67.0 0 1 21.14 40.82
  L 15.61 40.82
  A 0.74 0.73 -90.0 0 0 14.88 41.56
  Z"
/>
<path fill="#000000" d="
  M 57.30 20.52
  A 7.79 7.79 0.0 0 1 49.51 28.31
  A 7.79 7.79 0.0 0 1 41.72 20.52
  A 7.79 7.79 0.0 0 1 49.51 12.73
  A 7.79 7.79 0.0 0 1 57.30 20.52
  Z
  M 52.52 20.56
  A 3.02 3.02 0.0 0 0 49.50 17.54
  A 3.02 3.02 0.0 0 0 46.48 20.56
  A 3.02 3.02 0.0 0 0 49.50 23.58
  A 3.02 3.02 0.0 0 0 52.52 20.56
  Z"
/>
</svg>
