<?xml version="1.0" encoding="UTF-8" standalone="no"?>
<svg xmlns="http://www.w3.org/2000/svg" version="1.2" baseProfile="tiny" viewBox="0.00 0.00 70.00 70.00">
<path fill="#000000" d="
  M 36.20 0.00
  L 43.93 1.46
  A 0.78 0.43 -16.0 0 1 44.06 1.49
  Q 64.77 8.48 68.96 29.88
  A 2.04 2.04 0.0 0 1 67.48 32.24
  L 67.19 32.33
  A 1.84 1.83 -17.5 0 1 64.89 31.14
  L 62.36 23.16
  A 0.85 0.85 0.0 0 0 61.55 22.57
  L 52.00 22.57
  A 0.67 0.67 0.0 0 0 51.46 23.64
  C 53.30 26.14 51.42 28.23 48.75 27.73
  A 1.20 1.15 -11.5 0 1 48.01 27.26
  Q 46.50 25.15 46.48 23.52
  A 0.57 0.57 0.0 0 0 45.91 22.96
  L 24.91 22.96
  A 2.20 2.19 3.7 0 0 22.73 24.87
  L 21.61 33.48
  A 8.74 8.68 43.5 0 0 21.69 36.23
  C 22.20 38.91 22.26 42.35 23.53 45.57
  A 0.70 0.70 0.0 0 0 24.19 46.03
  L 31.36 46.03
  A 1.92 1.91 0.0 0 1 33.28 47.94
  L 33.28 48.69
  A 1.89 1.89 0.0 0 1 31.39 50.58
  L 26.54 50.58
  A 0.93 0.93 0.0 0 0 25.77 52.04
  C 26.73 53.44 26.97 54.60 28.01 55.76
  Q 29.61 57.53 29.23 59.94
  A 0.79 0.79 0.0 0 1 28.76 60.54
  Q 27.35 61.18 26.23 60.81
  A 2.00 1.95 -11.4 0 1 25.44 60.30
  Q 22.57 57.12 21.45 54.36
  Q 20.89 52.98 19.71 51.36
  A 0.80 0.79 72.1 0 0 19.06 51.02
  L 11.53 51.02
  A 0.99 0.98 73.9 0 0 10.70 52.53
  Q 12.29 55.07 14.63 57.05
  Q 22.25 63.49 32.05 64.61
  A 0.86 0.86 0.0 0 1 32.73 65.08
  Q 33.80 67.16 32.98 68.07
  Q 31.77 69.44 29.87 69.07
  Q 12.21 65.63 4.03 49.96
  C 2.45 46.94 1.30 42.89 0.00 39.35
  L 0.00 30.12
  Q 1.33 26.59 2.66 23.05
  Q 8.33 7.92 23.03 2.28
  C 25.98 1.15 29.67 0.86 33.00 0.00
  L 36.20 0.00
  Z
  M 41.55 6.64
  Q 46.61 12.39 48.96 17.93
  A 1.54 1.54 0.0 0 0 50.35 18.87
  Q 55.28 18.96 58.31 18.84
  A 1.55 1.52 -2.4 0 0 59.80 17.25
  Q 59.79 17.00 59.44 16.58
  Q 58.08 14.90 53.26 10.27
  C 51.61 8.68 45.56 4.87 42.14 5.15
  A 0.90 0.89 66.8 0 0 41.55 6.64
  Z
  M 27.95 6.24
  A 0.38 0.38 0.0 0 0 27.59 5.66
  C 21.02 6.45 14.26 12.16 10.27 17.44
  A 0.61 0.60 18.5 0 0 10.76 18.41
  L 18.78 18.41
  A 1.55 1.53 10.0 0 0 20.23 17.41
  C 21.37 14.40 23.23 11.16 25.75 8.69
  Q 27.35 7.13 27.95 6.24
  Z
  M 25.99 15.90
  A 1.51 1.51 0.0 0 0 27.11 18.42
  L 42.83 18.42
  A 1.51 1.51 0.0 0 0 43.95 15.90
  L 36.09 7.14
  A 1.51 1.51 0.0 0 0 33.85 7.14
  L 25.99 15.90
  Z
  M 6.52 23.55
  Q 3.17 33.96 6.94 44.70
  A 1.99 1.98 -9.5 0 0 8.82 46.03
  L 16.84 46.03
  A 0.99 0.99 0.0 0 0 17.82 44.92
  C 17.63 43.33 16.69 41.56 16.63 39.67
  Q 16.50 35.07 16.63 29.14
  A 4.05 3.93 58.2 0 1 16.95 27.67
  Q 17.82 25.67 17.80 23.55
  A 0.59 0.59 0.0 0 0 17.21 22.96
  L 7.34 22.96
  A 0.87 0.86 -80.6 0 0 6.52 23.55
  Z"
/>
<path fill="#000000" d="
  M 70.00 44.25
  L 70.00 67.39
  L 67.80 68.70
  A 2.08 2.02 29.3 0 1 66.78 68.97
  L 42.11 68.97
  A 2.51 2.51 0.0 0 1 39.60 66.46
  L 39.60 33.80
  A 1.39 1.37 -16.6 0 1 40.24 32.64
  L 42.19 31.41
  A 1.90 1.84 27.5 0 1 43.16 31.12
  Q 45.69 31.09 54.50 31.10
  C 56.43 31.10 57.74 31.74 59.21 33.18
  Q 64.68 38.54 70.00 44.25
  Z
  M 51.38 35.65
  L 45.06 35.65
  A 0.85 0.84 0.0 0 0 44.21 36.49
  L 44.21 63.95
  A 0.63 0.62 -0.0 0 0 44.84 64.57
  L 64.24 64.57
  A 0.61 0.61 0.0 0 0 64.85 63.96
  L 64.85 49.85
  A 0.63 0.62 88.7 0 0 64.20 49.22
  C 60.47 49.39 54.87 49.86 52.58 46.82
  A 1.39 1.33 27.6 0 1 52.30 46.00
  L 52.30 36.58
  A 0.93 0.92 90.0 0 0 51.38 35.65
  Z
  M 56.83 38.08
  L 56.83 43.90
  A 0.63 0.62 3.1 0 0 57.39 44.52
  Q 60.61 44.90 62.40 44.42
  A 0.71 0.71 0.0 0 0 62.72 43.23
  L 57.36 37.87
  A 0.31 0.31 0.0 0 0 56.83 38.08
  Z"
/>
</svg>
