<?xml version="1.0" encoding="UTF-8" standalone="no"?>
<svg xmlns="http://www.w3.org/2000/svg" version="1.2" baseProfile="tiny" viewBox="0.00 0.00 70.00 70.00">
<path fill="#000000" d="
  M 57.01 65.46
  A 1.65 1.64 -73.6 0 1 54.60 66.78
  L 36.94 57.41
  A 3.07 3.06 45.1 0 0 34.06 57.40
  L 15.98 66.97
  A 1.21 1.21 0.0 0 1 14.21 66.04
  C 14.09 65.06 14.13 62.91 14.38 61.65
  Q 15.92 53.92 16.73 47.54
  C 17.00 45.37 18.33 44.65 16.19 42.60
  Q 5.17 32.07 2.78 29.52
  Q 1.76 28.43 2.17 26.76
  A 0.64 0.62 -0.2 0 1 2.64 26.30
  L 8.68 24.93
  A 2.88 2.47 35.4 0 1 9.34 24.87
  Q 11.84 24.94 15.40 24.08
  C 17.57 23.56 19.70 23.72 21.87 23.36
  C 24.42 22.93 25.00 21.56 26.26 19.03
  Q 31.76 8.04 33.64 4.05
  A 2.00 2.00 0.0 0 1 37.22 3.98
  Q 37.89 5.29 45.46 20.50
  C 46.94 23.48 49.98 23.88 52.65 23.69
  C 54.88 23.53 57.84 24.85 60.24 24.79
  C 62.87 24.71 66.15 26.47 68.36 26.11
  A 0.53 0.52 -4.2 0 1 68.97 26.63
  L 68.94 28.64
  A 1.01 1.00 -21.2 0 1 68.62 29.35
  L 54.30 43.02
  A 2.37 2.36 -27.3 0 0 53.61 45.17
  L 57.02 63.64
  A 3.89 3.82 -48.2 0 1 57.07 64.71
  L 57.01 65.46
  Z
  M 35.54 52.30
  C 39.11 52.30 45.09 56.17 50.31 59.02
  A 0.42 0.42 0.0 0 0 50.92 58.75
  Q 51.31 57.17 51.03 56.25
  C 49.96 52.65 49.70 49.44 49.04 45.94
  Q 48.43 42.70 50.60 40.30
  Q 52.81 37.85 60.41 30.53
  A 0.45 0.45 0.0 0 0 60.13 29.76
  C 56.91 29.53 54.63 28.44 51.54 28.46
  C 48.67 28.49 43.66 27.39 42.13 24.34
  Q 37.26 14.62 35.90 12.17
  A 0.26 0.17 82.1 0 0 35.86 12.12
  Q 35.67 12.00 35.53 12.00
  Q 35.40 12.00 35.21 12.12
  A 0.26 0.17 -82.1 0 0 35.17 12.17
  Q 33.81 14.62 28.94 24.34
  C 27.41 27.39 22.40 28.49 19.53 28.46
  C 16.44 28.44 14.16 29.54 10.94 29.77
  A 0.45 0.45 0.0 0 0 10.66 30.54
  Q 18.26 37.85 20.47 40.30
  Q 22.64 42.70 22.03 45.94
  C 21.38 49.44 21.12 52.65 20.05 56.25
  Q 19.77 57.17 20.16 58.75
  A 0.42 0.42 0.0 0 0 20.77 59.03
  C 25.98 56.17 31.96 52.30 35.54 52.30
  Z"
/>
</svg>
