<?xml version="1.0" encoding="UTF-8" standalone="no"?>
<svg xmlns="http://www.w3.org/2000/svg" version="1.2" baseProfile="tiny" viewBox="0.00 0.00 70.00 70.00">
<path fill="#000000" d="
  M 0.7926 34.0819
  A 34.22 34.13 -179.3 0 1 35.4270 0.3725
  A 34.22 34.13 -179.3 0 1 69.2274 34.9181
  A 34.22 34.13 -179.3 0 1 34.5930 68.6275
  A 34.22 34.13 -179.3 0 1 0.7926 34.0819
  Z
  M 64.62 34.50
  A 29.62 29.62 0.0 0 0 35.00 4.88
  A 29.62 29.62 0.0 0 0 5.38 34.50
  A 29.62 29.62 0.0 0 0 35.00 64.12
  A 29.62 29.62 0.0 0 0 64.62 34.50
  Z"
/>
<path fill="#000000" d="
  M 29.80 29.73
  Q 28.34 30.09 27.36 29.69
  A 1.02 1.01 -80.8 0 1 26.73 28.81
  Q 26.27 22.03 32.45 19.96
  Q 37.51 18.27 41.18 22.67
  Q 45.28 27.60 41.17 33.34
  Q 40.96 33.64 37.85 36.15
  A 1.44 1.44 0.0 0 0 37.31 37.14
  C 37.08 39.18 37.38 40.49 35.54 41.25
  A 1.90 1.88 -21.6 0 1 33.06 40.19
  Q 32.04 37.55 32.99 35.02
  C 33.68 33.16 36.20 31.58 37.73 30.10
  A 2.17 2.14 78.4 0 0 38.25 29.30
  C 39.57 25.65 35.28 22.48 32.29 25.15
  A 1.76 1.72 -10.6 0 0 31.84 25.79
  L 30.42 29.20
  A 0.92 0.91 -85.3 0 1 29.80 29.73
  Z"
/>
<circle fill="#000000" cx="34.99" cy="47.11" r="2.94"/>
</svg>
