<?xml version="1.0" encoding="UTF-8" standalone="no"?>
<svg xmlns="http://www.w3.org/2000/svg" version="1.2" baseProfile="tiny" viewBox="0.00 0.00 70.00 70.00">
<rect fill="#000000" x="-2.23" y="-5.38" transform="translate(9.87,10.68) rotate(-43.6)" width="4.46" height="10.76" rx="2.13"/>
<path fill="#000000" d="
  M 34.93 6.00
  C 37.68 6.01 38.45 6.42 41.75 7.22
  A 4.80 4.41 -23.0 0 1 42.63 7.53
  Q 55.05 13.57 54.74 26.59
  Q 54.63 31.54 52.63 35.19
  Q 50.72 38.70 47.02 42.19
  A 3.29 3.28 -10.1 0 0 46.25 43.29
  Q 45.64 44.69 45.61 47.12
  C 45.53 53.16 39.64 51.87 34.83 51.86
  C 30.02 51.85 24.12 53.11 24.07 47.08
  Q 24.05 44.64 23.44 43.24
  A 3.29 3.28 10.3 0 0 22.68 42.14
  Q 19.00 38.63 17.10 35.11
  Q 15.12 31.45 15.03 26.50
  Q 14.78 13.48 27.23 7.50
  A 4.80 4.41 23.2 0 1 28.11 7.19
  C 31.41 6.40 32.19 5.99 34.93 6.00
  Z
  M 34.76 47.53
  Q 39.46 47.58 40.34 47.51
  A 0.91 0.91 0.0 0 0 41.18 46.57
  C 41.03 41.97 43.55 39.62 47.08 35.80
  Q 51.87 30.63 50.34 23.24
  C 48.93 16.46 42.66 10.42 35.09 10.36
  C 27.53 10.29 21.14 16.21 19.62 22.97
  Q 17.95 30.32 22.65 35.58
  C 26.11 39.46 28.58 41.86 28.35 46.45
  A 0.91 0.91 0.0 0 0 29.18 47.41
  Q 30.05 47.49 34.76 47.53
  Z"
/>
<rect fill="#000000" x="-5.47" y="-2.28" transform="translate(59.89,10.40) rotate(-45.0)" width="10.94" height="4.56" rx="2.21"/>
<rect fill="#000000" x="-4.85" y="-2.22" transform="translate(7.02,30.01) rotate(-0.1)" width="9.70" height="4.44" rx="2.07"/>
<ellipse fill="#000000" cx="0.00" cy="0.00" transform="translate(62.39,30.14) rotate(-0.5)" rx="5.58" ry="2.51"/>
<rect fill="#000000" x="-2.26" y="-5.38" transform="translate(9.87,47.77) rotate(44.4)" width="4.52" height="10.76" rx="2.19"/>
<rect fill="#000000" x="-2.26" y="-5.36" transform="translate(59.69,47.74) rotate(-44.1)" width="4.52" height="10.72" rx="2.19"/>
<path fill="#000000" d="
  M 42.41 57.46
  A 2.16 1.88 -56.5 0 1 42.85 60.76
  Q 38.01 66.09 29.97 63.39
  Q 27.78 62.66 26.39 60.61
  A 2.41 1.97 -37.5 0 1 27.07 57.73
  C 27.98 56.97 29.23 57.36 30.20 58.11
  Q 34.86 61.69 40.23 57.78
  A 1.49 1.40 18.3 0 1 40.77 57.53
  Q 41.90 57.25 42.41 57.46
  Z"
/>
</svg>
