<?xml version="1.0" encoding="UTF-8" standalone="no"?>
<svg xmlns="http://www.w3.org/2000/svg" version="1.2" baseProfile="tiny" viewBox="0.00 0.00 70.00 70.00">
<path fill="#515760" d="
  M 5.27 5.23
  Q 8.05 2.45 12.26 2.10
  Q 15.46 1.84 26.70 2.10
  A 1.88 1.88 0.0 0 1 28.53 4.11
  L 28.53 4.13
  A 2.20 2.19 2.4 0 1 26.34 6.14
  L 10.43 6.13
  A 1.37 1.34 30.1 0 0 9.78 6.29
  Q 8.66 6.91 7.80 7.77
  Q 6.94 8.62 6.32 9.74
  A 1.37 1.34 60.1 0 0 6.15 10.39
  L 6.12 26.30
  A 2.20 2.19 87.7 0 1 4.11 28.49
  L 4.09 28.49
  A 1.88 1.88 0.0 0 1 2.08 26.65
  Q 1.85 15.41 2.12 12.20
  Q 2.48 8.00 5.27 5.23
  Z"
/>
<path fill="#515760" d="
  M 64.75 5.24
  Q 67.53 8.02 67.89 12.22
  Q 68.16 15.42 67.92 26.66
  A 1.88 1.87 -87.3 0 1 65.91 28.49
  L 65.89 28.49
  A 2.20 2.19 -87.7 0 1 63.88 26.30
  L 63.87 10.40
  A 1.37 1.34 -60.0 0 0 63.70 9.75
  Q 63.08 8.64 62.22 7.78
  Q 61.36 6.92 60.25 6.30
  A 1.37 1.34 -30.0 0 0 59.60 6.14
  L 43.69 6.14
  A 2.20 2.19 -2.4 0 1 41.51 4.13
  L 41.51 4.11
  A 1.88 1.87 -2.7 0 1 43.34 2.10
  Q 54.57 1.85 57.77 2.11
  Q 61.97 2.47 64.75 5.24
  Z"
/>
<path fill="#515760" d="
  M 49.00 26.07
  L 49.03 26.10
  A 1.72 1.71 44.7 0 1 49.05 28.55
  L 31.71 45.87
  A 1.11 1.11 0.0 0 1 30.15 45.87
  L 20.93 36.75
  A 1.81 1.80 44.9 0 1 20.92 34.19
  L 21.13 33.99
  A 1.46 1.46 0.0 0 1 23.19 33.99
  L 30.45 41.25
  A 0.62 0.62 0.0 0 0 31.33 41.25
  L 46.48 26.09
  A 1.80 1.80 0.0 0 1 49.00 26.07
  Z"
/>
<path fill="#515760" d="
  M 7.80 62.23
  Q 8.66 63.09 9.78 63.70
  A 1.37 1.34 -30.1 0 0 10.43 63.87
  L 26.35 63.86
  A 2.20 2.19 -2.4 0 1 28.54 65.87
  L 28.54 65.89
  A 1.88 1.88 0.0 0 1 26.71 67.90
  Q 15.46 68.16 12.26 67.90
  Q 8.05 67.55 5.27 64.77
  Q 2.48 61.99 2.12 57.79
  Q 1.85 54.58 2.09 43.33
  A 1.88 1.88 0.0 0 1 4.09 41.50
  L 4.11 41.50
  A 2.20 2.19 -87.7 0 1 6.13 43.68
  L 6.15 59.60
  A 1.37 1.34 -60.1 0 0 6.32 60.26
  Q 6.94 61.37 7.80 62.23
  Z"
/>
<path fill="#515760" d="
  M 64.75 64.75
  Q 61.97 67.53 57.77 67.88
  Q 54.57 68.15 43.34 67.90
  A 1.88 1.87 2.7 0 1 41.51 65.89
  L 41.51 65.87
  A 2.19 2.19 0.0 0 1 43.70 63.86
  L 59.59 63.86
  A 1.37 1.34 30.0 0 0 60.25 63.69
  Q 61.36 63.07 62.22 62.22
  Q 63.08 61.36 63.69 60.25
  A 1.37 1.34 60.0 0 0 63.86 59.59
  L 63.87 43.70
  A 2.19 2.19 0.0 0 1 65.88 41.51
  L 65.90 41.51
  A 1.88 1.87 87.3 0 1 67.91 43.34
  Q 68.15 54.58 67.88 57.78
  Q 67.53 61.97 64.75 64.75
  Z"
/>
</svg>
