<?xml version="1.0" encoding="UTF-8" standalone="no"?>
<svg xmlns="http://www.w3.org/2000/svg" version="1.2" baseProfile="tiny" viewBox="0.00 0.00 70.00 70.00">
<path fill="#515760" d="
  M 34.9236 25.5106
  A 9.05 9.05 0.0 0 1 25.8894 34.5764
  L 10.3094 34.6036
  A 9.05 9.05 0.0 0 1 1.2436 25.5694
  L 1.2164 9.9894
  A 9.05 9.05 0.0 0 1 10.2506 0.9236
  L 25.8306 0.8964
  A 9.05 9.05 0.0 0 1 34.8964 9.9306
  L 34.9236 25.5106
  Z
  M 30.8368 8.1620
  A 2.96 2.96 0.0 0 0 27.8819 5.1968
  L 8.6620 5.1632
  A 2.96 2.96 0.0 0 0 5.6968 8.1181
  L 5.6632 27.3380
  A 2.96 2.96 0.0 0 0 8.6181 30.3032
  L 27.8380 30.3368
  A 2.96 2.96 0.0 0 0 30.8032 27.3819
  L 30.8368 8.1620
  Z"
/>
<path fill="#515760" d="
  M 66.13 3.56
  C 66.93 4.36 67.88 6.22 68.33 7.27
  Q 68.87 8.54 68.85 11.29
  Q 68.79 17.74 68.86 23.80
  A 2.23 2.23 0.0 0 1 66.67 26.06
  L 66.62 26.06
  A 2.12 2.12 0.0 0 1 64.46 23.93
  Q 64.48 9.98 64.40 7.50
  Q 64.38 6.96 63.56 6.14
  Q 62.73 5.32 62.19 5.30
  Q 59.71 5.23 45.76 5.31
  A 2.12 2.12 0.0 0 1 43.62 3.16
  L 43.62 3.11
  A 2.23 2.23 0.0 0 1 45.88 0.91
  Q 51.94 0.95 58.39 0.87
  Q 61.14 0.84 62.41 1.37
  C 63.46 1.82 65.32 2.76 66.13 3.56
  Z"
/>
<path fill="#515760" d="
  M 26.2653 20.5558
  A 5.14 5.14 0.0 0 1 21.1342 25.7047
  L 15.0942 25.7153
  A 5.14 5.14 0.0 0 1 9.9453 20.5842
  L 9.9347 14.5442
  A 5.14 5.14 0.0 0 1 15.0658 9.3953
  L 21.1058 9.3847
  A 5.14 5.14 0.0 0 1 26.2547 14.5158
  L 26.2653 20.5558
  Z
  M 22.4465 14.0073
  A 0.44 0.44 0.0 0 0 22.0073 13.5665
  L 14.5273 13.5535
  A 0.44 0.44 0.0 0 0 14.0865 13.9927
  L 14.0735 21.4727
  A 0.44 0.44 0.0 0 0 14.5127 21.9135
  L 21.9927 21.9265
  A 0.44 0.44 0.0 0 0 22.4335 21.4873
  L 22.4465 14.0073
  Z"
/>
<path fill="#515760" d="
  M 59.1268 22.0750
  A 4.00 4.00 0.0 0 1 55.1548 26.1029
  L 47.4350 26.1568
  A 4.00 4.00 0.0 0 1 43.4071 22.1848
  L 43.3532 14.4650
  A 4.00 4.00 0.0 0 1 47.3252 10.4371
  L 55.0450 10.3832
  A 4.00 4.00 0.0 0 1 59.0729 14.3552
  L 59.1268 22.0750
  Z
  M 55.5852 15.5224
  A 1.62 1.62 0.0 0 0 53.9624 13.9052
  L 48.4824 13.9148
  A 1.62 1.62 0.0 0 0 46.8652 15.5376
  L 46.8748 21.0176
  A 1.62 1.62 0.0 0 0 48.4976 22.6348
  L 53.9776 22.6252
  A 1.62 1.62 0.0 0 0 55.5948 21.0024
  L 55.5852 15.5224
  Z"
/>
<path fill="#515760" d="
  M 68.7526 59.1187
  A 9.02 9.02 0.0 0 1 59.7012 68.1072
  L 44.0613 68.0526
  A 9.02 9.02 0.0 0 1 35.0728 59.0012
  L 35.1274 43.3613
  A 9.02 9.02 0.0 0 1 44.1788 34.3728
  L 59.8187 34.4274
  A 9.02 9.02 0.0 0 1 68.8072 43.4788
  L 68.7526 59.1187
  Z
  M 64.2932 41.6081
  A 2.95 2.95 0.0 0 0 61.3380 38.6632
  L 42.0981 38.6968
  A 2.95 2.95 0.0 0 0 39.1532 41.6520
  L 39.1868 60.8919
  A 2.95 2.95 0.0 0 0 42.1420 63.8368
  L 61.3819 63.8032
  A 2.95 2.95 0.0 0 0 64.3268 60.8480
  L 64.2932 41.6081
  Z"
/>
<path fill="#515760" d="
  M 26.6607 54.5687
  A 3.90 3.90 0.0 0 1 22.7812 58.4891
  L 14.8413 58.5307
  A 3.90 3.90 0.0 0 1 10.9209 54.6512
  L 10.8793 46.7113
  A 3.90 3.90 0.0 0 1 14.7588 42.7909
  L 22.6987 42.7493
  A 3.90 3.90 0.0 0 1 26.6191 46.6288
  L 26.6607 54.5687
  Z
  M 23.1843 47.4714
  A 1.52 1.52 0.0 0 0 21.6511 45.9647
  L 15.8114 46.0157
  A 1.52 1.52 0.0 0 0 14.3047 47.5489
  L 14.3557 53.3886
  A 1.52 1.52 0.0 0 0 15.8889 54.8953
  L 21.7286 54.8443
  A 1.52 1.52 0.0 0 0 23.2353 53.3111
  L 23.1843 47.4714
  Z"
/>
<path fill="#515760" d="
  M 59.7094 54.1585
  A 5.13 5.13 0.0 0 1 54.5615 59.2705
  L 48.5015 59.2494
  A 5.13 5.13 0.0 0 1 43.3895 54.1015
  L 43.4106 48.0415
  A 5.13 5.13 0.0 0 1 48.5585 42.9295
  L 54.6185 42.9506
  A 5.13 5.13 0.0 0 1 59.7305 48.0985
  L 59.7094 54.1585
  Z
  M 55.9365 47.5273
  A 0.45 0.45 0.0 0 0 55.4873 47.0765
  L 48.0073 47.0635
  A 0.45 0.45 0.0 0 0 47.5565 47.5127
  L 47.5435 54.9927
  A 0.45 0.45 0.0 0 0 47.9927 55.4435
  L 55.4727 55.4565
  A 0.45 0.45 0.0 0 0 55.9235 55.0073
  L 55.9365 47.5273
  Z"
/>
<path fill="#515760" d="
  M 26.61 65.58
  L 26.61 65.72
  A 1.63 1.63 0.0 0 1 25.04 67.46
  Q 17.25 67.69 10.26 67.51
  C 5.28 67.38 3.80 65.39 1.26 61.02
  A 1.66 1.64 30.0 0 1 1.03 60.18
  L 1.03 44.85
  A 1.78 1.78 0.0 0 1 2.81 43.07
  L 4.21 43.07
  A 1.45 1.45 0.0 0 1 5.66 44.52
  Q 5.66 59.44 5.64 59.77
  Q 5.47 62.51 7.80 63.64
  A 2.06 1.96 -30.5 0 0 8.70 63.85
  L 24.77 63.84
  A 1.85 1.84 88.4 0 1 26.61 65.58
  Z"
/>
</svg>
