<?xml version="1.0" encoding="UTF-8" standalone="no"?>
<svg xmlns="http://www.w3.org/2000/svg" version="1.2" baseProfile="tiny" viewBox="0.00 0.00 70.00 70.00">
<path fill="#515760" fill-opacity="0.996" d="
  M 7.73 6.67
  Q 7.91 6.84 8.14 6.58
  A 0.16 0.08 -26.6 0 0 8.17 6.54
  Q 8.99 3.56 11.82 2.25
  A 2.55 2.38 30.3 0 1 12.80 2.03
  Q 29.20 1.95 36.26 2.04
  C 37.89 2.06 40.48 3.80 41.93 5.20
  Q 46.51 9.62 57.81 20.18
  Q 62.34 24.41 61.33 31.87
  C 61.13 33.37 60.11 34.83 58.67 34.96
  A 1.96 1.81 83.3 0 1 56.68 33.25
  Q 56.41 31.27 56.60 28.42
  A 2.00 2.00 0.0 0 0 54.67 26.29
  Q 54.64 26.29 41.00 26.22
  Q 37.45 26.21 36.19 22.91
  A 1.63 1.60 -55.7 0 1 36.09 22.35
  L 36.09 7.70
  A 1.27 1.27 0.0 0 0 34.82 6.43
  L 13.81 6.43
  A 1.76 1.76 0.0 0 0 12.05 8.19
  L 12.05 61.44
  A 2.07 2.07 0.0 0 0 14.14 63.51
  L 22.57 63.44
  A 1.63 1.62 -80.9 0 1 24.12 65.59
  L 24.05 65.80
  A 3.08 3.06 8.4 0 1 21.11 67.97
  Q 15.02 67.97 13.03 67.82
  Q 10.50 67.63 8.66 64.66
  A 1.14 1.06 -2.0 0 0 8.19 64.25
  Q 7.06 63.74 7.06 62.18
  Q 7.08 34.62 7.17 8.77
  A 1.09 1.05 -30.0 0 1 7.33 8.21
  Q 7.73 7.51 7.60 6.74
  A 0.08 0.08 0.0 0 1 7.73 6.67
  Z
  M 40.45 21.51
  A 0.40 0.40 0.0 0 0 40.85 21.91
  L 51.83 21.91
  A 0.40 0.40 0.0 0 0 52.12 21.23
  L 41.13 10.25
  A 0.40 0.40 0.0 0 0 40.45 10.54
  L 40.45 21.51
  Z"
/>
<rect fill="#515760" fill-opacity="0.996" x="-6.18" y="-2.28" transform="translate(56.70,43.89) rotate(42.9)" width="12.36" height="4.56" rx="2.19"/>
<path fill="#515760" fill-opacity="0.996" d="
  M 54.65 50.74
  A 2.37 2.37 0.0 0 1 54.66 54.10
  L 45.92 62.90
  A 11.44 5.97 -45.2 0 1 33.62 66.81
  L 33.48 66.67
  A 11.44 5.97 -45.2 0 1 37.31 54.35
  L 46.05 45.54
  A 2.37 2.37 0.0 0 1 49.40 45.53
  L 54.65 50.74
  Z
  M 50.84 51.59
  L 49.08 49.73
  A 1.10 1.10 0.0 0 0 47.53 49.69
  L 38.57 58.18
  A 4.32 1.50 -43.5 0 0 36.47 62.24
  L 37.68 63.52
  A 4.32 1.50 -43.5 0 0 41.85 61.64
  L 50.80 53.14
  A 1.10 1.10 0.0 0 0 50.84 51.59
  Z"
/>
</svg>
